<?xml version="1.0" encoding="utf-8"?>
<!-- Generator: Adobe Illustrator 16.0.0, SVG Export Plug-In . SVG Version: 6.00 Build 0)  -->
<!DOCTYPE svg PUBLIC "-//W3C//DTD SVG 1.1//EN" "http://www.w3.org/Graphics/SVG/1.1/DTD/svg11.dtd">
<svg version="1.1" id="Layer_1" xmlns="http://www.w3.org/2000/svg" xmlns:xlink="http://www.w3.org/1999/xlink" x="0px" y="0px"
	 width="237.75px" height="872.125px" viewBox="0 0 237.75 872.125" enable-background="new 0 0 237.75 872.125"
	 xml:space="preserve">
<path fill="#70BE44" d="M680.464,248.923c1.771,0.885,3.104,1.327,4.878,2.215c0,0.44-0.445,0.44-0.445,0.887
	C683.565,251.138,681.791,250.25,680.464,248.923L680.464,248.923z"/>
<path fill="#70BE44" d="M180.799,140.332c-4.847,7.189-8.273,15.292-11.896,23.359c-1.568,3.497-3.055,7.009-4.543,10.522
	c2.848-3.216,5.291-6.809,7.309-10.161C176.126,156.642,178.427,148.495,180.799,140.332z"/>
<path fill="#80B719" d="M176.667,60.764c-7-6.88-23.699-16.819-32.542-19.201c-20.707-5.577-54.217-2.291-67.149,2.747
	c-8.351,3.253-30.383,23.697-37.141,43.049c-4.505,11.181-4.17,28.117-3.113,39.866c0,3.545,3.936,22.54,4.809,25.196
	c2.226,5.756,11.085,17.269,11.973,18.157c0.669,0.503,15.115,13.408,18.16,15.074c27.307,13.988,77.076,4.619,86.402,0.199
	c11.897-5.643,23.418-22.808,24.293-25.017c4.896-9.776,10.82-32.256,10.119-44.16C191.488,99.839,189.698,73.57,176.667,60.764z"/>
<path fill="#22231F" d="M115.128,94.97c-13.753,0.593-27.753-0.407-41.576,2.638c-4.289,0.791-8.126,0.288-11.516-1.482
	c-2.544-0.905-4.226-2.645-4.607-4.79c-1.978-8.583,6.639-12.267,10.506-13.475c6.127-1.81,12.242-3.135,18.704-3.795
	c2.154-0.22,4.347-0.367,6.591-0.432c18.145-1.07,36.145,1.93,53.745,5.28c2.978,0.912,5.948,1.822,8.922,2.732
	c2.975,0.91,5.945,1.82,8.92,2.732c10.18,4.279,10.078,9.591,10.021,12.584c-0.031,1.703-0.908,2.969-2.216,4.23
	c-1.306,1.257-2.604,2.088-4.745,2.473c-3.003,0.585-5.999,0.845-9.038,0.657c-8.465-1.424-23.465-7.757-32.946-8.217
	C122.382,95.641,118.757,95.247,115.128,94.97z"/>
<path fill="#22231F" d="M108.519,107.848c7.856,0.714,15.856,0.714,23.856,2.714c1,0,6,2,7,2c9,2,17,5,24,9c2,2,1,4,1,6
	c-2,4-6,8-11,7c-17-6-36-9-54-9c-8.875,0.25-16,2-24,3c-2.388-0.25-4-1-5.771-1.783c-2.343-1.411-4.085-3.408-5.333-5.141
	c-1.664-2.593-0.916-4.55,0.416-7.089c1.104-1.903,2.836-3.154,4.937-3.978c10.752-3.009,22.752-2.009,33.583-2.78
	C105.818,107.729,107.772,107.738,108.519,107.848z"/>
<g>
	<g id="XMLID_1_">
		<g>
			<path fill="#FFFFFF" d="M180.232,310.618c4.049,5.986,12.513,34.963,3.156,71.188c-0.662,2.647-1.311,5.309-2.248,7.925
				c0,0.015-0.017,0.031-0.045,0.046c0,0.077-7.097,15.712-16.697,25.039c-10.541,10.201-24.482,17.835-32.056,18.728
				c-23.083,2.693-72.973,5.14-91.485-35.301c-0.016-0.31-0.077-0.631-0.185-0.971c-0.77-2.555-1.385-5.108-1.924-7.68
				c-0.015-0.169-0.062-0.323-0.077-0.477c-1.877-9.326-2.262-18.728-1.939-28.407c0.385-11.603,9.741-36.64,11.095-39.241
				c3.416-6.479,8.541-14.126,13.418-19.589c13.265-14.773,34.979-21.052,37.841-22.083
				C130.93,273.254,174.54,290.69,180.232,310.618z M174.863,374.758c0.462-1.093,7.986-31.424,1.216-50.982
				c-7.679-22.175-28.347-31.793-33.101-33.378c-13.836-4.216-28.825-4.894-42.937-1.77c-0.4,0.077-0.723,0.215-1.031,0.369
				c-11.295,2.216-21.759,9.218-29.376,17.559c-9.618,10.479-15.512,21.082-18.728,34.024c-1.4,4.309-8.464,26.33-3.139,46.258
				c0.769,2.877,2.124,5.57,3.262,8.34c1.292,3.201,3.416,5.896,5.324,8.728c1.616,2.445,16.097,16.05,30.9,18.635
				c9.372,1.646,10.587,3.062,27.192,2.832c16.558-0.23,32.131-9.264,42.134-19.343
				C164.646,397.641,168.462,389.131,174.863,374.758z"/>
			<path fill="#3881C3" d="M176.079,323.775c6.771,19.559-0.754,49.89-1.216,50.982c-6.401,14.373-10.219,22.883-18.281,31.271
				c-10.003,10.08-25.576,19.111-42.134,19.343c-16.604,0.229-17.82-1.187-27.192-2.832c-14.804-2.585-29.284-16.188-30.9-18.635
				c-1.908-2.832-4.032-5.524-5.324-8.728c-1.139-2.77-2.493-5.463-3.262-8.34c-5.325-19.928,1.739-41.949,3.139-46.258
				c3.216-12.942,9.11-23.544,18.728-34.024c7.617-8.341,18.082-15.343,29.376-17.559c0.308-0.154,0.631-0.292,1.031-0.369
				c14.111-3.124,29.101-2.447,42.935,1.77C147.732,291.982,168.4,301.601,176.079,323.775z"/>
		</g>
	</g>
	<path fill="#0A0A0A" d="M155.318,315.518c-0.352,9.496-1.276,41.278-1.256,40.998c-0.199,2.762-0.062,8.606-0.322,11.365
		c-0.85,8.978-0.902,26.328-19.229,23.097c-14.673-0.917-12.237-13.746-11.325-15.737c2.443-5.338,5.239-7.375,10.498-8.887
		c3.467-0.997,9.178,0.786,11.428,1.5c0.13-0.825,0.332-1.626,0.369-2.433c0.229-5.169,0.472-10.339,0.598-15.512
		c0.045-1.8-0.098-8.599,0.021-10.192c0.076-1.002-0.344-1.435-1.389-1.366c-7.492,0.5-14.998,0.839-22.477,1.497
		c-5.432,0.478-10.841,1.276-16.232,2.104c-2.883,0.443-5.697,1.293-8.561,1.875c-1.083,0.221-1.283,0.884-1.318,1.799
		c-0.578,14.703-1.195,29.403-1.761,44.107c-0.02,0.476,0.229,9.526-7.823,13.109c-1.907,0.849-18.094,3.63-21.88-4.871
		c-2.227-5-1.725-9.057-0.903-11.695c2.165-6.492,12.317-8.197,14.746-8.008c2.08,0.164,4.146,0.517,6.208,0.786
		c0.351-8.495,0.953-16.974,1.313-25.468c0.378-8.829,1.085-28.885,1.002-30.069c-0.146-2.095,1.438-4.652,4.482-5.527
		c3.178-0.912,6.275-2.105,9.462-2.971c12.917-4.116,37.039-5.637,41.625-5.542c2.26,0.048,4.514,0.537,6.76,0.891
		C150.509,310.548,155.318,312.702,155.318,315.518z"/>
</g>
<path fill="#22231F" d="M108.818,137.524c6.228,0.566,12.569,0.566,18.911,2.151c0.793,0,4.756,1.585,5.549,1.585
	c7.135,1.585,13.477,3.963,19.022,7.134c1.586,1.585,0.793,3.171,0.793,4.756c-1.585,3.171-4.756,6.342-8.72,5.549
	c-6.174-2.179-19.956-6.257-33.624-7.137c-16.164-1.041-30.921,2.085-32.778,0.967c-1.857-1.118-3.238-2.701-4.228-4.074
	c-1.319-2.055-0.726-3.606,0.33-5.619c0.875-1.509,2.249-2.5,3.913-3.153c8.523-2.385,18.035-1.592,26.62-2.204
	C106.678,137.429,108.227,137.437,108.818,137.524z"/>
<path fill="#3D8798" d="M7.188,621.86c4.449-5.975,8.718-12.079,13.237-17.997c3.275-4.294,6.938-8.291,10.243-12.563
	c2.982-3.851,5.655-7.938,8.564-11.849c1.969-2.646,4.039-5.226,6.186-7.729c2.903-3.383,5.919-6.676,8.916-9.979
	c1.883-2.588,5.767-1.273,8.045-1.235c7.473,0.127,14.941,0.519,22.414,0.608c6.997,0.088,13.994-0.178,20.991-0.096
	c5.432,0.062,10.858,0.507,16.291,0.635c5.04,0.117,10.09-0.072,15.131,0.072c5.553,0.16,11.104,0.562,16.653,0.84
	c6.32-0.222,2.986,6.054,2.019,7.045c-2.088,2.139-3.819,4.623-5.663,6.987c-5.531,7.115-11.109,14.193-16.541,21.386
	c-3.766,4.981-7.506,10.011-10.91,15.244c-2.494,3.831-5.418,7.271-8.338,10.746c-1.74,2.073-3.301,4.295-5.053,6.352
	c-3.594,4.212-8.415,5.014-13.639,4.979c-3.835-0.021-27.484-1.146-33.105-1.021c-4.964,0.114-9.946-0.854-14.933-1.1
	c-4.914-0.238-9.841-0.141-14.765-0.248c-4.363-0.097-8.724-0.341-13.086-0.395c-2.911-0.032-5.822,0.211-8.734,0.227
	c-1.815,0.012-3.653-0.045-5.445-0.312C-0.121,630.982,5.749,623.789,7.188,621.86z"/>
<path fill="#FFFFFF" d="M173.459,628.651c-1.66,0.164-2.992,0.519-4.266,0.377c-2.133-0.232-4.51-0.33-6.237-1.38
	c-0.94-0.571-1.077-2.995-1.035-4.566c0.161-6.553,0.589-13.101,0.804-19.653c0.231-7.063,0.396-14.139,0.461-21.211
	c0.027-3.093-0.326-6.185-0.367-9.28c-0.024-1.814,0.158-3.644,0.367-5.451s3.562-3.372,5.812-2.916
	c1.444,0.293,2.938,0.358,4.412,0.541c1.323,0.164,2.409,0.367,2.312,2.234c-0.255,4.831-0.354,9.669-0.443,14.503
	c-0.062,3.387-0.016,6.767-0.016,10.398c4.543-2.272,8.887-3.119,12.995-0.513c2.146,1.354,4.101,3.351,5.504,5.475
	c2.769,4.183,4.99,8.68,4.593,13.982c-0.484,6.421-3.076,11.729-8.098,15.834c-3.099,2.531-6.527,1.938-9.984,1.178
	c-1.002-0.221-2.021-0.471-2.957-0.875C175.473,626.533,174.111,626.802,173.459,628.651z M186.604,604.287
	c-0.717-1.078-2.225-2.005-3.519-2.249c-3.457-0.648-8.217,3.819-8.103,7.378c0.058,1.891,0.814,8.665,2.406,9.235
	c1.777,0.639,3.627,1.154,5.485,1.481c0.748,0.132,1.812-0.15,2.388-0.646C192.991,614.624,187.979,606.345,186.604,604.287z"/>
<path fill="#FFFFFF" d="M200.389,609.428c-0.021-14.261,11.899-18.629,13.932-18.812c4.625-0.417,9.33-0.195,12.998,3.119
	c2.316,2.099,5.035,4.067,5.291,7.779c0.127,1.846-0.557,2.507-2.139,2.678c-1.574,0.167-3.16,0.26-4.74,0.405
	c-2.11,0.2-3.588-0.47-4.521-2.563c-0.853-1.917-3.448-2.612-5.092-1.344c-5.64,4.359-7.806,9.699-4.491,16.626
	c1.289,2.694,6.57,4.726,8.952,2.823c1.103-0.881,0.858-3.21,1.754-4.312c1.981-2.442,7.979-2.566,9.875-0.091
	c0.347,0.454,0.54,1.155,0.521,1.734c-0.176,5.524-2.691,9.845-7.562,12.271c-2.146,1.07-4.938,0.871-7.451,1.164
	c-6.147,0.716-13.164-3.736-14.981-9.697C201.562,617.386,200.184,609.479,200.389,609.428z"/>
</svg>
