<?xml version="1.0" encoding="utf-8"?>
<!-- Generator: Adobe Illustrator 16.0.0, SVG Export Plug-In . SVG Version: 6.00 Build 0)  -->
<!DOCTYPE svg PUBLIC "-//W3C//DTD SVG 1.1//EN" "http://www.w3.org/Graphics/SVG/1.1/DTD/svg11.dtd">
<svg version="1.1" id="Layer_1" xmlns="http://www.w3.org/2000/svg" xmlns:xlink="http://www.w3.org/1999/xlink" x="0px" y="0px"
	 width="144px" height="144px" viewBox="0 0 144 144" enable-background="new 0 0 144 144" xml:space="preserve">
<path fill="#FCFCFC" d="M112.947,65.069c6.2,0.1,13.1,2.1,13.1,9.601c0,7.899-10.199,9.899-16.399,9.8
	c-10.4-0.101-51.301-1.8-61.201-0.2c2.5,4,4.9,7.1,8,10.6c2.9,3.301,4.9,9,1.1,12.4c-3.5,3.1-9.8,3.7-13.3,0.6
	c-6.5-5.8-22.4-26.399-25.1-29.6c-2.5-3-0.6-6.8,1.4-9.5c5.3-7.3,11.2-14.101,16.3-21.5c4.2-6.101,11.6-18.8,20.3-10.4
	c2.9,2.8,3,6.2-0.2,10.5c-2.2,3-4.6,5.9-6.9,8.8c-1,1.301-2.3,2.4-2.9,3.9c-1.5,3.6-0.8,6.1-1.3,5.1
	C31.546,65.169,90.848,64.669,112.947,65.069z"/>
</svg>
