<?xml version="1.0" encoding="utf-8"?>
<!-- Generator: Adobe Illustrator 16.0.0, SVG Export Plug-In . SVG Version: 6.00 Build 0)  -->
<!DOCTYPE svg PUBLIC "-//W3C//DTD SVG 1.1//EN" "http://www.w3.org/Graphics/SVG/1.1/DTD/svg11.dtd">
<svg version="1.1" id="Layer_1" xmlns="http://www.w3.org/2000/svg" xmlns:xlink="http://www.w3.org/1999/xlink" x="0px" y="0px"
	 width="237.8px" height="213.2px" viewBox="0 0 237.8 213.2" enable-background="new 0 0 237.8 213.2" xml:space="preserve">
<g>
	<path fill="#FFFFFF" d="M137.5,193.7c-0.1,1.5-0.1,2.9-0.2,4.9c-0.2,2.4-0.3,4.9-0.9,7.3c-0.2,0.9-3.3,1.2-3.4,0.2
		c-0.1-2.8,1-14.2,1.2-17.2c0.4-5.8,0.6-11.6,1.1-17.3c0.2-2.1,0.1-1,0.3-5.3c-0.2-2.9,12.9-4.1,14.9,0.1c1.5,2.7,2.1,5.6,1.8,8.6
		c-0.1,0.7,0,9.5-2,12.8c-0.4,0.6-0.3,1.6-0.2,2.4c0,1,0.2,2,0.4,2.9c0.7,3.2,7,13.1,4.3,14.2c-1,1-2.3,0.1-3.4-0.9
		c-1.1-1.1-1.8-2.2-2.3-3.7c-0.8-2.9-2.3-5.6-3.6-8.3c-0.3-0.5-1.1-1.1-1.7-1.1C142,193,139.9,193.7,137.5,193.7z M138.1,189.4
		c1.4-0.8,2.8-0.3,4.2-0.6c2.4-0.5,3.5-1.9,3.9-4.1c0.7-4,1.4-8.1,1.8-12.2c0.2-2.1-3.1-4.4-5.7-4.3c-1.8,0.1-2.9,2-3,4.4
		c-0.2,4.6-0.8,9.2-1.1,13.8C138,187.9,138.1,187.9,138.1,189.4z"/>
	<path fill="#FFFFFF" d="M126,184.4c-0.4,3.9-1.3,7.8-2.4,11.6c-0.5,1.8-1.8,3.4-2.9,5.1c-0.7,1.1-1.3,2.3-2.2,3
		c-1.2,1-2.6,1.7-4,2.2c-3.3,1.2-5.8,0.4-6.9-2.3c-0.8-1.9-1.3-4.1-1.4-6.1c-0.1-3.2,0.3-6.5,0.7-9.7c0.6-5.9,1.4-11.8,4.2-17
		c1.5-2.8,2.8-6.1,6.8-6.8C122.2,164.2,127.2,168.3,126,184.4z M111.4,201.1c0.5,1.2,1.4,1.4,2.8,0.9c3.3-1.4,4.6-4.5,5.6-7.3
		c3.9-12.3,2.6-18.8,1.6-22.4c-0.1-1.1-1.7-2.4-2.9-2.9c-0.7-0.3-2.3,0.8-2.9,1.7c-1.2,1.9-2.5,4-3,6.2
		C108.3,191.5,108.9,197.3,111.4,201.1z"/>
	<path fill="#FFFFFF" d="M171.2,166.9c-1.7-0.2-3.4,1-3.5,2.6c-0.3,4.7-0.6,9.4-0.8,14.2c0,0.6,0.7,1.7,1.2,1.8
		c1.5,0.3,3,0.2,4.5,0.3c1.5,0.1,3-0.1,4.4,0.3c0.6,0.2,1.3,1.5,1.3,2.3c0,1.2-1.1,1.7-2.3,1.6c-2.6-0.1-5.1-0.3-7.7-0.4
		c-1.5-0.1-2.1,0.4-2.2,2.1c-0.1,2.8-0.5,5.6-0.7,8.4c-0.1,2,0.4,2.4,2.5,2.3c3-0.2,6-0.4,9.1-0.3c1.1,0,2.8-0.3,3.2,1.4
		c0.2,2.4-1.7,3.1-2.9,3.2c-1.9,0.1-10,0.3-12.1,0.3c-1.1,0-3.7-1.1-3.7-4.8c0.3-3.2-0.3-6.4,0.4-9.6c0.6-3.1,1.4-23.2,1.5-25.9
		c0.2-3.5,2.4-4.6,5.8-4c2.9,0.5,5.9,0.4,8.9,0.6c0.7,0.1,1.7,0.1,2,0.5c0.6,0.9,0.7,3.5-1.1,3.8c-0.5,0.1-1.1,0-1.7-0.1
		C177.1,167.5,173.1,167.2,171.2,166.9z"/>
	<path fill="#FFFFFF" d="M57.7,200.1c-0.7-2.2-0.8-5,0.9-5.2c1.7-0.2,1.9,0.5,2.3,1.1c0.8,1.3,1,2.9,1.6,4.4
		c0.6,1.6,2.8,2.2,4.6,1.1c2.2-1.3,2.1-3.5,2-4.9c-0.1-2.4,0.1-5-0.8-7.1c-1.1-2.7-3-5.2-5-7.4c-3.9-4.3-3.4-8.9-1.8-13.6
		c1.6-5,5.9-7.1,9.2-5.7c2.7,1.2,5.7,4.2,5.6,7.1c0,0.8-0.8,1.9-1.5,2.2c-0.7,0.2-1.9-0.3-2.5-0.9c-0.7-0.7-0.8-2-1.5-2.7
		c-0.7-0.8-3.4-2.1-4.7,0.1c-2.8,5.3-2.2,8.4,2.1,13.1c1.3,1.4,2.2,3.1,3.1,4.7c1.1,2,3.1,5.5,2.6,11c-0.3,1.6-0.8,3.3-1.4,4.8
		c-0.6,2.6-7.8,8.1-12.5,2.4C59.5,203.9,57.8,201,57.7,200.1z"/>
	<path fill="#FFFFFF" d="M94.3,187.9c-0.5,4.8-1,9.6-1.2,14.4c-0.1,1.7,0.5,3.5-1.9,4c-0.8,0.1-1.9,0.2-2.3-0.3
		c-0.7-0.8,0.8-11.5,1.4-15.8c0.5-3.9,0.5-7.8,0.7-11.7c0.1-3.2,0.2-6.3,0.3-9.5c0-1.2-0.2-1.9-1.8-2c-1.8-0.1-7.9,1-8.3-0.6
		c-0.4-1.4-1.2-3.1,1.4-3.2c2.5-0.1,5.1-0.1,7.6-0.1c0.8,0,1.5,0,2.3,0c1.1,0,2.2,0.2,3.3,0.2c1.5,0,3-0.3,4.5-0.2
		c1.3,0.1,2.6,0.3,3.7,0.9c0.5,0.3,1,1.9,0.6,2.3c-0.5,0.7-1.6,1.1-2.5,1.1c-1.4,0.1-2.7-0.3-4.1-0.3c-1.3,0-2.2,0.5-2.1,2.1
		C96.1,170.2,94.8,182.8,94.3,187.9z"/>
</g>
<g>
	<path fill="#FFFFFF" d="M83.7,139.8c-0.1,0.4-0.4,1-0.4,1.7c0,2.3,0,4.5,0.1,6.8c0,0.9,0.4,1.8,0.3,2.7c-0.1,1-0.1,2.5-0.8,2.9
		c-0.8,0.6-2.3,0.6-3.3,0.3c-0.5-0.2-0.7-1.7-0.7-2.7c0.2-5.2,0.5-10.3,0.8-15.5c0.3-5.4,0.7-10.8,1.1-16.3c0.1-2,0.1-4.1,0.4-6.1
		c0.2-3.3,5.8-2,6.6-2.1c3.1-0.3,5.6,1,7.6,2.9c1,0.9,1.9,2.6,2,4c0.1,2.9-1.1,11.2-3.4,15.2c-0.4,0.8-0.1,1.5,0,1.9
		c1.1,3.4,6.7,12.9,6.4,15.5c-0.1,0.7-0.8,1.5-1.4,1.7c-0.6,0.2-1.9-0.1-2.1-0.5c-0.9-1.6-1.5-3.4-2.1-5.2c-0.7-2-1.4-4.1-2.1-6.1
		c-0.4-1.2-1.1-1.5-2.6-1.3C88.1,140,86,139.8,83.7,139.8z M84.5,117.1c-0.5,6.5-1,13-1.5,19.4c4.4,0.6,6-0.3,7.4-3.7
		c0.4-1,0.9-2.1,1.1-3.2c0.6-3,1.3-6.1,1.5-9.1c0.1-2.2-2.2-3.9-4.4-3.8C87.2,116.6,85.9,116.9,84.5,117.1z"/>
	<path fill="#FFFFFF" d="M116.8,148.5c0.4-4.6,0.7-8.8,1.1-13c0.2-2.9,0.5-5.7,0.8-8.5c0.5-4.7,1.1-9.4,1.6-14
		c0.2-1.7,2.4-3.2,4.1-2.6c3.1,1.1,11.5,2.2,13,10.1c0.8,2.1,1.4,4.3,1.5,6.6c0.2,3,0,6.1-0.4,9c-0.3,2.4-0.8,4.8-1.7,7
		c-0.8,1.9-1.9,3.7-3.3,5.2c-1.4,1.5-6.1,3.5-7.9,4C123.8,152.7,116.8,152.3,116.8,148.5z M119.9,147.9c5.5,0.5,10.5-1.9,12.4-6.1
		c1-2.2,1.7-4.5,2.2-6.8c0.5-2.3,0.7-4.7,0.7-7c-0.1-1.8-0.9-3.6-1.2-5.4c-0.5-3.2-3.5-6.6-6.7-7.1c-2.4-0.4-3.8,0.5-4.2,2.9
		C122.7,120.6,119.7,140.4,119.9,147.9z"/>
	<path fill="#FFFFFF" d="M29.1,123.5c0.4-1.6,1.2-3,1.5-4.6c0.4-2.6,1.5-4.6,3.8-5.9c0.7-0.4,1.4-0.8,2.1-0.9c1.3-0.3,2.7-0.6,4-0.6
		c2,0,3.5,1.1,4.8,2.7c5.1,6.1,4.9,13,3.3,20.1c-1,4.1-2,8.2-3.6,12c-1.1,2.7-3,5.1-6.1,6.1c-1.1,0.4-2.3,1.1-3.4,1.2
		c-3.9,0.2-6.7-2.6-7.2-6.7C27.8,143.6,25.7,133.6,29.1,123.5z M30.4,138.4c0.2,1.5,0.2,3,0.6,4.4c0.5,1.7,1,3.7,2.2,4.8
		c2.2,1.9,3.4,1.5,5.9-0.4c2.4-1.8,3.8-4.1,4.1-7.2c0.1-0.7,0.3-1.3,0.5-2C45.4,132,45.9,126,44,120c-0.5-1.5-1.5-3.4-2.8-3.9
		c-3.3-1.4-6.2,0.3-7.5,3.7C31.4,125.7,30.3,131.9,30.4,138.4z"/>
	<path fill="#FFFFFF" d="M75.3,110.7c1.1,0.7,0.9,2.9,0.7,4.6c-0.2,2.7-0.3,5.4-0.5,8.1c-0.1,2.6,0,5.3-0.4,7.9
		c-0.5,4.3-1,8.6-2,12.8c-0.8,3.6-3,6.5-6.6,7.9c-5.1,2-7.5,1.5-11.2-2.8c-0.9-1-1.1-2.6-1.4-3.9c-0.2-1.1-0.3-2.2-0.2-3.4
		c0.1-3.9,1.2-24,1.1-26.8c0-0.6,0-1.2,0-1.9c0.1-1.1-0.1-2.6,1.9-2.3c2.3,0.4,2.9,1.1,2.7,3.2c-0.7,7.4-1.4,14.8-1.9,22.2
		c-0.2,2.7,0.1,5.5,0.9,8c1.4,4.5,6.6,5.6,9.4,1.9c1.5-2.1,1.8-5.2,2.5-7.8c0.5-2.3,0.9-4.6,1-7c0.1-2.4-0.2-4.9-0.1-7.4
		c0.1-3,0.4-6,0.6-9.1C71.7,114.7,72.2,109,75.3,110.7z"/>
	<path fill="#FFFFFF" d="M226.4,116.7c-1.8-0.1-6.4,3.6-3,10.6c0.4,0.9,1.4,1.8,2.4,2.3c1.6,0.9,3.8,1.2,5.1,2.4
		c6.6,4.2,5.2,19.6-2.4,19.7c-3.8,0-9.8,0.7-9.3-9c0-0.8,0-2.3,1.4-2.3c1.4,0,1.3,1.5,1.4,2.3c0.4,3.1,3.4,5.5,6,4.6
		c1.8-0.6,2.6-1.9,2.8-3.6c0.7-4.5-1-7.8-5-9.9c-0.5-0.3-4-1.6-4.7-2.1c-1.8-1.1-2.3-3.4-2.6-5.4c-1.1-12.3,4.6-16.2,11.3-14
		c6,3.2,6.2,11.4,4.3,12C231.7,125.2,232.3,117,226.4,116.7z"/>
	<path fill="#FFFFFF" d="M146.9,143.9c-0.4,2.5-0.7,5-0.7,7.5c0,1.7-1.6,2.1-2.9,2.1c-5.7,0,7.5-40.2,11.5-39.8
		c1,0.1,2.1,2.1,2.4,3.5c0.9,3.7,4.1,17.8,5.1,21.1c0.2,0.6,0.2,1.2,0.4,1.8c0.5,2.7,1.1,5.4,1.5,8.1c0,3.4-2.4,4.3-3,3.8
		c-0.9-0.7-1.7-2-2-3.1c-0.4-1.4-0.3-3-0.6-4.5c-0.4-2.4-2.9-2.5-5.4-2.6C150.1,141.8,147.1,142.1,146.9,143.9z M157.4,137.8
		c-1-5.4-2.3-12.7-3.2-18c-1.9,5.2-3.5,12.5-5.5,18C151.6,137.8,154.5,137.8,157.4,137.8z"/>
	<path fill="#FFFFFF" d="M210.2,134.9c0.9,1.2-1,2.8-2.6,2.8c-1.6,0-3.2,0.3-4.8,0.4c-1.3,0-2,0.5-2.1,1.9c-0.3,2.4-0.7,4.7-0.9,7.1
		c-0.1,1.3,0.5,1.9,2.1,2c2.9,0.1,5.9,0.3,8.7,0.7c0.5,0.1,1.3,0.9,1.2,2.2c0,1.3-1,1.2-1.6,1.3c-2.5,0.2-5,0-7.5,0.1
		c-1.5,0.1-3,0.5-4.5,0.5c-2.1,0.1-2.8-0.6-2.6-2.7c0.3-2.6,0.3-5.4,0.5-8.1c0.2-1.9,1.3-19.4,1.4-23.5c0-1-0.6-7.3,4.3-7.3
		c1.9,0,3.7,0.6,5.5,0.9c1.5,0.2,3.1,0.2,4.6,0.5c1.8,0.4,2.7,2,1.8,3.2c-0.3,0.4-0.9,0.8-1.4,0.8c-1.3,0-2.7,0.1-3.8-0.5
		c-2-1-3.8-0.5-5.6,0.1c-0.8,0.3-1.7,1.6-1.8,2.5c-0.4,3.6-0.6,7.2-0.8,10.7c-0.1,3,1.1,3.8,5.1,3.8
		C207,134.2,209.3,133.7,210.2,134.9z"/>
	<path fill="#FFFFFF" d="M166.8,117.3c-0.9-0.7-1.7-0.9-1.3-2.7c1-3.9,23-2.2,25.9-1.9c1.6,0.2,2.1,1.6,2.1,2.9
		c0,0.5-1.1,1.3-1.7,1.3c-1.8,0-3.7-0.5-5.5-0.4c-3.5,0.1-3.8,0.2-4.3,4.7c-0.6,5-1.9,28.5-2.1,30.7c-0.1,0.7-1.7,1.6-2.2,1.6
		c-1-0.1-1.8-0.3-2.2-1.1c-1.1-2.2,2.2-23.7,2.3-26.1c0-0.7,0.3-1.3,0.4-2c0.1-2.2,0.5-4.5,0.2-6.7c-0.3-2.5-2.3-0.7-3.5-0.9
		c-0.7-0.1-1.6,0.1-2.3,0.2C170.9,117.3,167.2,117.5,166.8,117.3z"/>
	<path fill="#FFFFFF" d="M13.2,128.2c-0.1,2.4-0.3,4.4-0.3,6.4c0,4.8,0.1,9.7,0.1,14.5c0,1.1,0.2,2.3-0.1,3.3
		c-0.2,0.8-1.1,1.5-1.8,2c-1.1,0.6-1.8-0.2-1.9-1.2c-0.3-2-0.4-4.1-0.5-6.1c0-1.2,0.5-13.6,1.3-18.6c0.5-2.9,0.3-5.9,0.4-8.8
		c0-1.8-1.3-2-2.7-1.9c-1.5,0.1-2.9,0.4-4.4,0.3c-1.5,0-2.7-1.7-2.3-3.1c0.3-1.4,1.2-1.8,2.7-1.6c1.7,0.3,3.5,0.3,5.3,0.3
		c1.3,0.1,2.6,0.2,3.9,0.1c2.9-0.2,5.9-0.6,8.8-0.7c0.9,0,2.2,0.3,2.7,0.9c0.5,0.6,0.7,2.1,0.3,2.7c-0.5,0.6-1.8,0.8-2.7,0.8
		c-1.8,0.1-3.6-0.2-5.4,0c-0.8,0.1-1.9,1.1-2,1.8C13.9,122.5,13.6,125.5,13.2,128.2z"/>
</g>
<g>
	<path fill="#FFFFFF" d="M121.5,38.8c0.4-0.7,1.4-4.6,1.6-7.7c0.3-4.6,0.9-9.2,1.2-13.8c0.2-3.6,0.2-7.2,0.1-10.7
		c0-1.8,1.3-2,2.4-2.1c0.5-0.1,1.5,1,1.5,1.6c0.1,2.4,0.1,4.9-0.1,7.3c-0.4,4.5-1,8.9-1.4,13.4c-0.5,5.4-0.6,8.1-1,13.5
		c-0.1,1.4,0.3,3,0,4.3c-0.2,0.9-1.4,2.3-2.1,2.2c-1.2-0.1-2.6-0.8-3.3-1.8c-3.2-4.3-4.5-7-7.1-11.7c-1-1.7-1.7-1.4-2.2,0
		c-1.1,2.9-2.1,5.9-2.8,9c-0.4,1.7-1,3.7-3.3,4.7c-3.7,0.1-3.9-2.6-3.8-6.3c0.1-3.3-0.2-6.7-0.3-10c-0.1-3.1,0.1-6.2-0.1-9.2
		c-0.2-2.8-0.8-5.6-1.1-8.4c-0.1-1.5,0-3,0.1-4.4c0.2-1.2,1-1.1,1.7-0.4c0.5,0.5,1.1,1.1,1.2,1.7c0.5,2.6,1.1,5.2,1.2,7.9
		c0.3,4.5,0.3,8.9,0.5,13.4c0.1,2.2,0.2,4.4,0.3,6.6c0.2,0.1,0.5,0.1,0.7,0.2c0.9-2.7,1.7-5.3,2.6-8c0.5-1.6,0.8-3.2,1.4-4.8
		c0.5-1.3,1.6-1.9,2.9-0.9c0.8,0.6,1.6,1.4,2,2.4c1.9,4.1,3.9,5.5,5.8,9.6C120.3,37,120.8,37.8,121.5,38.8z"/>
	<path fill="#FFFFFF" d="M66.9,40.6c0.1-1.3,0.3-4.6,0.3-5.9c0.1-2.3,0.1-4.7,0.2-7c0.1-2.4,0.3-4.9,0.4-7.3c0.1-3,0.3-5.9,0.3-8.9
		c0-0.9-0.3-6.3,1.8-5.8c2.2,0.7,1.9,2.3,1.9,3.8c-0.1,3.3-0.3,6.5-0.5,9.7c-0.1,0.9-0.4,1.7-0.4,2.6c0,5.3,0.1,10.6,0.2,16
		c0,1.7,0.6,3.5,0.4,5.1c-0.3,2.7-3.2,4.9-5.7,3.6c-0.4-0.2-0.8-0.8-1-1.2c-1.5-3.2-7-14.7-7.9-17.1c-1.2-3.1-2.7-6.1-4-9.1
		c-0.3,0.1-0.8-0.4-0.8,1.3c0.1,1.7,0.3,25.9,0.3,26.4c0,1.4-0.5,2.8-2.1,2.4c-0.8-0.2-1.9-1.5-2-2.4c-0.2-2,0.2-4.1,0.3-6.1
		c0.1-1.5,0-3.1,0.1-4.6c0.1-2.3,0.3-4.5,0.4-6.8c0-0.6-0.3-15.6-0.2-18.1c0.1-1,0.2-2.5,1.5-2.8c1.3-0.3,2.4,1.2,2.8,2.1
		c2.1,4.5,3.9,9.2,5.8,13.7c1,2.3,2.1,4.6,3.1,6.9c0.6,1.3,0.9,2.8,1.6,4.1c0.6,1.3,1.5,2.4,2.3,3.6C66.3,38.8,66.6,40.7,66.9,40.6z
		"/>
	<path fill="#FFFFFF" d="M174.8,3c0.8,0.1,1.7,0.3,2.5,0.4c1.3,0.3,2.6,0.5,4,0.8c2.6,0.7,4.5,2.4,5.6,4.6c1.3,2.7,2.4,7.9,2.3,11.2
		c-0.3,3.9-0.9,7.7-3.1,11.1c-0.9,1.5-2.6,2.6-4.1,3.5c-2.1,1.3-7.3,1.1-9.4,1.5c-0.6,0.1-0.8,1.1-0.8,1.2c0.1,2.4,0.3,9.5-0.3,10.6
		c-0.2,0.4-1.4,0.3-2,0.2c-1.6,0-1.7-1.7-1.5-3.3c0.3-2.1,0.3-4.6,0.4-6.7c0.3-5.5,0.5-25.3,0.9-30C169.6,2.8,173.5,2.9,174.8,3z
		 M172.2,30.1c0.2,2.5,1,2.6,3.6,2.1c2.6-0.5,6.7-3.1,7.4-5.2c1.3-4.5,2.2-8.9,0.8-13.8c-1.1-3.7-7.1-5.8-10-4.7
		c-0.7,0.2-1.5,1.3-1.5,2C172.3,16.2,171.6,26.1,172.2,30.1z"/>
	<path fill="#FFFFFF" d="M80.3,28.2c3-0.2,5.3-0.6,7.6-0.5c0.8,0,2.3,1.3,2.2,2c-0.1,0.9-1.1,2.2-2,2.4c-1.6,0.4-3.4,0.2-5.1,0.2
		c-2.1-0.1-2.8,0.5-2.9,2.6c-0.1,1.2,0,2.4-0.2,3.6c-0.4,3.2,0.7,4.6,4,4.5c1.8,0,3.5-0.5,5.3-0.5c1,0,2.5,0.1,3,0.7
		c0.6,0.7,0.8,2.5,0.3,3.1c-0.8,0.8-2.3,1.5-3.5,1.4c-3.5-0.3-7,0.6-10.3,0.4c-1.9-0.1-3.4-1-3.2-3.3c0.1-1.6,1.7-26,2-30.4
		c0.1-2.5,0.5-5,1-7.4c0.3-1.5,1.4-2,3.1-1.7c2.3,0.3,4.6,0.3,6.9,0.4c1.6,0,3.7,1.5,3.5,2.9c-0.2,0.9-1,2.1-1.7,2.2
		c-1.6,0.2-3.4-0.1-5-0.4c-1.9-0.4-3.2,0-3.7,1.9c-0.6,2.3-0.9,4.6-1.1,7C80.2,22,80.3,24.8,80.3,28.2z"/>
	<path fill="#FFFFFF" d="M149.2,28.2c3-0.2,5.3-0.6,7.6-0.5c0.8,0,2.3,1.3,2.2,2c-0.1,0.9-1.1,2.2-2,2.4c-1.6,0.4-3.4,0.2-5.1,0.2
		c-2.1-0.1-2.8,0.5-2.9,2.6c-0.1,1.2,0,2.4-0.2,3.6c-0.4,3.2,0.7,4.6,4,4.5c1.8,0,3.5-0.5,5.3-0.5c1,0,2.5,0.1,3,0.7
		c0.6,0.7,0.8,2.5,0.3,3.1c-0.8,0.8-2.3,1.5-3.5,1.4c-3.5-0.3-7,0.6-10.3,0.4c-1.9-0.1-3.4-1-3.2-3.3c0.1-1.6,1.7-26,2-30.4
		c0.1-2.5,0.5-5,1-7.4c0.3-1.5,1.4-2,3.1-1.7c2.3,0.3,4.6,0.3,6.9,0.4c1.6,0,3.7,1.5,3.5,2.9c-0.2,0.9-1,2.1-1.7,2.2
		c-1.6,0.2-3.4-0.1-5-0.4c-1.9-0.4-3.2,0-3.7,1.9c-0.6,2.3-0.9,4.6-1.1,7C149,22,149.2,24.8,149.2,28.2z"/>
</g>
<path fill="#FFFFFF" d="M84.6,100.1c1.5,0,1.7-1,1.9-3.2c0.1-1.2,0.3-4.4,0.5-7.5c0.2-2.7,0.3-5.3,0.4-6.4c0.1-1.8,0.1-3.7,0.1-6.1
	c0-0.8,0-1.6,0-2.4l0-1.2l1,0.7c1,0.7,5.4,13.1,5.4,13.2c0.7,2.1,4.7,9.6,5.7,10.7c0.7,0.7,2.2,1.9,3.4,1.9c1,0,1.7-1,2.1-2.9
	c0.7-3.8,1.8-27.8,1.4-35.6c0-0.3-0.6-2.2-0.7-2.6c-0.3-0.6-1.1-0.7-1.3-0.7c-0.7,0-1.4,0.3-1.6,0.8c-0.6,1.8-0.7,6.6-0.7,9.4
	c0,0.6,0,1.1,0,1.5c0,1.1,0,2.6,0,4.2c0,5.9-0.1,14.1-0.5,16l-0.4,2l-0.8-1.9c-0.9-2.3-2.2-4.7-3.3-7.1c-1.2-2.4-2.5-4.9-3.4-7.3
	c-0.7-1.8-1.5-4.5-2.3-7.1c-1.1-3.5-2.5-8.2-3.1-8.7c-0.1-0.1-0.3-0.2-0.7-0.2c-1.1,0-3.4,0.8-3.5,2.6c0,1.3-0.1,2.6-0.1,3.9
	c-0.1,2.6-0.1,5.3-0.3,7.9c-0.1,1.9-0.3,3.8-0.4,5.6c-0.2,2.4-0.4,4.9-0.6,7.3c-0.1,1-0.2,2-0.3,3c-0.3,3-0.7,6,0.2,8.8
	C82.8,99.7,83.3,100.1,84.6,100.1v0.6h0L84.6,100.1L84.6,100.1z"/>
<path fill="#FFFFFF" d="M150.8,90.9c-0.4-1.5-0.6-3.1-0.8-4.7c-0.1-0.6-0.2-1.2-0.3-1.9l-0.5-3c-0.6-3.7-1.1-7.3-1.7-11
	c-0.1-0.8-0.2-1.7-0.4-2.5c-0.4-3.1-0.8-6.2-2.3-8.9c-0.5-0.9-1.4-1.1-1.9-1.1c-1.1,0-2.1,0.6-2.5,1.6c-0.3,0.8-0.4,1.6-0.5,2.5
	c0,0.2,0,0.4-0.1,0.7c-0.2,1.4-0.5,3-0.9,4.9c-1,4.6-2.6,9.1-4.2,13.4c-0.7,2-1.5,4.2-2.2,6.3c-0.3,0.9-0.6,1.8-0.8,2.7
	c-0.2,0.8-0.5,1.7-0.8,2.5c-0.1,0.4-0.2,0.7-0.4,1.1c-0.4,1.1-0.8,2.1-0.8,3.2c0,1,0.3,2.4,0.9,3.1c0.4,0.4,0.9,0.5,1.6,0.3
	c1.6-0.5,2-2.6,2.4-4.2l0.1-0.6c0.7-2.8,1.8-5.4,2.9-8l0.4-1.1l0.4,0c0.4,0,0.9-0.1,1.4-0.1c0.7-0.1,1.4-0.1,2.1-0.1
	c0.7,0,3,0,3.6,1.9c0.2,0.6,0.4,1.8,0.6,3.4c0.4,2.5,0.9,5.9,1.6,6.9c0.4,0.6,0.9,0.9,1.6,0.9c0.5,0,1-0.2,1.4-0.5
	c0.9-0.7,1.2-1.8,0.9-3.4c-0.2-0.9-0.4-1.7-0.7-2.5C151.2,92.2,151,91.5,150.8,90.9z M144.7,80.4c-0.9,0.6-1.3,0.9-1.9,0.9
	c-0.3,0-0.7-0.1-1.2-0.2c-0.3-0.1-0.6-0.2-1.1-0.2l-0.5-0.1l0-0.5c-0.1-2,0.7-3.7,1.1-5.5c0.6-2.5,1.1-3.2,1.5-3.3
	c0-0.1,0-0.2,0.1-0.3c0,0.1,0,0.2,0,0.3c0.7,0,1.2,2,1.2,2.1c0.2,1,0.3,1.9,0.5,2.8c0.2,1.2,0.4,2.3,0.6,3.4l0.1,0.4L144.7,80.4z"/>
<path fill="#FFFFFF" d="M78.5,63.1c-0.2-0.4-0.3-0.8-0.4-1.1c-0.3-0.8-0.5-1.6-1-2c-1-1.1-3-2.1-4.6-2.6c-0.5-0.2-1.1-0.2-1.7-0.2
	c-0.7,0-1.5,0.1-2.5,0.3c-2.5,0.6-3.3,2.6-3.9,4.3l-0.1,0.3c-1,2.6-2.1,5.7-2.8,8.9c-0.6,2.7-0.9,5.6-1.1,8.3L60.4,80
	c-0.6,6.8,0,12,1.9,16.8c0.9,2.3,3.3,4,6.1,4.2c2.5,0.2,4.7-1,6.5-3.5c1.2-1.6,2.4-3.4,2.9-5.5c0.3-1.2,0.5-2.4,0.6-3.6
	c0.1-0.9,0.3-1.9,0.5-2.8l0.2-1.2c0.8-4,1.7-8.2,1.2-12.3C80.5,70.5,79.3,64.9,78.5,63.1z M75.2,79.9c-0.3,2-0.5,4-0.8,6
	c-0.1,0.5-0.1,1.1-0.2,1.6c-0.1,1.1-0.2,2.3-0.5,3.3c-0.4,1.6-2,4.8-4.3,4.8l0,0c-0.3,0-0.5,0-0.8-0.1c-1.8-0.6-3-2.2-3.5-4.4
	c-0.6-2.8,0.1-20.1,2.3-25.9c0.1-0.2,0.1-0.3,0.2-0.5c0.2-0.8,0.6-2.1,2.1-2.1l0.1,0c4.1,0.2,5.1,5,5.5,6.9
	C76,72.7,75.6,76.1,75.2,79.9z"/>
<path fill="#FFFFFF" d="M194,59c-0.3-0.1-1.5-0.2-5.7-0.2c-1.6,0-3.4,0-5,0c-1.5,0-2.9,0-4,0c-1.3,0-2.1,0-2.5,0
	c-0.4,0-0.8-0.1-1.3-0.2c-0.7-0.1-1.3-0.2-2-0.2c-0.6,0-1.1,0.1-1.4,0.3c-0.7,0.5-0.7,1.7-0.4,2.7c0.4,1.2,1.4,2,2.7,2.1
	c1.5,0.2,3.1,0.3,4.6,0.3c2,0,2.1,1.7,2.1,2.3c0,1.4-0.1,2.9-0.2,4.2c-0.3,2.8-0.4,5.6-0.6,8.4c-0.1,1.4-0.2,2.7-0.2,4.1
	c-0.2,4.2-0.4,8.6-1.4,12.7c-0.3,1.2,0.3,2.3,1.1,3.4c0.6,0.9,1.1,0.8,1.9,0.6c1.3-0.3,1.6-1.3,1.9-3.1c0.2-1.9,0.4-3.9,0.5-6.1
	c0.2-2.8,0.3-5.6,0.3-8.4c0-1.3,0.1-2.6,0.1-4c0.2-4.6,0.4-8.7,0.9-12.7c-0.1-0.4,0-0.6,0.2-0.9c0.1-0.2,0.5-0.4,1-0.3l0.9-0.1
	c0.1,0,0.3,0,0.5,0c3.6-0.1,6.1-0.3,7.4-0.6c0-0.6,0.2-1.6,0.7-2C195.8,60.2,195.3,59.3,194,59z"/>
<path fill="#FFFFFF" d="M126.5,63.7c1.1,0.1,2.1,0.1,3.3,0.3c1.5,0.2,2.7,0.1,3.8-0.3c0.6-0.2,0.7-0.6,0.7-0.8
	c0.2-1.1-1-2.9-1.9-3.6c-1.5-1.1-3.5-1.3-5.6-1.4c-3.2-0.2-5.5-0.2-7.8-0.2c-2.5,0-5.2,0.1-9,0.3c-0.2,0-0.6,0-0.9,0.8
	c-0.4,1,0,2.6,0.8,3.3c0.9,0.8,2.4,0.9,3.7,0.9h0.1c0.3,0,0.5,0,0.8,0c0.3,0,0.7,0,1,0c0.8,0,1.8,0.1,2.7,0.6
	c1.1,0.8,1.2,3.8,0.8,10.4c-0.1,1.6-0.2,3.1-0.1,3.8c0.1,1.4-0.1,5-0.3,8.5c-0.1,2.8-0.3,5.4-0.2,6.5c0,0.8-0.1,1.6-0.2,2.4
	c0,0.3-0.1,0.7-0.1,1c-0.1,0.8,0.2,1.6,0.8,2.7c0.6,1,1.7,1.8,2.6,1.6c2-0.3,1.8-10.4,1.7-13.7c0-1,0-1.9,0-2.5c0.1-2.4,0-5,0-7.5
	c0-4.4,0-9,0.3-12.6l0.1-0.6l0.6,0.1C125.1,63.6,125.8,63.7,126.5,63.7z"/>
<path fill="#FFFFFF" d="M57.1,62c-1.6-2.5-4.3-4.1-7.9-4.5c-0.2,0-0.3,0-0.5,0c-2.6,0-4.4,2.6-4.9,5.1l0,0.2
	c-1.5,8.3-5.8,35.4,4.3,37.6c3.1,0.7,5.9-0.2,7.4-2.4c0.9-1.3,2.8-4.6,0.5-6.5l-0.1-0.1c-1.8-0.7-2.7,1.8-3.6,2.3
	c-0.6,0.4-1.2,0.5-1.8,0.5c-2.4,0-4.3-2.3-4.6-4.5c-0.5-3.7-0.1-7.4,0.2-11.1l0-0.4c0.4-3.8,0.8-7.5,1.2-11c0.8-3,1.9-4.4,3.4-4.4
	c1.4,0,2.6,1.2,3.7,2.2c0.3,0.3,0.6,0.6,0.8,0.8c0.2,0.2,0.4,0.2,0.5,0.2c0.4,0,0.8-0.4,1.2-1C57.4,64.2,57.6,62.8,57.1,62z"/>
<path fill="#FFFFFF" d="M166.8,90.2C166.8,90.2,166.8,90.2,166.8,90.2c-0.6,0-1.3,1-1.6,1.5c-0.1,0.1-0.2,0.3-0.3,0.4
	c-0.8,1.1-1.7,1.3-2.2,1.3c-0.9,0-1.8-0.6-2.5-1.7c-2.8-4.7-2.8-12.7,0.1-24c0.1-0.3,0.1-0.5,0.2-0.7c0.4-1.9,1.1-3.6,3.1-3.6
	c0.7,0,1.5,0.2,2.6,0.6c0.1,0,0.1,0.1,0.2,0.1v0l0.3-0.1c1.6-0.4,2-0.6,1.8-1.6c-0.2-1.1-1.4-2-2.3-2.7c-0.4-0.3-0.9-0.4-1.4-0.5
	c-0.3-0.1-0.7-0.2-1-0.3c-0.4-0.1-0.8-0.2-1.2-0.2c-1,0-1.8,0.4-2.7,1.3c-4.8,5.1-5.5,23.1-5,29.7c0.3,3.9,2.1,6.8,5.1,8.5
	c0.8,0.5,1.7,0.7,2.7,0.7c1.8,0,3.4-0.8,4.4-2.2c0.8-1.1,1.3-2.8,1.2-4.4C168.3,90.8,167.4,90.4,166.8,90.2z"/>
</svg>
