<?xml version="1.0" encoding="utf-8"?>
<!-- Generator: Adobe Illustrator 16.0.0, SVG Export Plug-In . SVG Version: 6.00 Build 0)  -->
<!DOCTYPE svg PUBLIC "-//W3C//DTD SVG 1.1//EN" "http://www.w3.org/Graphics/SVG/1.1/DTD/svg11.dtd">
<svg version="1.1" id="Layer_1" xmlns="http://www.w3.org/2000/svg" xmlns:xlink="http://www.w3.org/1999/xlink" x="0px" y="0px"
	 width="144px" height="144px" viewBox="0 0 144 144" enable-background="new 0 0 144 144" xml:space="preserve">
<path fill="#FCFCFC" d="M31.054,78.932c-6.199-0.1-13.1-2.1-13.1-9.601c0-7.898,10.199-9.898,16.398-9.8
	c10.4,0.101,51.301,1.8,61.201,0.2c-2.5-4-4.9-7.101-8-10.601c-2.9-3.301-4.9-9-1.1-12.399c3.5-3.101,9.8-3.7,13.3-0.601
	c6.5,5.8,22.399,26.399,25.1,29.601c2.5,3,0.601,6.8-1.399,9.499c-5.301,7.3-11.2,14.102-16.301,21.5
	c-4.199,6.102-11.6,18.8-20.3,10.4c-2.899-2.8-3-6.2,0.2-10.5c2.2-3,4.6-5.9,6.9-8.8c1-1.302,2.3-2.4,2.899-3.9
	c1.5-3.6,0.8-6.1,1.3-5.1C112.455,78.832,53.153,79.332,31.054,78.932z"/>
</svg>
