<?xml version="1.0" encoding="utf-8"?>
<!-- Generator: Adobe Illustrator 16.0.0, SVG Export Plug-In . SVG Version: 6.00 Build 0)  -->
<!DOCTYPE svg PUBLIC "-//W3C//DTD SVG 1.1//EN" "http://www.w3.org/Graphics/SVG/1.1/DTD/svg11.dtd">
<svg version="1.1" id="Layer_1" xmlns="http://www.w3.org/2000/svg" xmlns:xlink="http://www.w3.org/1999/xlink" x="0px" y="0px"
	 width="95.431px" height="9.691px" viewBox="0 0 95.431 9.691" enable-background="new 0 0 95.431 9.691" xml:space="preserve">
<path fill="#FFFFFF" d="M28.937,7.817c0.059-0.054,0.102-0.076,0.113-0.109c0.313-0.816,0.72-1.599,0.854-2.477
	c0.074-0.456,0.459-0.686,0.889-0.537c0.271,0.096,0.456,0.271,0.581,0.549c0.23,0.517,0.503,1.017,0.757,1.524
	c0.063,0.129,0.124,0.264,0.201,0.386c0.077,0.126,0.174,0.24,0.263,0.357c0.03-0.008,0.06-0.018,0.09-0.029
	c0.03-0.167,0.076-0.33,0.086-0.498c0.072-1.052,0.139-2.104,0.199-3.154c0.04-0.673,0.078-1.344,0.093-2.016
	c0.009-0.276-0.065-1.184,0.084-1.3c0.154-0.12,0.325-0.085,0.491,0.001c0.335,0.174,0.427,0.329,0.35,0.708
	c-0.169,0.82-0.171,1.652-0.188,2.486c-0.018,0.964-0.082,1.928-0.121,2.892c-0.021,0.599-0.031,1.199-0.051,1.799
	c-0.008,0.217-0.008,0.44-0.055,0.651c-0.079,0.36-0.323,0.458-0.604,0.242c-0.296-0.228-1.115-1.343-1.262-1.641
	c-0.239-0.484-0.485-0.962-0.737-1.439c-0.058-0.108-0.149-0.2-0.279-0.371c-0.1,0.24-0.19,0.403-0.233,0.575
	C30.023,7.93,29.36,9.485,28.67,9.348C28,9.079,28.012,8.547,27.961,7.874c-0.087-1.167-0.186-2.332-0.292-3.497
	c-0.036-0.393-0.11-0.782-0.169-1.172c-0.107-0.723-0.214-1.442-0.317-2.165c-0.011-0.073-0.01-0.146-0.008-0.219
	c0.003-0.163,0.077-0.304,0.233-0.323c0.111-0.013,0.282,0.024,0.34,0.104c0.111,0.159,0.205,0.355,0.235,0.545
	c0.103,0.635,0.157,1.278,0.257,1.914c0.114,0.751,0.275,1.494,0.383,2.244c0.072,0.519,0.082,1.047,0.127,1.571
	C28.773,7.189,28.765,7.509,28.937,7.817z"/>
<path fill="#FFFFFF" d="M17.376,2.336c-0.021,0.12-0.058,0.24-0.059,0.359c-0.001,0.694,0.018,1.389,0.004,2.083
	c-0.01,0.505-0.079,1.01-0.081,1.515c-0.003,0.865,0.021,1.732,0.043,2.597c0.004,0.192,0.037,0.389-0.204,0.463
	c-0.188,0.06-0.463-0.045-0.547-0.245c-0.077-0.184-0.138-0.386-0.135-0.582c0.015-0.896,0.054-1.791,0.085-2.687
	c0.023-0.694,0.065-1.387,0.07-2.08c0.006-0.854-0.016-1.708-0.033-2.56c-0.004-0.213,0.009-0.411,0.212-0.531
	c0.155-0.09,0.479-0.013,0.621,0.193c0.333,0.487,0.683,0.972,0.94,1.5c0.451,0.92,0.849,1.867,1.251,2.809
	c0.375,0.875,0.727,1.762,1.094,2.64c0.051,0.125,0.058,0.294,0.271,0.323c0.015-0.216,0.043-0.426,0.042-0.637
	c-0.006-0.706-0.022-1.412-0.03-2.117c-0.016-0.999-0.02-1.995-0.039-2.992c-0.008-0.39-0.048-0.78-0.072-1.168
	c-0.004-0.073-0.02-0.146-0.013-0.216c0.017-0.166-0.043-0.366,0.165-0.458c0.125-0.053,0.466,0.119,0.545,0.284
	c0.06,0.129,0.109,0.273,0.113,0.413c0.042,1.402,0.066,2.806,0.113,4.208c0.036,1.141,0.098,2.117,0.145,3.258
	c0.005,0.129,0.017,0.262-0.006,0.388c-0.043,0.232-0.192,0.341-0.427,0.349C21.302,9.45,21.16,9.453,21.02,9.472
	c-0.34,0.052-0.544-0.043-0.719-0.411c-0.141-0.298-0.24-0.455-0.358-0.766c-0.382-0.999-0.755-2-1.148-2.994
	c-0.32-0.804-0.659-1.602-0.999-2.396c-0.087-0.207-0.214-0.396-0.324-0.59C17.441,2.321,17.409,2.328,17.376,2.336z"/>
<path fill="#FFFFFF" d="M11.391,6.343c-0.489,0.215-0.986,0.365-1.569,0.206c-0.017,0.19-0.046,0.333-0.041,0.475
	c0.019,0.516,0.048,1.03,0.072,1.544C9.855,8.6,9.861,8.63,9.86,8.66C9.854,9.033,9.712,9.292,9.509,9.312
	C9.314,9.331,8.984,9.049,8.931,8.771C8.89,8.565,8.894,8.348,8.9,8.138C8.926,7.289,8.962,6.439,8.991,5.59
	c0.041-1.152,0.08-2.302,0.117-3.455c0.011-0.319,0.026-0.639,0.002-0.956C9.093,0.923,9.19,0.79,9.394,0.678
	c0.229-0.126,0.459-0.157,0.711-0.122c0.512,0.072,1.035,0.072,1.504,0.364c0.276,0.172,0.467,0.388,0.54,0.726
	c0.187,0.846,0.3,1.7,0.31,2.567c0.004,0.366-0.121,0.687-0.301,0.983c-0.156,0.259-0.141,0.495-0.029,0.771
	c0.199,0.502,0.354,1.022,0.534,1.533c0.178,0.51,0.361,1.017,0.546,1.525c0.057,0.153,0.088,0.299-0.066,0.405
	c-0.146,0.1-0.295,0.102-0.445-0.01c-0.195-0.146-0.329-0.333-0.399-0.575c-0.162-0.564-0.324-1.131-0.498-1.693
	C11.709,6.868,11.631,6.572,11.391,6.343z M11.597,3.428c-0.026-0.363-0.046-0.726-0.081-1.088
	c-0.057-0.599-0.219-0.779-0.786-0.896c-0.112-0.022-0.229-0.039-0.343-0.051c-0.329-0.031-0.403,0.02-0.472,0.372
	c-0.042,0.207-0.068,0.42-0.079,0.631c-0.04,0.85-0.079,1.697-0.104,2.548C9.727,5.15,9.754,5.369,9.808,5.57
	c0.022,0.088,0.145,0.191,0.234,0.207C10.701,5.775,11.604,5.726,11.597,3.428z"/>
<path fill="#FFFFFF" d="M40.859,2.289c-0.052-0.356-0.101-0.714-0.155-1.069c-0.064-0.429,0.218-0.724,0.657-0.68
	c0.174,0.015,0.347,0.033,0.521,0.032c0.554-0.003,1.054,0.2,1.508,0.471c0.52,0.309,0.711,0.865,0.83,1.419
	c0.1,0.464,0.174,0.947,0.162,1.418c-0.021,0.851-0.14,1.705-0.696,2.397c-0.223,0.278-0.548,0.475-0.923,0.522
	C42.475,6.837,42.188,6.87,41.9,6.887c-0.451,0.025-0.507,0.068-0.516,0.502c-0.013,0.477-0.015,0.953-0.018,1.429
	c0,0.059,0.008,0.115,0,0.172c-0.024,0.253-0.159,0.414-0.354,0.434c-0.205,0.023-0.472-0.159-0.513-0.379
	c-0.027-0.141-0.031-0.29-0.022-0.433c0.12-1.978,0.245-3.954,0.366-5.932c0.009-0.129,0-0.258,0-0.388
	C40.85,2.292,40.854,2.291,40.859,2.289z M41.383,6.042c0.367,0.044,0.706-0.123,0.959-0.216c0.639-0.233,0.971-0.733,1.052-1.369
	c0.074-0.611,0.107-1.236,0.021-1.851c-0.091-0.652-0.375-0.968-0.887-1.015c-0.058-0.005-0.108-0.03-0.167-0.045
	c-0.486-0.139-0.821,0.134-0.796,0.637c0.017,0.332,0.024,0.664,0.016,0.997C41.54,3.986,41.354,5.831,41.383,6.042z"/>
<path fill="#FFFFFF" d="M5.743,3.937C5.686,4.955,5.616,5.862,5.591,6.771C5.579,7.239,5.642,7.709,5.679,8.177
	c0.013,0.17,0.059,0.34,0.24,0.399c0.193,0.06,0.328-0.062,0.451-0.2c0.335-0.369,0.565-0.79,0.678-1.295
	C7.22,6.307,7.327,5.529,7.344,4.735c0.012-0.53,0.037-1.061,0.062-1.591C7.436,2.521,7.468,1.9,7.504,1.279
	c0.02-0.345,0.083-0.438,0.304-0.461C8.053,0.79,8.259,0.93,8.324,1.201c0.03,0.129,0.021,0.271,0.014,0.407
	C8.248,3.016,8.19,4.429,8.05,5.832C7.974,6.598,7.792,7.357,7.586,8.1C7.481,8.482,7.367,8.77,7.102,9.046
	C6.872,9.285,6.557,9.485,6.055,9.529C6.002,9.511,5.941,9.518,5.883,9.511C5.235,9.429,5.025,9.208,4.825,8.557
	C4.541,7.64,4.739,6.723,4.776,5.808c0.021-0.503,0.046-1.001,0.082-1.499C4.88,3.976,4.952,3.644,4.947,3.312
	C4.937,2.674,4.891,2.04,4.855,1.403c-0.006-0.121-0.06-0.781,0.195-0.86c0.158-0.05,0.466,0.126,0.529,0.32
	c0.06,0.184,0.028,0.391,0.04,0.587C5.668,2.315,5.707,3.18,5.743,3.937z"/>
<path fill="#FFFFFF" d="M3.884,3.203C3.803,4.244,3.83,5.296,3.569,6.32C3.434,6.86,3.411,7.432,3.281,7.973
	C3.197,8.317,3.039,8.656,2.855,8.96C2.771,9.099,2.554,9.162,2.386,9.236C1.659,9.562,1.143,9.342,0.727,8.731
	c-0.771-0.976-0.468-4.535-0.36-5.867c0.041-0.49,0.17-0.981,0.314-1.452C0.834,0.915,1.242,0.582,1.96,0.56
	c0.718-0.023,1.271,0.261,1.541,0.847C3.841,2.151,3.887,2.362,3.884,3.203z M0.836,5.307c0.023,0.468,0.02,0.943,0.08,1.406
	c0.053,0.417,0.142,0.838,0.279,1.23c0.188,0.54,0.826,0.612,1.134,0.137c0.134-0.209,0.233-0.463,0.276-0.709
	c0.142-0.818,0.258-1.644,0.37-2.468c0.055-0.4,0.108-0.805,0.111-1.208c0-0.39-0.072-0.783-0.095-1.175
	c-0.018-0.352-0.169-0.64-0.36-0.908C2.574,1.533,2.48,1.467,2.39,1.435C1.755,1.203,1.462,1.356,1.244,2.021
	C1.22,2.091,1.201,2.166,1.187,2.239C0.982,3.249,0.849,4.27,0.836,5.307z"/>
<path fill="#FFFFFF" d="M23.515,3.806c0.021,0.417,0.036,0.833,0.04,1.25c0.003,0.219,0.087,0.342,0.301,0.349
	c0.243,0.004,0.483,0.004,0.728-0.004c0.259-0.007,0.52-0.039,0.778-0.032c0.124,0.002,0.284,0.028,0.359,0.113
	c0.11,0.118,0.208,0.296,0.222,0.457c0.015,0.19-0.175,0.253-0.337,0.285C25.48,6.248,25.35,6.26,25.221,6.27
	c-0.447,0.038-0.893,0.061-1.336,0.112c-0.294,0.036-0.316,0.094-0.316,0.415c0.001,0.419-0.016,0.836-0.006,1.253
	c0.014,0.456,0.109,0.536,0.54,0.567c0.408,0.032,0.808,0.001,1.2-0.114c0.125-0.038,0.259-0.058,0.387-0.053
	c0.315,0.008,0.608,0.432,0.518,0.739c-0.063,0.208-0.234,0.238-0.417,0.25c-0.576,0.037-2.267,0.081-2.91-0.009
	c-0.237-0.033-0.235-0.641-0.227-0.998c0.029-1.141,0.053-1.965,0.045-2.966c-0.008-1.21,0.004-2.42,0.007-3.629
	c0-0.327-0.036-0.655-0.007-0.979c0.033-0.363,0.088-0.409,0.433-0.414c0.591-0.008,1.182,0.012,1.771,0.021
	c0.229,0.003,0.472-0.033,0.688,0.021c0.213,0.057,0.441,0.164,0.595,0.318c0.212,0.216,0.094,0.508-0.203,0.56
	c-0.139,0.024-0.288-0.004-0.431-0.004c-0.517-0.004-1.036-0.032-1.55,0.001c-0.404,0.026-0.469,0.113-0.508,0.524
	C23.471,2.182,23.497,3.464,23.515,3.806z"/>
<path fill="#FFFFFF" d="M37.511,6.697c0,0.556-0.015,1.032,0.004,1.505c0.016,0.335,0.148,0.454,0.47,0.451
	c0.174,0,1.173-0.016,1.445-0.01c0.282,0.007,0.349,0.085,0.379,0.365c0.036,0.288-0.036,0.431-0.322,0.474
	c-0.428,0.061-0.879-0.017-1.312,0.006c-1.657,0-1.568,0.018-1.611-0.749c0.107-1.495,0.064-2.746,0.003-4.243
	c-0.035-0.806-0.014-1.616-0.006-2.424c0.003-0.288-0.145-1.518,0.234-1.531c0.379-0.014,0.909,0.001,1.323,0.02
	c0.345,0.016,0.693,0.011,1.034,0.064c0.153,0.025,0.325,0.138,0.425,0.265c0.178,0.231,0.076,0.613-0.283,0.596
	c-0.443-0.021-0.89,0.019-1.333,0.013c-0.456-0.005-0.589,0.085-0.583,0.559c0.012,0.851,0.056,1.702,0.077,2.552
	c0.007,0.227-0.018,0.449-0.014,0.675c0.008,0.307,0.13,0.448,0.427,0.437c0.228-0.011,0.451-0.085,0.681-0.114
	c0.138-0.016,0.295-0.037,0.415,0.015c0.272,0.114,0.456,0.426,0.397,0.629c-0.085,0.292-0.346,0.29-0.568,0.317
	C38.398,6.619,37.998,6.649,37.511,6.697z"/>
<path fill="#FFFFFF" d="M75.257,9.181c-0.014,0.427-0.282,0.57-0.66,0.358C74.349,9.4,74.204,9.215,74.22,8.906
	c0.087-1.562,0.197-3.162,0.146-4.729c-0.022-0.756-0.088-3.617,0.132-3.783c0.506-0.387,0.858-0.096,1.124,0.502
	c0.978,2.224,2.011,4.396,3.082,6.576c0.021,0.039,0.057,0.069,0.135,0.172c0.332-1.924,0.452-4.855,0.231-6.843
	c-0.017-0.29,0.105-0.536,0.286-0.575c1.082-0.218,0.554,3.724,0.557,4.305c0.006,1.557-0.039,3.128-0.132,4.678
	c-0.033,0.477-0.201,0.561-0.662,0.423c-0.429-0.126-0.65-0.386-0.821-0.79c-0.832-1.951-1.753-3.854-2.519-5.83
	c-0.144-0.369-0.298-0.727-0.602-1.111C75.178,2.303,75.331,6.751,75.257,9.181z"/>
<path fill="#FFFFFF" d="M87.508,7.855c0.415-0.959,0.629-2.002,0.91-3.004c0.042-0.146,0.088-0.302,0.177-0.418
	c0.476-0.605,1.293,0.305,1.437,0.723c0.255,0.767,0.545,1.55,0.876,2.287c0.057,0.131,0.258,0.528,0.356,0.701
	c0.134-0.498,0.094-0.804,0.103-1.033c0.025-0.695-0.218-6.557,0.324-6.674c0.459-0.104,0.594,0.609,0.59,0.877
	c-0.039,2.547-0.078,5.095-0.078,7.643c0,0.333-0.584,0.812-1.228,0.062c-0.702-0.818-1.48-2.908-1.677-3.373
	c-0.234-0.019-0.25,0.147-0.287,0.271c-0.183,0.613-0.896,3.243-1.662,3.189c-0.308,0.101-0.529,0.037-0.646-0.268
	c-0.112-0.298-0.192-0.623-0.207-0.939c-0.044-0.771-0.688-7.383-0.289-7.479c0.162-0.041,0.477,0.146,0.547,0.355
	c0.062,0.174,0.1,0.36,0.113,0.545c0.159,2.078,0.309,4.156,0.474,6.236c0.006,0.075,0.028,0.147,0.045,0.223
	C87.425,7.807,87.467,7.831,87.508,7.855C87.532,7.8,87.467,7.831,87.508,7.855z"/>
<path fill="#FFFFFF" d="M81.039,6.188c0.109-1.119,0.2-2.24,0.34-3.354c0.058-0.457,0.177-0.914,0.339-1.345
	c0.12-0.317,0.334-0.614,0.547-0.885c0.093-0.115,0.288-0.203,0.438-0.205c2.803-0.109,2.583,3.371,2.436,5.264
	c-0.028,0.348-0.14,0.695-0.263,1.025c-0.216,0.576-0.433,1.157-0.716,1.705c-0.263,0.502-0.69,1.146-1.341,1.038
	c-0.5-0.085-0.879-0.34-1.204-0.771C81.04,7.898,80.983,7.074,81.039,6.188C81.15,5.066,80.983,7.074,81.039,6.188z M83.63,1.484
	c-0.075-0.016-0.146-0.045-0.216-0.078c-0.425-0.193-0.595-0.141-0.817,0.266c-0.074,0.137-0.14,0.278-0.179,0.426
	c-0.448,1.644-0.508,3.396-0.518,5.092c-0.002,0.377,0.127,0.73,0.405,1.004c0.251,0.244,0.537,0.246,0.771-0.008
	c0.346-0.375,0.646-0.776,0.814-1.275c0.285-0.846,0.497-1.691,0.471-2.521C84.493,3.491,84.486,1.656,83.63,1.484z"/>
<path fill="#FFFFFF" d="M63.786,3.402c0-0.455-0.344-3.231,0.476-2.793c0.273,0.146,0.388,0.336,0.374,0.668
	c-0.096,2.449,0.43,5.355-0.725,7.606c-0.255,0.5-0.656,0.765-1.23,0.731c-0.371-0.021-0.732-0.071-1.055-0.295
	c-0.415-0.282-0.594-0.717-0.682-1.164c-0.427-2.189-0.019-4.698-0.09-6.932c-0.006-0.172-0.031-0.363,0.172-0.438
	c0.184-0.065,0.357,0.026,0.44,0.177c0.106,0.197,0.21,0.421,0.218,0.641c0.062,1.824-0.658,5.028,0.328,6.627
	c0.315,0.506,0.635,0.539,1.077,0.125c0.371-0.345,0.489-0.793,0.528-1.252C63.722,5.874,63.812,3.404,63.786,3.402
	C63.786,2.566,63.812,3.404,63.786,3.402z"/>
<path fill="#FFFFFF" d="M59.859,3.285c-0.041,1.854-0.247,3.672-1.05,5.357c-0.188,0.396-0.589,0.579-0.972,0.741
	c-0.135,0.058-0.339,0.019-0.488-0.036c-0.734-0.265-1.2-0.775-1.388-1.545c-0.182-0.744-0.22-1.503-0.107-2.254
	c0.148-1.008,0.329-2.011,0.548-3.003c0.125-0.569,0.3-1.14,0.72-1.583c0.562-0.6,1.3-0.253,1.938,0.032
	c0.674,0.294,0.879,0.86,0.841,1.551C59.888,2.792,59.872,3.039,59.859,3.285C59.829,4.586,59.872,3.039,59.859,3.285z M59.08,3.302
	c-0.029-0.495-0.022-0.853-0.079-1.202c-0.068-0.427-0.328-0.623-0.803-0.693c-0.424-0.059-0.673,0.338-0.78,0.697
	c-0.157,0.53-0.353,1.057-0.459,1.597c-0.257,1.295-0.764,3.334,0.064,4.519c0.331,0.475,0.8,0.158,1.051-0.181
	c0.306-0.417,0.52-0.878,0.595-1.39C58.834,5.534,58.965,4.421,59.08,3.302C59.051,2.807,59.05,3.607,59.08,3.302z"/>
<path fill="#FFFFFF" d="M50.903,2.781c0.003,0.684,0.304,1.109,0.938,1.308c0.074,0.022,0.141,0.071,0.214,0.092
	c0.997,0.296,1.438,1.015,1.612,1.999c0.154,0.873-0.079,1.651-0.448,2.407c-0.089,0.183-0.256,0.369-0.434,0.454
	c-0.741,0.549-1.352,0.305-1.5,0.238c-0.417-0.188-1.951-1.807-0.992-2.166c0.067-0.024,0.197,0.051,0.266,0.117
	c0.142,0.236,0.285,0.477,0.432,0.711c0.921,1.18,1.747-0.491,1.763-1.346c0.016-0.787-0.388-1.309-1.161-1.604
	c-0.643-0.249-1.108-0.652-1.459-1.223c-0.149-0.295-0.177-2.068,0.339-2.914c0.261-0.424,0.501-0.566,0.982-0.49
	c0.199,0.033,0.396,0.074,0.591,0.125c0.504,0.127,1.062,0.876,1.044,1.394c-0.024,0.824-0.828,0.197-0.953-0.139
	c-0.088-0.237-0.221-0.358-0.462-0.392c-0.262-0.031-0.443,0.127-0.511,0.318C51.038,2.029,50.986,2.411,50.903,2.781
	C50.905,3.465,50.986,2.411,50.903,2.781z"/>
<path fill="#FFFFFF" d="M68.151,0.189c0.51,0,1.019-0.004,1.527,0.002c0.2,0.004,0.406,0.011,0.598,0.058
	c0.288,0.077,0.472,0.351,0.434,0.584c-0.033,0.219-0.31,0.397-0.612,0.392c-0.338-0.012-0.677-0.033-1.016-0.033
	c-1.005-0.008-0.535,6.155-0.441,7.672c0.027,0.438-0.128,0.724-0.393,0.728c-0.236,0.003-0.344-0.062-0.46-0.438
	c-0.502-1.633-0.091-6.277-0.077-7.06c0.021-1.044-0.435-0.94-1.295-0.901c-0.494,0.017-0.896-0.648-0.344-0.938
	c0.1-0.055,0.24-0.041,0.361-0.043c0.572-0.003,1.146-0.001,1.718-0.001C68.151,0.202,68.151,0.197,68.151,0.189
	C68.66,0.189,68.151,0.197,68.151,0.189z"/>
<path fill="#FFFFFF" d="M47.744,8.626c0.034-0.876,0.187-8.628,0.852-8.474c0.2,0.047,0.44,0.319,0.45,0.535
	c0.137,2.709-0.198,5.728-0.362,8.445c-0.013,0.212-0.076,0.4-0.306,0.469c-0.197,0.059-0.486-0.07-0.569-0.299
	C47.732,9.092,47.725,8.629,47.744,8.626C47.803,7.068,47.725,8.629,47.744,8.626z"/>
<path fill="#FFFFFF" d="M94.266,5.527c0.088-1.607,0.274-3.246,0.147-4.857c-0.026-0.298,0.153-0.467,0.463-0.318
	c0.24,0.116,0.38,0.308,0.365,0.592c-0.096,1.914,0.041,3.826,0.001,5.732c-0.019,0.788-0.921,0.693-0.957,0.016
	c-0.021-0.386-0.006-0.773-0.006-1.158C94.275,5.529,94.272,5.529,94.266,5.527C94.326,4.419,94.272,5.529,94.266,5.527z"/>
<path fill="#FFFFFF" d="M95.09,9.113c-0.183,0.128-0.372-0.031-0.52-0.176c-0.033-0.029-0.059-0.068-0.087-0.104
	c-0.269-0.339-0.164-0.992,0.404-0.807C95.153,8.113,95.844,8.784,95.09,9.113z"/>
</svg>
