<?xml version="1.0" encoding="utf-8"?>
<!-- Generator: Adobe Illustrator 16.0.0, SVG Export Plug-In . SVG Version: 6.00 Build 0)  -->
<!DOCTYPE svg PUBLIC "-//W3C//DTD SVG 1.1//EN" "http://www.w3.org/Graphics/SVG/1.1/DTD/svg11.dtd">
<svg version="1.1" id="Layer_1" xmlns="http://www.w3.org/2000/svg" xmlns:xlink="http://www.w3.org/1999/xlink" x="0px" y="0px"
	 width="139.5px" height="16.4px" viewBox="0 0 139.5 16.4" enable-background="new 0 0 139.5 16.4" xml:space="preserve">
<path fill-rule="evenodd" clip-rule="evenodd" fill="#F1F2F2" d="M123.8,13.9c-0.5-0.2-1-0.4-1.4-0.7c-1.1-0.7-2.2-1.5-3.3-2.3
	c-1-0.8-2-1.8-2.8-2.9c-1-1.3-2.2-2.5-3.6-3.4c-1-0.7-2.8-0.6-3.8,0.3c-0.8,0.7-1.6,1.2-2.4,1.9c-0.7,0.6-1.4,1.2-2.1,1.7
	c-0.4,0.3-0.7,0.8-1,1.2c-0.3,0.5-0.6,0.8-1.2,1c-0.5,0.2-0.8,0.6-1.2,0.9c-0.6,0.5-1.1,1-1.7,1.4c-0.9,0.7-2,0.5-3.1,0.5
	c-1.3,0.1-2.4-0.5-3.5-1.1c-0.5-0.3-1-0.7-1.4-1.2c-0.8-0.9-1.6-1.9-2.4-2.8c-0.2-0.2-0.4-0.4-0.5-0.7c-0.7-1.3-1.9-2.1-3-2.9
	c-0.8-0.6-1.8-1-2.7-1.4c-0.3-0.2-0.8-0.2-1.2-0.2c-0.6,0-1.2,0.2-1.8,0.3C78.9,4,78.4,4.4,78,5.1c-0.2,0.3-0.4,0.5-0.8,0.6
	C77,5.8,76.7,6,76.6,6.3c-0.3,0.5-0.7,0.9-1.2,1.2c-0.1,0.1-0.3,0.2-0.4,0.3c-0.8,0.8-1.7,1.6-2.4,2.6c-0.2,0.2-0.4,0.4-0.6,0.6
	c-1,0.5-1.8,1.2-2.9,1.6c-0.6,0.2-1.1,0.6-1.7,0.8c-0.4,0.1-0.8,0.2-1.2,0.1c-0.7,0-1.5-0.2-2.2-0.3c-0.3,0-0.6-0.1-0.8-0.3
	c-1-0.8-2.1-1.5-3-2.5c-0.4-0.5-1-0.9-1.5-1.4c-0.4-0.4-0.7-0.8-1.1-1.1c-1.6-1.8-3.5-2.8-5.9-3c-1.2-0.1-2.2,0.4-3,1.2
	c-1.2,1.2-2.5,2.2-3.9,3.1c-1.4,1-2.9,2-4.2,3c-1.5,1.2-3.1,1.2-4.8,0.5c-0.8-0.3-1.6-0.8-2.2-1.3c-0.9-0.8-1.5-1.7-2.3-2.5
	c-1-1-1.8-2.2-2.9-3.1c-0.7-0.5-1.4-0.9-2.2-1.3c-1-0.4-2-0.2-2.9,0.4C21.5,6,20,7.6,18.5,9.3c-0.6,0.7-1.2,1.3-2.1,1.7
	c-0.8,0.3-1.5,0.8-2.3,1.2c-0.9,0.4-1.8,0.6-2.8,0.1C9.4,11.3,7.8,10,6.4,8.5C5.8,7.9,5.3,7.1,4.8,6.3C4.6,6.1,4.4,5.9,4.2,5.6
	C4.1,5.5,4,5.3,4,5.1C4,5,4.1,4.8,4.2,4.8c0.1,0,0.3,0,0.4,0.1c0.1,0.1,0.2,0.2,0.3,0.3c0.7,0.8,1.3,1.7,2,2.5
	C8,9,9.3,9.9,10.7,10.8c0.6,0.4,1.3,0.5,2,0.6c0.6,0,1-0.2,1.5-0.4c0.6-0.2,1.1-0.5,1.6-0.8c1.3-0.6,2.2-1.5,3-2.6
	c1-1.2,2.2-2.2,3.4-3.1C23,3.9,24,3.6,25,3.4c0.2-0.1,0.5-0.1,0.7,0c1,0.3,2,0.7,2.8,1.3c1.2,1,2.4,2.1,3.4,3.4c0.9,1.2,2,2.1,3.1,3
	c0.8,0.6,1.8,0.9,2.9,1.1c0.1,0,0.3,0,0.4,0c1-0.3,2.1-0.7,2.9-1.5c0.5-0.5,1.1-0.9,1.7-1.3c1.1-0.8,2.2-1.6,3.3-2.5
	c0.5-0.4,1.1-0.9,1.6-1.4c0.9-0.9,2-1.6,3.3-1.8c0.7-0.1,1.4,0.1,2.1,0.2c0.1,0,0.1,0.1,0.2,0.1c2.2,0.6,3.8,1.9,5.2,3.6
	c0.4,0.5,1,0.9,1.4,1.3c0.6,0.6,1.3,1.1,1.9,1.7c0.7,0.6,1.4,1.1,2.3,1.4c1.1,0.4,2.3,0.4,3.4,0.1c0.7-0.2,1.4-0.6,2.1-1
	c0.8-0.5,1.5-1,2.2-1.5c0.4-0.3,0.8-0.7,1.1-1.1c0.7-0.7,1.3-1.4,1.9-2.2c0.1-0.1,0.1-0.2,0.2-0.2c0.7-0.3,1.1-1,1.6-1.6
	c1.2-1.3,2.6-2.1,4.4-2.1c0.5,0,1.1,0,1.6,0.1c0.1,0,0.3,0,0.4,0.1C84,3.3,85,3.6,85.8,4.3c0.6,0.5,1.2,1,1.7,1.5
	c0.6,0.6,1.1,1.3,1.7,1.9c0.5,0.6,1,1.2,1.6,1.8c0.4,0.4,0.8,0.8,1.2,1.3c0.8,0.9,1.7,1.4,2.9,1.6c0.4,0.1,0.7,0.2,1.1,0.3
	c1.4,0.4,2.7-0.1,3.8-1c0.9-0.7,1.6-1.6,2.5-2.3c1-0.7,1.5-1.8,2.4-2.5c0.9-0.6,1.6-1.4,2.5-1.9c0.8-0.4,1.3-1.1,2.1-1.6
	c0.4-0.2,0.8-0.4,1.3-0.3c1.5,0,2.6,0.7,3.7,1.6c1.3,1.1,2.3,2.3,3.4,3.5c0.9,0.9,1.8,1.9,2.9,2.6c0.6,0.4,1.1,0.8,1.7,1.2
	c0.5,0.3,1,0.5,1.5,0.7c0.7,0.3,1.4,0.1,2-0.3c0.5-0.3,1-0.6,1.5-1c0.6-0.4,1.2-0.9,1.8-1.4c0.2-0.2,0.4-0.4,0.6-0.7
	c0.3-0.5,0.7-0.9,1-1.4c0.3-0.4,0.5-0.8,0.7-1.1c0.7-1,1.5-2,2.3-3c0.2-0.3,0.5-0.6,0.8-0.9c0.2-0.3,0.6-0.4,0.8-0.2
	c0.2,0.2,0.2,0.6,0,0.9c-0.3,0.4-0.6,0.9-1,1.2c-0.7,0.6-1.1,1.4-1.5,2.2c-0.2,0.3-0.4,0.6-0.7,0.9c-0.5,0.6-1,1.1-1.5,1.7
	c-0.5,0.6-0.9,1.1-1.4,1.7c-0.1,0.1-0.2,0.2-0.2,0.3c-0.1,0.3-0.4,0.5-0.7,0.6c-0.7,0.3-1.3,0.7-2,1c-0.7,0.3-1.3,0.5-2,0.8
	C124.2,13.9,124.1,13.9,123.8,13.9z"/>
</svg>
