<?xml version="1.0" encoding="utf-8"?>
<!-- Generator: Adobe Illustrator 16.0.0, SVG Export Plug-In . SVG Version: 6.00 Build 0)  -->
<!DOCTYPE svg PUBLIC "-//W3C//DTD SVG 1.1//EN" "http://www.w3.org/Graphics/SVG/1.1/DTD/svg11.dtd">
<svg version="1.1" id="Layer_1" xmlns="http://www.w3.org/2000/svg" xmlns:xlink="http://www.w3.org/1999/xlink" x="0px" y="0px"
	 width="144px" height="144px" viewBox="0 0 144 144" enable-background="new 0 0 144 144" xml:space="preserve">
<g>
	<path fill-rule="evenodd" clip-rule="evenodd" fill="#FCFCFC" d="M34.684,56.667c-0.369-9.541-1.518-18.935-2.472-28.423
		c-0.59-5.956,0.464-9.82,5.954-12.71c9.749-5.132,18.149-4.969,23.268,1.48c1.968,2.476,3.066,6.878,2.434,9.968
		c-2.592,12.673-1.138,25.691-0.484,38.478c0.648,12.739,1.507,25.805,0.498,38.533c-0.83,10.464-2.784,23.382-14.768,26.363
		c-10.832,2.688-16.206-14.541-15.331-14.751c0.569-16.765-0.875,0.21,0,0C34.752,87.324,35.441,76.313,34.684,56.667z"/>
	<path fill-rule="evenodd" clip-rule="evenodd" fill="#FCFCFC" d="M82.212,89.137c0.574-11.085,1.57-22.201,1.694-33.308
		c0.058-5.289-0.225-10.578-0.759-15.837c-0.511-5.036-1.976-10.336-0.59-15.344c2.123-7.668,9.715-12.491,17.488-11.651
		c9.604,1.038,13.231,7.75,12.736,16.906c-1.001,18.566-3.327,37.143-3.232,55.756c0.051,9.631,0.608,19.251,0.78,28.882
		c0.14,7.786-1.718,13.455-9.347,16.722c-9.108,3.909-18.387,2.993-19.796-8.324c-1.378-11.042,0.819-22.738,1.617-33.771
		C82.607,89.157,82.41,89.146,82.212,89.137C82.897,75.913,82.41,89.146,82.212,89.137C82.718,79.39,82.41,89.146,82.212,89.137z"/>
</g>
</svg>
