<?xml version="1.0" encoding="utf-8"?>
<!-- Generator: Adobe Illustrator 16.0.0, SVG Export Plug-In . SVG Version: 6.00 Build 0)  -->
<!DOCTYPE svg PUBLIC "-//W3C//DTD SVG 1.1//EN" "http://www.w3.org/Graphics/SVG/1.1/DTD/svg11.dtd">
<svg version="1.1" id="Layer_1" xmlns="http://www.w3.org/2000/svg" xmlns:xlink="http://www.w3.org/1999/xlink" x="0px" y="0px"
	 width="237.75px" height="1186.336px" viewBox="0 17.494 237.75 1186.336" enable-background="new 0 17.494 237.75 1186.336"
	 xml:space="preserve">
<path fill="#FFFFFF" d="M145.615,830.188c-0.873-1.082-1.309-2.007-2.041-2.478c-4.223-2.688-8.355-5.6-12.856-7.729
	c-7.901-3.785-16.048-7.048-24.072-10.535c-3.559-1.57-4.762-0.873-4.85,3.088c-0.14,5.981,0.035,12-0.279,17.983
	c-0.227,4.57-0.995,9.089-1.431,13.658c-0.384,3.681,0.698,4.588,4.082,3.279c10.117-3.926,20.217-7.85,30.266-11.896
	C138.045,834.11,141.463,832.192,145.615,830.188z"/>
<path fill="#FFFFFF" d="M77.3,687.853c0,0,13.366-0.277,30.583-0.674l-0.897-1.994c-0.311-1.717-0.719-3.299-0.86-4.908
	c-0.216-2.553-0.271-5.119-0.365-7.688c-0.135-3.725-0.356-7.451-0.338-11.18c0.04-8.008,0.209-16.014,0.318-24.021
	c0.021-1.518-0.031-3.031-0.011-4.547c0.017-1.004-0.52-1.229-1.399-1.193c-4.492,0.184-8.988,0.326-13.48,0.492
	c-1.938,0.07-2.886-0.684-3.451-2.572c-1.991-6.666-2.253-13.521-2.155-20.393c0.022-1.645-0.001-3.455,1.46-4.938
	c1.346-1.365,2.779-1.83,4.542-1.766c3.929,0.158,7.857,0.334,11.783,0.492c0.474,0.021,0.947,0.004,1.338,0.004
	c0.518-3.688,1.083-7.215,1.49-10.764c0.394-3.418,0.339-6.916,0.995-10.277c1.107-5.691,3.688-10.758,7.356-15.309
	c2.673-3.312,6.027-5.676,9.854-7.252c2.235-0.922,4.832-0.938,7.215-1.543c6.851-1.736,13.767,0.104,20.635-0.434
	c0.9-0.07,1.896,0.621,2.789,1.074c0.92,0.469,1.881,0.607,2.642,1.693c1.97,2.814,1.733,5.875,1.593,8.943
	c-0.182,4.068-0.562,8.133-0.779,12.201c-0.051,0.895,0.303,1.801,0.33,2.709c0.048,1.758-0.645,2.105-2.387,1.918
	c-1.521-0.162-3.089,0.141-4.643,0.191c-1.693,0.055-3.396,0.135-5.094,0.061c-1.821-0.072-3.629-0.416-5.442-0.461
	c-2.458-0.062-3.548,0.902-3.804,3.301c-0.391,3.68-0.693,7.361-1.032,11.047c-0.024,0.361-0.004,0.723-0.004,1.338
	c1.925,0,3.78,0.055,5.633-0.016c3.968-0.148,7.935-0.385,11.897-0.539c0.834-0.029,1.679,0.184,2.518,0.193
	c1.653,0.027,2.344,0.826,2.107,2.416c-0.856,5.771-2.94,11.164-5.032,16.561c-0.546,1.41-1.03,2.881-1.274,4.367
	c-0.377,2.225-1.734,3.867-3.059,5.482c-0.564,0.688-1.745,1.215-2.658,1.223c-3.038,0.035-6.08-0.225-9.13-0.309
	c-2.211-0.066-2.448,0.188-2.452,2.355c0,4.711-0.056,9.422,0.049,14.129c0.068,3.039,0.539,6.074,0.551,9.109
	c0.017,6.232-0.174,12.469-0.239,18.699c-0.037,3.168-0.015,6.334,0.01,9.5c0.013,0.793-0.116,1.459-0.474,1.963
	c23.189-0.582,45.25-1.219,48.111-1.605"/>
<path fill="#17C1FF" d="M214.396,307.828c-1.011-2.21-3.539-0.125-4.756,0.734c-2.589,1.831-5.677,3.009-8.369,4.711
	c-2.254,1.426-4.598,2.249-7.23,2.604c-0.918,0.122-3.96,0.569-3.525-1.201c0.635-2.566,3.547-5.026,5.395-6.753
	c2.267-2.119,4.523-4.199,6.686-6.429c2.273-2.349,4.6-4.572,6.312-7.383c0.651-1.065,1.526-3.637,2.069-4.752
	c0.271-0.552,0.392-1.563,0.322-2.323c-5.691-0.64-10.73,2.862-15.451,5.607c-0.939,0.546-1.854,1.187-2.902,1.517
	c-1.098,0.345-8.227,3.827-11.273,3.902c-2.63,0.065-4.136-0.502-6.062-2.537c-1.969-2.083-3.856-4.167-6.18-5.878
	c-4.396-3.24-9.681-5.129-14.979-6.275c-5.65-1.223-11.822-1.957-17.597-1.312c-5.496,0.614-10.698,3.072-15.463,5.756
	c-2.216,1.247-4.638,2.697-6.367,4.584c-1.753,1.91-2.6,4.52-3.789,6.781c-2.621,4.988-5.359,9.993-6.797,15.525
	c-2.375,9.14,0.489,21.638,0.59,22.999c-11.771-3.521-23.336-7.653-33.992-13.879c-19.396-11.331-33.156-27.86-34.538-29.944
	s-5.914-7.047-6.918-7.26c-1.585-0.334-4.186,7.193-4.838,9.153c-1.693,5.094-2.118,10.809-1.515,16.133
	c0.584,5.159,2.629,9.507,6.022,13.409c1.683,1.938,3.549,3.708,5.451,5.426c0.952,0.86,1.913,1.704,2.867,2.556
	c0.476,0.423,0.949,0.848,1.421,1.274c0.64,0.579,0.413,0.498-0.012,1.102c-1.624-0.214-2.941-0.172-4.397-1.037
	c-1.173-0.697-2.307-1.455-3.411-2.261c-0.87-0.639-3.975-3.335-5.083-2.001c-0.762,0.921-0.591,2.633-0.533,3.728
	c0.104,1.921,0.411,3.833,0.766,5.723c0.772,4.107,1.596,8.374,3.07,12.28c1.039,2.748,2.613,5.318,5.123,6.947
	c1.54,1.001,7.121,2.631,6.466,4.911c-1.461-0.071-2.923-0.132-4.385-0.21c-0.989-0.054-2.089-0.449-3.06-0.089
	c-1.534,0.569-0.217,3.073,0.224,3.974c2.275,4.617,5.489,8.783,8.914,12.601c4.065,4.53,8.505,8.851,14.02,11.575
	c5.681,2.807,12.319,4.157,18.55,5.052c-1.055,1.271-2.655,1.927-4.003,2.821c-1.496,0.993-6.552,4.054-13.448,6.236
	c-3.185,1.007-8.983,2.338-12.332,1.919c-1.589-0.201-8.885-2.999-9.421-3.345c-0.693,2.535,8.158,9.625,10.709,11.826
	c3.018,2.604,6.413,4.789,9.961,6.599c3.585,1.825,12.867,5.469,15.24,5.868c2.698,0.454,5.36,1.118,8.067,1.537
	c5.175,0.794,10.411,0.769,15.634,0.865c5.073,0.098,10.19,0.184,15.257-0.314c6.114-0.604,13.463-3.513,13.415-3.716
	c7.625-4.477,15.02-9.187,22.199-14.344c1.494-1.072,3.097-2.064,4.316-3.464c1.111-1.274,5.721-5.262,7.016-6.45
	c1.451-1.336,2.828-2.658,4.039-4.224c2.639-3.422,5.504-6.774,7.815-10.435c2.114-3.343,2.957-7.294,4.96-10.644
	c0.871-1.463,4.783-9.742,5.54-11.614c3.667-9.069,4.157-19.032,4.621-21.713c0.305-1.752,0.554-4.271,2.055-5.467
	c2.61-2.084,5.229-4.159,7.868-6.211c4.57-3.556,9.479-6.694,13.177-11.227c1.938-2.378,3.707-4.903,5.384-7.466
	c1.395-2.128,2.004-4.067,0.901-6.476c0.108,0.235,0.216,0.471,0.325,0.706C214.491,308.038,214.443,307.934,214.396,307.828
	C213.268,305.354,214.924,308.983,214.396,307.828z"/>
<g>
	<path fill="#FF6427" d="M126.09,58.636c-0.503-4.152,6.286-4.839,9.059-5.383c7.625-1.492,15.136-1.063,22.379,1.829
		c6.373,2.542,12.31,6.062,17.332,10.881c5.861,5.623,10.82,20.529,11.678,22.865c0.891,2.434,1.365,5.043,2.062,7.539
		c3.439-0.801,24.455-7.915,36.453,13.482c5.393,9.614,8.67,22.592,3.518,32.894c-1.367,2.734-3.31,4.968-5.553,7.021
		c-2.408,2.202-4.654,4.658-7.315,6.562c-5.492,3.917-13.058,4.271-19.569,4.975c-7.607,0.819-53.373-1.197-57.135-0.927
		c-1.264,0.09-13.042,1.229-12.947-3.942c0.041-2.307,0.141-4.681,0.021-6.949c-0.094-1.945-0.279-3.893-0.2-5.843
		c0.087-2.19,0.06-10.045-0.249-11.86c-0.385-2.272-0.271-4.622-0.289-6.915c-0.059-9.263,0.287-18.528,0.053-27.787
		c-0.055-2.056-0.184-4.13-0.033-6.183C125.512,88.661,126.354,60.734,126.09,58.636z"/>
	<path fill="#FF6427" d="M33.074,126.542c0.027-0.219,0.085-4.475,0.15-6.419c0.097-2.901,0.039-6.018-1.087-8.734
		c-1.124-2.721-3.423-4.397-4.665-0.848c-1.103,3.148-0.556,6.822-0.707,10.096c-0.166,3.604-0.754,7.202-1.178,10.779
		c-0.529,4.451-0.956,8.923-1.091,13.404c-0.097,3.209-0.373,7.2,1.072,10.173c1.821,3.746,5.311-1.064,6.009-3.121
		C32.695,148.587,32.516,131.25,33.074,126.542z"/>
	<path fill="#FF6427" d="M41.54,141.993c0.514-4.95,0.438-17.929,0.328-19.586c-0.231-3.402,0.349-7.024-0.129-10.415
		c-0.29-2.067-2.093-5.726-4.462-3.241c-1.746,1.838-0.994,4.572-1.065,6.83c-0.111,3.417-0.152,6.837-0.253,10.256
		c0.087,0.198,0.138,0.423,0.106,0.706c-0.561,4.706-0.78,9.438-0.984,14.172c-0.014,0.322-0.127,0.566-0.275,0.779
		c-0.089,1.622-0.374,3.255-0.544,4.703c-0.351,2.961-1.282,6.698,0.508,9.377c1.361,2.039,3.567,1.924,5.216,0.295
		C42.151,153.725,41.459,142.764,41.54,141.993z"/>
	<path fill="#FF6427" d="M51.203,122.604c0-0.318,0.117-0.557,0.283-0.741c-0.369-2.141,0.449-4.481,0.444-6.598
		c-0.009-2.875-0.18-5.748-0.444-8.61c-0.38-4.162-0.788-8.851-3.975-11.929c-1.604,2.116-1.894,4.849-2.043,7.415
		c-0.194,3.296-0.382,6.595-0.399,9.897c-0.02,3.208,0.375,6.403,0.363,9.613c-0.004,1.354-0.159,2.694-0.362,4.027
		c0.159,0.224,0.27,0.497,0.244,0.86c-0.349,5.149-0.253,10.316-0.79,15.453c-0.01,0.111-0.062,0.199-0.094,0.299
		c0.212,3.777-0.673,7.532-0.506,11.375c0.117,2.675,2.821,5.406,4.99,2.729c1.051-1.3,1.72-2.849,2.206-4.498
		C51.144,142.131,51.195,132.37,51.203,122.604z"/>
	<path fill="#FF6427" d="M68.254,148.995c0.094-3.864,0.466-7.673,0.738-11.531c0.261-3.71-0.085-7.406-0.027-11.118
		c0.121-7.783,0.073-15.536-0.071-23.321c-0.076-4.078-0.084-8.159-0.1-12.237c-0.009-3.282,0.356-6.663-0.536-9.868
		c-0.439-1.587-2.451-4.701-4.451-3.269c-2.266,1.619-2.272,5.963-2.199,8.417c0.111,3.746,0.78,7.456,0.785,11.208
		c0.001,3.76-0.025,7.52-0.065,11.28c-0.067,6.246-0.147,12.494-0.185,18.741c0.274,0.185,0.475,0.481,0.475,0.916v8.333
		c0.623,1.483,0.29,4.176,0,6.044v13.058c0.401,0.893,0.933,1.694,1.74,2.28c1.092,0.793,2.602,1.099,4.131,1.188
		c-0.019-0.646-0.022-1.298-0.042-1.949c-0.544-0.597-0.379-1.917-0.365-2.61C68.126,152.703,68.21,150.851,68.254,148.995z"/>
	<path fill="#FF6427" d="M60.255,128.212c0-0.472,0.241-0.782,0.555-0.961c0.021-0.217,0.039-0.43,0.055-0.633
		c0.235-2.968-0.025-5.969-0.191-8.933c-0.336-6.02-0.556-12.042-0.881-18.058c-0.156-2.911-0.357-5.822-0.351-8.737
		c0.005-2.101,0.12-4.567-1.5-6.172c-1.187-1.176-3.35-1.22-3.829,0.655c-0.59,2.315,0.073,4.699,0.235,7.022
		c0.408,5.942-0.562,12.016-0.938,17.938c-0.183,2.934-0.508,5.894-0.367,8.835c0.04,0.852,0.287,1.819,0.257,2.719
		c0.153,0.181,0.265,0.411,0.265,0.717c-0.006,10.938-0.076,21.875-0.092,32.813c0.114,0.385,0.217,0.773,0.364,1.152
		c0.973,2.476,3.907,3.16,4.988,0.192c0.754-2.079,0.556-4.502,0.826-6.669c0.162-1.283,0.379-2.558,0.605-3.831L60.255,128.212
		L60.255,128.212z"/>
	<path fill="#FF6427" d="M77.143,88.753c0.351-4.284,1.129-9.476-1.064-13.415c-0.871-1.563-3.384-4.016-5.071-2.048
		c-1.79,2.088-0.403,4.823,0.144,7.08c0.882,3.663,0.43,7.879,0.458,11.625c0.03,3.75,0.024,7.504,0.002,11.254
		c-0.051,7.819-0.199,15.637-0.357,23.455c-0.155,7.69-0.364,15.369-0.341,23.06c0,0.127-0.072,1.021-0.217,2.148
		c0.019,2.4,0.083,4.802,0.156,7.203c0.477-0.024,0.941-0.055,1.362-0.09c2.881-0.232,4.694-1.919,5.041-4.821
		c0.385-3.243-0.249-6.688-0.203-9.959c0.053-3.731,0.289-7.459,0.413-11.188C77.963,118.281,75.936,103.513,77.143,88.753z"/>
	<path fill="#FF6427" d="M121.333,72.63c-0.603,15.266,2.09,30.451,1.465,45.717c-0.147,3.635-0.606,7.248-0.819,10.878
		c-0.215,3.727,0.213,7.476-0.315,11.185c-0.501,3.513-0.3,7.145-0.496,10.684c-0.122,2.227,0.183,5.294-2.207,6.449
		c-3.941,1.902-4.555-5.114-4.517-7.452c0.056-3.544,0.505-7.062,0.633-10.602c0.141-3.902-0.139-7.831-0.331-11.728
		c-0.378-7.612-0.63-15.183-0.299-22.801c0.333-7.717,0.779-15.389,0.6-23.116c-0.141-6.021-0.635-12.387,0.234-18.374
		c0.231-1.599,1.011-4.345,3.212-4.355C122.893,59.098,121.38,71.482,121.333,72.63z"/>
	<path fill="#FF6427" d="M97.337,99.393c0-7.621,0.305-15.245,0.073-22.865c-0.048-1.617,0.215-6.812,3.163-5.385
		c2.684,1.298,3.032,5.371,3.158,7.935c0.743,14.906,0.159,29.881,0.076,44.796c-0.042,7.502,0.953,15.044,0.634,22.523
		c-0.067,1.586-0.376,3.217-0.233,4.804c0.113,1.281,1.02,2.507,0.748,3.802c-0.437,2.071-3.59,3.053-5.442,2.561
		c-3.291-0.873-3.354-5.896-3.398-8.562c-0.097-5.837,0.006-11.693,0.044-17.529c0.036-5.808,0.249-11.604,0.571-17.403
		c0.306-5.533,1.509-11.453,0.629-16.962C97.395,97.316,97.344,99.393,97.337,99.393c0-0.627,0.125-1.254,0.023-1.883
		C97.388,97.685,97.39,99.395,97.337,99.393c0-0.742,0.144-1.492,0.023-2.233C97.395,97.366,97.378,99.395,97.337,99.393
		c0-0.56,0.113-1.288,0.023-1.847C97.388,97.717,97.39,99.395,97.337,99.393c0-0.668-0.085-1.427,0.019-2.097
		C97.328,97.491,97.427,99.396,97.337,99.393c0-0.671-0.085-1.427,0.019-2.097C97.328,97.481,97.435,99.396,97.337,99.393
		C97.337,92.101,97.432,99.396,97.337,99.393C97.337,91.988,97.432,99.396,97.337,99.393z"/>
	<path fill="#FF6427" d="M112.166,99.982c0.607,3.505-0.038,7.051-0.083,10.575c-0.05,4.008,0.081,8.016,0.118,12.024
		c0.015,1.615,0.56,3.189,0.406,4.812c-0.175,1.839-0.411,2.964,0.085,4.786c0.941,3.457-0.231,7.036-0.066,10.54
		c0.151,3.209,0.957,6.454,0.367,9.661c-0.341,1.845-2.497,6.489-5.141,4.752c-2.032-1.338-1.869-4.978-1.847-7.077
		c0.04-3.964,0.724-7.89,0.482-11.86c-0.217-3.566-0.786-7.089-0.906-10.66c-0.137-3.977-0.015-7.952,0.177-11.921
		c0.369-7.681,0.782-15.333,0.748-23.03c-0.035-7.391-1.054-14.956-0.543-22.324c0.144-2.053,0.563-4.23,2.025-5.795
		c1.965-2.099,4.025,0.167,4.224,2.353c0.133,1.463-0.044,2.879-0.357,4.307C111.419,73.097,111.64,96.924,112.166,99.982z"/>
	<path fill="#FF6427" d="M85.614,117.208c0.303-0.1,0.603-0.199,0.962-0.319c-0.672,3.322-1.371,6.61-1.982,9.912
		c-0.187,1.018-0.395,2.15-0.141,3.112c1.033,3.966,0.533,7.922,0.346,11.913c-0.131,2.836,0.547,5.634,0.61,8.463
		c0.05,2.269-0.456,6.909-3.378,7.368c-2.984,0.467-3.423-3.814-3.4-5.767c0.046-3.884,0.508-7.797,0.648-11.688
		c0.562-15.324,2.51-30.93,0.693-46.229c-0.71-5.997-1.882-12.229-1.124-18.286c0.18-1.423,0.599-3.926,2.422-4.093
		c2.188-0.203,4.119,2.807,4.743,4.558c0.49,1.384-0.072,2.733-0.402,4.081c-0.403,1.652-0.131,3.335,0.024,4.999
		c0.36,3.771-0.011,7.575,0.099,11.355c0.103,3.492,0.059,6.986-0.07,10.479c-0.101,2.822,1.567,5.6,0.835,8.422
		C86.339,116.121,86.036,116.707,85.614,117.208c0.745-0.244,0.609-1.306,1.355-1.552C86.252,115.888,86.053,116.685,85.614,117.208
		c0.744-0.244,0.614-1.309,1.355-1.552C86.265,115.884,86.045,116.693,85.614,117.208c0.708-0.233,0.67-1.327,1.355-1.552
		C86.354,115.854,86.001,116.748,85.614,117.208c0.604-0.199,0.828-1.38,1.355-1.552C86.354,115.854,86.001,116.748,85.614,117.208
		c0.604-0.199,0.828-1.38,1.355-1.552C86.354,115.854,86.001,116.748,85.614,117.208c0.604-0.199,0.828-1.38,1.355-1.552
		C86.354,115.854,86.001,116.748,85.614,117.208c0.604-0.199,0.828-1.38,1.355-1.552C86.533,115.795,85.872,116.899,85.614,117.208
		C85.917,117.106,88.512,113.762,85.614,117.208z"/>
	<path fill="#FF6427" d="M87.854,150.101c-0.355-6.413-0.781-12.823-0.866-19.246c-0.088-6.694,0.784-13.348,1.102-20.022
		c0.304-6.393-0.613-12.803,0.078-19.183c0.351-3.218,1.099-6.387,1.164-9.633c0.061-3.048-0.377-6.207,1.1-9.021
		c1.264,0.777,2.789,1.359,3.527,2.742c0.87,1.633,0.637,3.693,0.514,5.46c-0.319,4.565-0.162,9.194-0.184,13.771
		c-0.048,9.345-0.158,18.686-0.504,28.025c-0.331,8.811-1.666,17.947-0.782,26.744c0.166,1.644,0.579,9.297-3.142,7.416
		c-3.216-1.621-1.979-7.265-2.177-10.1C87.711,147.445,88.358,149.973,87.854,150.101c-0.034-0.587-0.793-5.216-0.296-5.338
		C86.62,145,88.78,149.864,87.854,150.101c-0.056-0.994-0.096-1.987-0.165-2.979C87.709,147.419,88.023,150.061,87.854,150.101
		c-0.056-0.994-0.096-1.987-0.165-2.979C87.709,147.419,88.023,150.061,87.854,150.101c-0.056-0.994-0.096-1.987-0.165-2.979
		C87.709,147.419,88.023,150.061,87.854,150.101c-0.056-0.994-0.096-1.987-0.165-2.979
		C87.709,147.406,87.933,150.083,87.854,150.101C87.499,143.688,87.846,150.103,87.854,150.101
		C87.499,143.688,87.846,150.103,87.854,150.101z"/>
	<path fill="#FF6427" d="M22.677,122.082c0.6,3.958,1.289,7.907,1.75,11.882c0.173,1.479,0.196,3.188-0.381,4.498
		c-1.377,3.137-1.303,6.625-2.15,9.897c-0.484,1.877-1.641,4.83-4.117,4.196c-2.216-0.568-2.302-3.773-2.396-5.584
		c-0.192-3.681-0.333-7.312-0.115-10.999c0.219-3.742,0.72-7.45,1.1-11.177c0.357-3.523,0.157-7.311,1.915-10.511
		c1.536-2.804,3.635-1.492,4.54,0.963c0.524,1.415,1.002,3.02,0.78,4.542c-0.187,1.288-1.354,2.732-0.611,4.034
		C22.867,123.61,23.076,122.026,22.677,122.082c0.085,0.559,0.021,1.23,0.313,1.743C22.878,123.629,23.011,122.038,22.677,122.082
		c0.066,0.451,0.069,1.313,0.313,1.743C22.878,123.629,23.011,122.038,22.677,122.082c0.066,0.451,0.069,1.313,0.313,1.743
		C22.878,123.629,23.011,122.038,22.677,122.082c0.066,0.451,0.069,1.313,0.313,1.743C22.911,123.684,22.966,122.043,22.677,122.082
		C23.277,126.04,22.924,122.047,22.677,122.082C23.277,126.04,22.924,122.047,22.677,122.082
		C23.277,126.04,22.924,122.047,22.677,122.082z"/>
	<path fill="#FF6427" d="M6.803,137.75c-0.404-1.438,0.059-9.306,0.833-11.748c0.657-2.076,0.803-4.642,2.357-6.301
		c2.395-2.559,3.437,3.033,3.681,4.496c0.807,4.848,1.375,10.149-0.663,14.782c-0.786,1.789-2.526,4.355-4.814,3.039
		c-1.633-0.944-1.448-3.275-1.599-4.881C6.667,137.34,6.736,137.543,6.803,137.75c-0.066-0.206-0.136-0.408-0.203-0.613
		C6.667,137.34,6.736,137.543,6.803,137.75c-0.019-0.227-0.085-0.431-0.203-0.613C6.62,137.356,6.689,137.561,6.803,137.75
		c-0.019-0.227-0.085-0.431-0.203-0.613C6.62,137.356,6.689,137.561,6.803,137.75c-0.019-0.227-0.085-0.431-0.203-0.613
		C6.606,137.208,6.725,137.773,6.803,137.75C6.399,136.312,6.703,137.776,6.803,137.75C6.399,136.312,6.703,137.776,6.803,137.75
		C6.399,136.312,6.703,137.776,6.803,137.75z"/>
</g>
<path fill="#49639E" d="M189.682,621.142c-0.238-5.385-0.553-10.766-0.748-16.145c-0.188-5.146,0.396-64.359,0.229-67.203
	c-0.899-14.982-22.866-11.021-29.383-11.004c-5.589,0.008-33.14-0.254-34.384-0.193c-8.207,0.412-16.396,0.148-24.59,0.396
	c-5.743,0.172-11.47,0.582-17.21,0.785c-4.807,0.162-13.748-1.83-17.605,0.721c-2.243-0.82-2.145-1.164-4.596,0.449
	c-15.301,4.559-13.053,25.164-13.413,37.609c-0.541,18.631,0.233,37.254,0.386,55.881c0.267,1.455,0.505,14.486,0.109,17.816
	c0.85,12.061-4.727,31.965,3.501,42.164c5.403,6.689,17.608,6.221,25.323,5.434c0,0,13.366-0.277,30.583-0.674l-0.897-1.994
	c-0.311-1.717-0.719-3.299-0.86-4.908c-0.216-2.553-0.271-5.119-0.365-7.688c-0.135-3.725-0.356-7.451-0.338-11.18
	c0.04-8.008,0.209-16.014,0.318-24.021c0.021-1.518-0.031-3.031-0.011-4.547c0.017-1.004-0.52-1.229-1.399-1.193
	c-4.492,0.184-8.988,0.326-13.48,0.492c-1.938,0.07-2.886-0.684-3.451-2.574c-1.991-6.664-2.253-13.52-2.155-20.391
	c0.022-1.645-0.001-3.455,1.46-4.938c1.346-1.365,2.779-1.83,4.542-1.766c3.929,0.158,7.857,0.334,11.783,0.492
	c0.474,0.021,0.947,0.004,1.338,0.004c0.518-3.688,1.083-7.215,1.49-10.764c0.394-3.418,0.339-6.916,0.995-10.277
	c1.107-5.691,3.688-10.758,7.356-15.309c2.673-3.312,6.026-5.676,9.854-7.252c2.234-0.922,4.832-0.938,7.215-1.543
	c6.85-1.736,13.766,0.104,20.634-0.434c0.901-0.07,1.896,0.621,2.789,1.074c0.92,0.469,1.881,0.607,2.642,1.693
	c1.969,2.814,1.733,5.875,1.592,8.943c-0.181,4.068-0.561,8.131-0.778,12.201c-0.052,0.895,0.303,1.801,0.329,2.709
	c0.049,1.758-0.644,2.105-2.387,1.918c-1.521-0.162-3.088,0.141-4.642,0.191c-1.694,0.055-3.397,0.135-5.093,0.061
	c-1.822-0.072-3.629-0.416-5.443-0.461c-2.458-0.062-3.548,0.902-3.804,3.299c-0.39,3.682-0.693,7.363-1.032,11.049
	c-0.025,0.361-0.004,0.723-0.004,1.338c1.925,0,3.781,0.055,5.633-0.016c3.967-0.148,7.934-0.385,11.898-0.539
	c0.834-0.029,1.678,0.184,2.517,0.193c1.653,0.027,2.343,0.826,2.108,2.416c-0.857,5.77-2.941,11.164-5.033,16.559
	c-0.546,1.412-1.03,2.883-1.275,4.369c-0.375,2.225-1.734,3.867-3.058,5.482c-0.565,0.688-1.745,1.215-2.658,1.223
	c-3.038,0.035-6.08-0.225-9.13-0.309c-2.211-0.066-2.447,0.188-2.452,2.355c0,4.711-0.056,9.422,0.048,14.129
	c0.069,3.039,0.541,6.074,0.551,9.109c0.018,6.232-0.174,12.469-0.238,18.699c-0.037,3.168-0.016,6.334,0.01,9.5
	c0.014,0.793-0.115,1.459-0.475,1.963c23.19-0.582,45.25-1.221,48.111-1.605c6.293-0.852,6.737-7.424,7.228-10.561
	C190.975,667.304,189.811,624.009,189.682,621.142z"/>
<g id="XMLID_1_">
	<g>
		<path fill="#C63838" d="M196.813,809.335c5.172,10.064,4.574,20.783,3.696,31.5c-0.616,7.432,0.583,39.422-15.049,50.453
			c-5.615,3.961-40.688,5.322-51.705,5.211c-8.515-0.096-70.676-1.178-77.005-2.803c-4.407-1.156-8.786-3.561-12.072-6.66
			c-7.152-6.703-7.366-16.045-7.627-25.156c-0.15-4.463-0.038-8.943-0.038-13.408c-0.112,0-0.243-0.018-0.355-0.018
			c0.355-7.73,0.604-15.496,1.176-23.211c1.134-15.281,8.984-38.473,24.499-38.203c5.479,0.096,10.68-2.109,16.375-1.438
			c5.116,0.615,30.716-0.934,38.354,0.037c9.429,1.213,68.201-3.865,78.743,20.727C196.086,807.394,196.347,808.401,196.813,809.335
			z"/>
	</g>
	<g>
	</g>
</g>
<path fill="#FFFFFF" d="M147.499,843.966c-0.935-1.158-1.4-2.146-2.185-2.65c-4.52-2.877-8.944-5.994-13.763-8.273
	c-8.458-4.051-17.178-7.543-25.768-11.277c-3.809-1.68-5.098-0.934-5.191,3.307c-0.15,6.402,0.038,12.844-0.299,19.25
	c-0.243,4.893-1.064,9.729-1.531,14.621c-0.411,3.939,0.747,4.91,4.37,3.51c10.83-4.201,21.641-8.402,32.396-12.734
	C139.396,848.167,143.055,846.114,147.499,843.966z"/>
<g>
	<path fill="#E3CFBD" d="M189.879,1097.43c0.171,7.537-0.229,15.101-0.546,22.65c-0.129,2.952,0.585,15.063-4.383,26.062
		c-1.398,3.096-5.24,16.222-24.5,18.31c-6.023,0.653-57.866,6.156-85.805-1.609c-7.723-2.146-12.711-6.273-15.502-10.626
		c-9.57-14.924-11.719-53.383-11.763-57.839c-0.042-6.403-0.156-12.822-0.099-19.227c0.014-2.365,0.444-4.743,0.717-7.465
		c3.423-0.888,25.516-1.446,29.168-1.561c0.861-0.03,1.734,0.228,3.038,0.415c-1.332,2.622-2.65,4.871-3.625,7.235
		c-0.845,2.092-5.515,19.104-2.133,33.367c1.131,4.771,7.84,22.508,23.438,31.405c4.613,2.632,9.843,4.571,15.273,4.741
		c7.765,0.259,15.588,0.474,23.225-1.346c5.487-1.318,10.616-3.496,15.145-6.963c3.925-3.009,14.269-13.21,15.559-28.053
		c1.239-14.273-1.262-27.521-7.923-40.103c-0.301-0.559-0.56-1.16-0.918-1.919c0.603-0.229,1.003-0.516,1.405-0.516
		c4.011-0.101,20.701,0.201,25.042,0.372c3.255,0.144,3.54,0.387,3.696,3.524C188.919,1078.002,189.663,1087.716,189.879,1097.43z"
		/>
	<path fill="#ECDFD2" d="M156.549,1105.057c-0.498,8.33-10.745,21.731-19.466,25.527c-4.513,1.964-12.011,2.86-17.068,2.411
		c-23.148-2.058-31.974-21.053-33.88-25.709c-1.504-3.652-1.676-7.264-1.904-11.017c-0.659-10.272,1.977-19.585,9.054-27.149
		c5.144-5.518,11.733-8.99,19.127-10.831c17.393-4.332,32.838,7.449,37.437,12.263
		C151.481,1072.258,158.005,1080.7,156.549,1105.057z M133.931,1119.221c9.399-5.816,14.557-14.227,13.94-25.646
		c0-1.246,0.058-2.507-0.015-3.753c-0.474-7.493-4.323-13.645-9.942-17.738c-6.199-4.515-18.611-7.014-25.589-4.526
		c-8.07,2.877-25.979,18.398-12.378,42.852c2.275,4.092,5.417,7.164,9.642,9.399c4.7,2.479,9.643,2.952,14.627,2.393
		C127.541,1121.829,131.122,1120.956,133.931,1119.221z"/>
	<path fill="#976D63" d="M185.589,1032.829c-1.231-4.141-2.58-8.029-4.843-11.979c-5.931-10.352-22.68-10.645-25.545-10.902
		c-4.197-0.371-46.95-0.473-51.734-0.143c-9.572,0.658-19.185,0.415-28.611,2.965c-9.185,2.494-16.678,6.849-20.79,15.761
		c-1.633,3.523-3.251,7.105-4.369,10.803c-0.846,2.808-1.119,5.846-1.233,8.797c-0.186,4.785-0.058,9.57-0.058,14.741
		c1.763,1.5,3.267,0.531,4.615,0.517c6.748-0.071,13.496-0.214,20.244-0.372c2.851-0.071,5.701-0.345,8.553-0.358
		c2.407-0.016,4.068-1.104,5.501-2.937c0.975-1.248,12.307-8.711,17.293-10.531c6.433-2.363,13.023-2.794,19.584-1.775
		c5.817,0.9,11.648,1.934,17.265,4.14c4.656,1.819,8.869,4.269,12.479,7.492c2.206,1.963,4.327,2.723,7.035,2.636
		c1.146-0.027,2.293-0.027,3.439-0.027c6.288,0.014,12.563,0.042,18.854,0.057c1.805,0,3.681,1.085,5.372-0.591
		C188.642,1059.474,187.738,1040.008,185.589,1032.829z M167.288,1035.284c-1.257,2.428-2.931,3.784-5.626,3.564
		c-3.293-0.268-6.6-0.545-9.842-1.136c-2.835-0.518-3.298-1.384-3.249-4.255c0.02-1.14,0.004-2.281,0.004-4.221
		c0.166-1.48,0.381-3.746,0.688-5.996c0.29-2.13,1.698-3.11,3.726-3.342c0.679-0.077,1.372-0.198,2.045-0.142
		c3.175,0.268,6.37,0.433,9.51,0.938c2.824,0.456,4.026,1.836,4.223,4.58C169.012,1028.694,168.955,1032.055,167.288,1035.284z"/>
</g>
</svg>
