<?xml version="1.0" encoding="utf-8"?>
<!-- Generator: Adobe Illustrator 16.0.0, SVG Export Plug-In . SVG Version: 6.00 Build 0)  -->
<!DOCTYPE svg PUBLIC "-//W3C//DTD SVG 1.1//EN" "http://www.w3.org/Graphics/SVG/1.1/DTD/svg11.dtd">
<svg version="1.1" id="Layer_1" xmlns="http://www.w3.org/2000/svg" xmlns:xlink="http://www.w3.org/1999/xlink" x="0px" y="0px"
	 width="144px" height="144px" viewBox="0 0 144 144" enable-background="new 0 0 144 144" xml:space="preserve">
<path fill-rule="evenodd" clip-rule="evenodd" fill="#FFFFFF" d="M77,97c-0.1,6.2-2.1,13.1-9.6,13.1c-7.9,0-9.9-10.2-9.8-16.4
	c0.1-10.4,0.4-20.8,0.7-31.3c0.3-10,1.1-20-0.5-29.9c-4,2.5-7.1,4.9-10.6,8c-3.3,2.9-9,4.9-12.4,1.1c-3.1-3.5-3.7-9.8-0.6-13.3
	C40,21.8,60.6,5.9,63.8,3.2c3-2.5,6.8-0.6,9.5,1.4c7.3,5.3,14.1,11.2,21.5,16.3c6.1,4.2,18.8,11.6,10.4,20.3
	c-2.8,2.9-6.2,3-10.5-0.2c-3-2.2-5.9-4.6-8.8-6.9c-1.3-1-2.4-2.3-3.9-2.9c-3.6-1.5-6.1-0.8-5.1-1.3C76.9,15.6,77.4,74.9,77,97z"/>
<path fill="#FFFFFF" d="M110.5,121.1c-5-4.5-12.9-3.3-19.1-2.9c-10.2,0.6-20.2,2.1-30.4,2.4c-7,0.2-14-0.9-21-1.5
	c-1.1,0.3-7.9-1.3-9.8,1.5c-0.3,0.7-0.6,1.3-0.8,1.9c-1.6,5.3-1.8,12,2.9,15.8c5.8,4.7,14.3,2.6,21,2.1c10.3-0.6,20.6-0.7,30.9-0.7
	c5.2,0,10.3,0,15.5,0c3.8,0,8,0.4,11.3-1.9C116.9,133.8,115.1,125.3,110.5,121.1z"/>
</svg>
