
<svg xmlns="http://www.w3.org/2000/svg" xmlns:xlink="http://www.w3.org/1999/xlink" x="0px" y="0px"
	 xml:space="preserve">

    <g id="pause-icon">

    	<path fill-rule="evenodd" clip-rule="evenodd" d="M34.684,56.667c-0.369-9.541-1.518-18.935-2.472-28.423
    		c-0.59-5.956,0.464-9.82,5.954-12.71c9.749-5.132,18.149-4.969,23.268,1.48c1.968,2.476,3.066,6.878,2.434,9.968
    		c-2.592,12.673-1.138,25.691-0.484,38.478c0.648,12.739,1.507,25.805,0.498,38.533c-0.83,10.464-2.784,23.382-14.768,26.363
    		c-10.832,2.688-16.206-14.541-15.331-14.751c0.569-16.765-0.875,0.21,0,0C34.752,87.324,35.441,76.313,34.684,56.667z"/>

    	<path fill-rule="evenodd" clip-rule="evenodd" d="M82.212,89.137c0.574-11.085,1.57-22.201,1.694-33.308
    		c0.058-5.289-0.225-10.578-0.759-15.837c-0.511-5.036-1.976-10.336-0.59-15.344c2.123-7.668,9.715-12.491,17.488-11.651
    		c9.604,1.038,13.231,7.75,12.736,16.906c-1.001,18.566-3.327,37.143-3.232,55.756c0.051,9.631,0.608,19.251,0.78,28.882
    		c0.14,7.786-1.718,13.455-9.347,16.722c-9.108,3.909-18.387,2.993-19.796-8.324c-1.378-11.042,0.819-22.738,1.617-33.771
    		C82.607,89.157,82.41,89.146,82.212,89.137C82.897,75.913,82.41,89.146,82.212,89.137C82.718,79.39,82.41,89.146,82.212,89.137z"/>
    </g>


    <g id="play-icon">
        <path d="M34.893,35.076c0,0-1.532-18.921,5.125-24.88c6.133-5.433,17.174-6.485,23.308-1.05
        c11.39,10.16,39.253,46.26,43.982,51.869c4.381,5.256,1.051,11.915-2.454,16.646c-9.285,12.791-19.625,24.708-28.561,37.675
        c-7.361,10.69-20.327,32.943-35.574,18.225c-7.576-6.234-5.979-20.234-5.979-20.234L34.893,35.076z"/>
    </g>

</svg>
