
<svg xmlns="http://www.w3.org/2000/svg">

    <g id="pause-icon">

    	<path fill-rule="evenodd" clip-rule="evenodd" d="M34.684,56.667c-0.369-9.541-1.518-18.935-2.472-28.423
    		c-0.59-5.956,0.464-9.82,5.954-12.71c9.749-5.132,18.149-4.969,23.268,1.48c1.968,2.476,3.066,6.878,2.434,9.968
    		c-2.592,12.673-1.138,25.691-0.484,38.478c0.648,12.739,1.507,25.805,0.498,38.533c-0.83,10.464-2.784,23.382-14.768,26.363
    		c-10.832,2.688-16.206-14.541-15.331-14.751c0.569-16.765-0.875,0.21,0,0C34.752,87.324,35.441,76.313,34.684,56.667z"/>

    	<path fill-rule="evenodd" clip-rule="evenodd" d="M82.212,89.137c0.574-11.085,1.57-22.201,1.694-33.308
    		c0.058-5.289-0.225-10.578-0.759-15.837c-0.511-5.036-1.976-10.336-0.59-15.344c2.123-7.668,9.715-12.491,17.488-11.651
    		c9.604,1.038,13.231,7.75,12.736,16.906c-1.001,18.566-3.327,37.143-3.232,55.756c0.051,9.631,0.608,19.251,0.78,28.882
    		c0.14,7.786-1.718,13.455-9.347,16.722c-9.108,3.909-18.387,2.993-19.796-8.324c-1.378-11.042,0.819-22.738,1.617-33.771
    		C82.607,89.157,82.41,89.146,82.212,89.137C82.897,75.913,82.41,89.146,82.212,89.137C82.718,79.39,82.41,89.146,82.212,89.137z"/>
    </g>


    <g id="play-icon">
        <path d="M34.893,35.076c0,0-1.532-18.921,5.125-24.88c6.133-5.433,17.174-6.485,23.308-1.05
        c11.39,10.16,39.253,46.26,43.982,51.869c4.381,5.256,1.051,11.915-2.454,16.646c-9.285,12.791-19.625,24.708-28.561,37.675
        c-7.361,10.69-20.327,32.943-35.574,18.225c-7.576-6.234-5.979-20.234-5.979-20.234L34.893,35.076z"/>
    </g>


    <g id="next-icon">
        
        <path d="M31.054,78.932c-6.199-0.1-13.1-2.1-13.1-9.601c0-7.898,10.199-9.898,16.398-9.8
        c10.4,0.101,51.301,1.8,61.201,0.2c-2.5-4-4.9-7.101-8-10.601c-2.9-3.301-4.9-9-1.1-12.399c3.5-3.101,9.8-3.7,13.3-0.601
        c6.5,5.8,22.399,26.399,25.1,29.601c2.5,3,0.601,6.8-1.399,9.499c-5.301,7.3-11.2,14.102-16.301,21.5
        c-4.199,6.102-11.6,18.8-20.3,10.4c-2.899-2.8-3-6.2,0.2-10.5c2.2-3,4.6-5.9,6.9-8.8c1-1.302,2.3-2.4,2.899-3.9
        c1.5-3.6,0.8-6.1,1.3-5.1C112.455,78.832,53.153,79.332,31.054,78.932z"/>

    </g>


    <g id="prev-icon">
        <path  d="M112.947,65.069c6.2,0.1,13.1,2.1,13.1,9.601c0,7.899-10.199,9.899-16.399,9.8
        c-10.4-0.101-51.301-1.8-61.201-0.2c2.5,4,4.9,7.1,8,10.6c2.9,3.301,4.9,9,1.1,12.4c-3.5,3.1-9.8,3.7-13.3,0.6
        c-6.5-5.8-22.4-26.399-25.1-29.6c-2.5-3-0.6-6.8,1.4-9.5c5.3-7.3,11.2-14.101,16.3-21.5c4.2-6.101,11.6-18.8,20.3-10.4
        c2.9,2.8,3,6.2-0.2,10.5c-2.2,3-4.6,5.9-6.9,8.8c-1,1.301-2.3,2.4-2.9,3.9c-1.5,3.6-0.8,6.1-1.3,5.1
        C31.546,65.169,90.848,64.669,112.947,65.069z"/>
    </g>

    <g id="menu-icon">
        <path fill-rule="evenodd" clip-rule="evenodd" d="M2.3,6.8c0.8-0.1,1.6-0.2,2.4-0.2c1.6-0.1,3.3,0,4.9,0.1
            c0,0.1,0,0.1,0.1,0.2c0.6-0.3,1.4-0.6,1.2-1.5c-0.2-1-1.3-1.2-2.2-1.2c-1.1-0.1-2.1,0-3.2,0c-1.1,0.1-2.1,0.2-3.2,0
            C2,4.1,1.6,4.2,1.4,4.4C0.9,4.8,0.9,5.5,1.3,6.3C1.5,6.8,1.8,6.8,2.3,6.8z"/>
        <path fill-rule="evenodd" clip-rule="evenodd" d="M9.2,6.7c-0.3,0-0.4,0,0.4,0C7.9,6.6,8.6,6.7,9.2,6.7z"/>
        <path fill-rule="evenodd" clip-rule="evenodd" d="M9.2,6.7c0.2,0,0.4,0,0.4,0C9.6,6.7,9.4,6.7,9.2,6.7z"/>
        <path fill-rule="evenodd" clip-rule="evenodd" d="M2,2.6c0.4,0.1,0.9,0,1.3,0c0.4,0,0.9-0.1,1.3-0.1
            c0.8,0,1.5,0.1,2.3,0.1c0,0,0.1,0,0.2,0c0.1,0,0.2,0,0.2,0c0,0,0,0,0,0c0.9,0.1,1.9,0.2,2.8,0.1c0.9-0.1,1-0.9,0.7-1.6
            c-0.3-0.6-0.7-0.8-1.4-0.8c-0.8,0-1.6,0.1-2.4,0.1C5.5,0.4,4,0.2,2.5,0.1c-0.8,0-1.3,0.3-1.4,1.1C1,1.8,1.4,2.4,2,2.6z"/>
        <path fill-rule="evenodd" clip-rule="evenodd" d="M6.9,2.6c0,0,0.1,0,0.5,0c-0.2,0-0.3,0-0.3,0
            C7,2.6,6.9,2.6,6.9,2.6z"/>
        <path fill-rule="evenodd" clip-rule="evenodd" d="M7,2.6c0.1,0,0.2,0,0.3,0c0,0-0.1,0-0.2,0C7.1,2.6,7,2.6,7,2.6z"
            />
        <path fill-rule="evenodd" clip-rule="evenodd" d="M7.7,8.3c-1,0.1-1.9,0.2-2.9,0.1c-1,0-1.9-0.1-2.9-0.2
            C1.5,8.2,1.1,8.5,1,9c-0.2,0.9,0.3,1.5,1.2,1.6c1.3,0,2.5,0,3.8,0c0,0,0,0,0,0c1.4,0,2.7,0,4.1,0c0.7,0,0.9-0.3,0.9-1
            C11,7.6,8.9,8.2,7.7,8.3z"/>
    </g>

</svg>
