<?xml version="1.0" encoding="utf-8"?>
<!-- Generator: Adobe Illustrator 16.0.0, SVG Export Plug-In . SVG Version: 6.00 Build 0)  -->
<!DOCTYPE svg PUBLIC "-//W3C//DTD SVG 1.1//EN" "http://www.w3.org/Graphics/SVG/1.1/DTD/svg11.dtd">
<svg version="1.1" id="Layer_1" xmlns="http://www.w3.org/2000/svg" xmlns:xlink="http://www.w3.org/1999/xlink" x="0px" y="0px"
	 width="12px" height="10.7px" viewBox="0 0 12 10.7" enable-background="new 0 0 12 10.7" xml:space="preserve">
<g>
	<path fill-rule="evenodd" clip-rule="evenodd" fill="#FFFFFF" d="M2.3,6.8c0.8-0.1,1.6-0.2,2.4-0.2c1.6-0.1,3.3,0,4.9,0.1
		c0,0.1,0,0.1,0.1,0.2c0.6-0.3,1.4-0.6,1.2-1.5c-0.2-1-1.3-1.2-2.2-1.2c-1.1-0.1-2.1,0-3.2,0c-1.1,0.1-2.1,0.2-3.2,0
		C2,4.1,1.6,4.2,1.4,4.4C0.9,4.8,0.9,5.5,1.3,6.3C1.5,6.8,1.8,6.8,2.3,6.8z"/>
	<path fill-rule="evenodd" clip-rule="evenodd" fill="#FFFFFF" d="M9.2,6.7c-0.3,0-0.4,0,0.4,0C7.9,6.6,8.6,6.7,9.2,6.7z"/>
	<path fill-rule="evenodd" clip-rule="evenodd" fill="#FFFFFF" d="M9.2,6.7c0.2,0,0.4,0,0.4,0C9.6,6.7,9.4,6.7,9.2,6.7z"/>
	<path fill-rule="evenodd" clip-rule="evenodd" fill="#FFFFFF" d="M2,2.6c0.4,0.1,0.9,0,1.3,0c0.4,0,0.9-0.1,1.3-0.1
		c0.8,0,1.5,0.1,2.3,0.1c0,0,0.1,0,0.2,0c0.1,0,0.2,0,0.2,0c0,0,0,0,0,0c0.9,0.1,1.9,0.2,2.8,0.1c0.9-0.1,1-0.9,0.7-1.6
		c-0.3-0.6-0.7-0.8-1.4-0.8c-0.8,0-1.6,0.1-2.4,0.1C5.5,0.4,4,0.2,2.5,0.1c-0.8,0-1.3,0.3-1.4,1.1C1,1.8,1.4,2.4,2,2.6z"/>
	<path fill-rule="evenodd" clip-rule="evenodd" fill="#FFFFFF" d="M6.9,2.6c0,0,0.1,0,0.5,0c-0.2,0-0.3,0-0.3,0
		C7,2.6,6.9,2.6,6.9,2.6z"/>
	<path fill-rule="evenodd" clip-rule="evenodd" fill="#FFFFFF" d="M7,2.6c0.1,0,0.2,0,0.3,0c0,0-0.1,0-0.2,0C7.1,2.6,7,2.6,7,2.6z"
		/>
	<path fill-rule="evenodd" clip-rule="evenodd" fill="#FFFFFF" d="M7.7,8.3c-1,0.1-1.9,0.2-2.9,0.1c-1,0-1.9-0.1-2.9-0.2
		C1.5,8.2,1.1,8.5,1,9c-0.2,0.9,0.3,1.5,1.2,1.6c1.3,0,2.5,0,3.8,0c0,0,0,0,0,0c1.4,0,2.7,0,4.1,0c0.7,0,0.9-0.3,0.9-1
		C11,7.6,8.9,8.2,7.7,8.3z"/>
</g>
</svg>
