<?xml version="1.0" encoding="utf-8"?>
<!-- Generator: Adobe Illustrator 16.0.0, SVG Export Plug-In . SVG Version: 6.00 Build 0)  -->
<!DOCTYPE svg PUBLIC "-//W3C//DTD SVG 1.1//EN" "http://www.w3.org/Graphics/SVG/1.1/DTD/svg11.dtd">
<svg version="1.1" id="Layer_1" xmlns="http://www.w3.org/2000/svg" xmlns:xlink="http://www.w3.org/1999/xlink" x="0px" y="0px"
	 width="198.25px" height="62px" viewBox="0 0 198.25 62" enable-background="new 0 0 198.25 62" xml:space="preserve">
<g>
	<path fill="#FFFFFF" d="M191.611,24.257c-1.904-1.458-6.404-3.593-7.939-3.998c-0.384-0.103-0.809-0.212-1.229-0.332
		c-0.422-0.118-1.176-0.646-1.541-0.781c-2.98-4.326,3.769-2.336,4.207-2.34c3.086-0.043,6.166,0.896,9.209,0.047
		c2.091-0.584,3.539-1.868,2.468-3.934c-1.222-2.36-3.55-5.217-8.552-6.63c-0.528-0.083-4.74-1.694-7.899-1.426
		c-3.157,0.271-10.522,0.53-13.935,4.574c-0.435,0.306-0.842,0.645-1.221,1.013c-2.656,2.585-3.916,6.644-2.658,10.912
		c0.123,0.555,0.283,1.091,0.477,1.595c0.587,1.507,1.511,2.71,2.852,3.213c1.75,1.669,4.694,2.87,8.604,4.107
		c3.527,1.117,5.684,2.214,6.646,3.448c1.082,1.387,1.437,2.975,0.383,4.424c-2.105,2.896-3.975,3.957-7.397,3.822
		c-3.496-0.134-3.353,0.326-6.844,0.02c-2.124-0.184-5.816-1.207-7.634,0.053c-1.205,0.833-1.784,1.414-1.684,3.716
		c0.162,3.638,3.986,6.833,11.271,7.999c1.879,0.116,5.888,0.145,8.807-0.466c1.279-0.269,4.941-1.117,5.988-1.521
		c2.85-1.105,7.117-4.242,9.338-6.293c1.77-1.637,3.502-4.215,3.756-7.449c0.256-3.233-0.525-6.771-1.291-8.49
		C194.902,27.528,192.982,25.305,191.611,24.257z M194.198,40.066c-0.937,1.52-2.326,3.467-3.669,4.459
		c-3.147,2.324-5.317,3.826-9.073,5.252c-2.724,0.959-7.032,1.757-8.876,1.695c-1.848-0.06-6.874-1.205-8.432-2.062
		c-3.486-1.531-4.043-3.08-3.588-4.237c0.93-2.373,3.365-1.605,4.658-1.415c4.373,0.652,7.801,1.054,12.639,0.013
		c2.644-0.568,6.519-4.487,6.666-7.156c0.543-1.321-0.141-3.176-0.979-4.301c-1.816-2.443-3.832-3.337-5.295-3.693
		c-1.461-0.357-5.79-1.715-6.854-2.223c-1.018-0.482-3.869-2.064-5.586-4.365c-0.35-0.466-0.648-0.962-0.883-1.492
		c-0.558-2.145-0.222-4.326,0.731-6.122c0.235-0.448,0.511-0.875,0.821-1.277c0.881-0.932,2.824-3.267,5.453-4.099
		c5.325-1.689,7.36-1.1,11.045-1.089c3.684,0.01,6.658,1.471,7.371,1.7c2.707,0.872,6.858,3.989,3.896,5.236
		c-1.628,0.218-6.316-0.923-7.93-0.636c-0.381,0.009-0.748,0.023-1.103,0.041c-3.791-0.191-9.579,0.073-6.935,5.119
		c0.328,0.625,4.732,3.134,8.203,4.734c3.25,1.708,6.01,3.511,7.488,6.774C194.788,32.061,196.441,36.423,194.198,40.066z"/>
	<path fill="#FFFFFF" d="M34.361,23.848c-3.241-1.826-6.708-2.902-10.139-4.15c-0.731-0.266-1.589-1.178-1.575-1.506
		c0.035-0.793,6.395,0.426,9.573,0.585c2.395,0.12,4.817,0.559,7.165-0.349c2.531-0.982,3.77-3.858,2.292-5.881
		c-0.795-1.088-2.074-1.926-3.297-2.572c-1.568-0.829-3.296-1.353-4.957-2.005c-2.716-0.651-5.889-1.397-9.361-1.425
		C18.203,6.761,6.191,9.233,5.51,19.452c-0.374,5.6,1.75,9.291,5.604,10.507c3.395,1.069,6.836,1.968,10.345,2.596
		c0.968,0.17,1.936,0.383,2.869,0.688c1.73,0.561,2.839,1.792,3.501,3.466c0.589,1.483,0.27,2.813-0.682,4.021
		c-0.831,1.059-6.513,0.58-7.235,0.166c-4.882-1.472-8.869-3.584-13.694-4.309c-4.814-1.082-5.374,3.025-5.188,4.891
		c0.278,2.782,5.32,7.838,12.315,9.945c1.126,0.531,9.649,2.989,13.163,2.092c3.514-0.9,7.911-2.533,10.359-5.039
		c2.301-2.354,4.759-5.6,5.923-9.567s-1.193-7.874-3.913-10.992C37.558,26.404,36.265,24.919,34.361,23.848z M39.947,40.354
		c-0.56,2.238-2.94,3.924-4.479,5.879c-0.825,1.049-5.291,4.515-10.639,4.479c-5.832-0.037-12.445-2.733-13.999-3.356
		c-2.246-0.904-4.622-2.766-6.399-4.478c-1.846-1.776-1.346-4.204,0.127-4.287c1.473-0.085,19.618,7.363,24.39,4.123
		c2.74-1.856,3.809-5.188,2.28-8.11c-1.251-2.389-2.926-3.763-5.76-4.611c-4.23-1.269-8.548-1.865-12.811-2.811
		c-3.059-0.68-4.721-4.745-4.665-7.141c0.047-1.997,1.778-4.798,3.117-6.282c2.993-3.313,6.91-3.911,11.319-4.361
		c3.11-0.317,17.249,3.294,16.307,5.39c-0.943,2.095-9.04,0.743-12.484-0.102c-4.315-0.646-7.233,1.921-5.621,4.766
		c2.064,3.641,13.812,4.106,18.553,13.619C40.595,35.076,40.507,38.115,39.947,40.354z"/>
	<path fill="#FFFFFF" d="M152.857,40.018c-0.729-0.361-1.685-0.457-2.51-0.386c-2.431,0.205-4.849,0.558-7.27,0.849
		c-0.948,0.113-1.85-0.041-2.083-1.103c-0.362-1.61-0.75-3.247-0.806-4.883c-0.057-1.806,0.908-2.464,2.526-3.318
		c2.53-1.335,5.076-2.67,7.447-4.258c1.005-0.672,1.944-2.458,2.41-3.604c0.625-1.544-0.522-3.002-2.189-3.102
		c-0.598-0.036-1.211,0.142-1.819,0.198c-3.287,0.3-6.607,0.953-10.254,1.279c-0.213-0.99-0.385-2.095-0.504-2.853
		c-0.216-1.393-0.136-2.291,0.264-2.861c0.402-0.572,1.123-0.819,2.195-0.912c3.182-0.277,7.729-0.975,10.803-1.649
		c1.031-0.226,1.783-0.679,2.082-1.729c0.313-1.105-0.226-2.001-1.045-2.483c-1.408-0.824-2.903-1.612-4.463-2.041
		c-0.973-0.266-2.886-1.01-5.695-1.521c-4.217-0.766-9.778-1.309-11.805-1.353c-0.66-0.014-1.297,0.021-1.899,0.11
		c-0.603,0.087-1.171,0.228-1.697,0.426c-0.526,0.198-1.007,0.451-1.44,0.765c-0.431,0.313-0.812,0.687-1.133,1.124
		c-0.32,0.437-0.582,0.938-0.775,1.504c-0.193,0.566-0.319,1.201-0.368,1.905c-0.03,0.422-0.043,0.941-0.042,1.54
		c0.001,0.6,0.018,1.277,0.048,2.012c0.034,0.737,0.081,1.531,0.146,2.367c0.062,0.834,0.145,1.708,0.246,2.603
		c0.1,0.896,0.217,1.811,0.342,2.727c0.127,0.916,0.26,1.832,0.393,2.729s0.264,1.775,0.387,2.615
		c0.122,0.84,0.243,1.637,0.363,2.371c0.115,0.733,0.232,1.408,0.34,2.004s0.204,1.115,0.284,1.539
		c0.164,0.88,0.301,1.721,0.417,2.538c0.115,0.817,0.206,1.614,0.283,2.399c0.076,0.785,0.135,1.562,0.188,2.34
		c0.053,0.779,0.098,1.56,0.15,2.354c0.05,0.795,0.111,1.602,0.193,2.432s0.187,1.684,0.334,2.566
		c0.146,0.885,0.34,1.797,0.59,2.749c0.127,0.476,0.264,0.964,0.412,1.464c0.146,0.5,0.307,1.014,0.479,1.543
		c1.051,3.221,2.932,4.394,5.641,2.463c4.862-3.463,11.01-5.414,16.487-8.494c0.451-0.209,0.87-0.566,1.188-0.955
		c0.66-0.801,1.232-1.67,1.863-2.495C154.511,42.275,154.292,40.734,152.857,40.018z M150.818,42.875
		c-0.559,1.398-2.547,2.625-3.358,3.08c-4.192,2.336-9.399,3.809-13.678,5.979c-2.341,1.816-3.104-0.121-3.562-2.244
		c-0.15-0.709-0.268-1.438-0.397-2.06c-0.089-0.415-0.173-0.925-0.25-1.503c-0.077-0.579-0.154-1.227-0.222-1.921
		c-0.069-0.694-0.138-1.433-0.205-2.192c-0.066-0.759-0.139-1.543-0.213-2.318c-0.074-0.779-0.153-1.551-0.24-2.301
		c-0.086-0.748-0.176-1.471-0.268-2.146c-0.091-0.675-0.18-1.304-0.266-1.865s-0.165-1.056-0.238-1.461
		c-0.109-0.61-0.227-1.259-0.338-1.938c-0.113-0.678-0.227-1.386-0.34-2.11c-0.114-0.724-0.234-1.463-0.355-2.201
		c-0.09-0.553-0.182-1.108-0.271-1.656c-0.091-0.549-0.179-1.092-0.261-1.623c-0.082-0.533-0.157-1.055-0.229-1.56
		c-0.07-0.505-0.132-0.993-0.184-1.46c-0.08-0.716-0.149-1.434-0.204-2.151c-0.056-0.717-0.099-1.435-0.127-2.152
		c-0.032-0.718-0.05-1.437-0.06-2.156c-0.012-0.717-0.015-1.436-0.012-2.155c0.002-0.669,0.064-1.269,0.203-1.791
		c0.137-0.522,0.346-0.967,0.641-1.326c0.293-0.36,0.672-0.633,1.145-0.815c0.474-0.182,1.044-0.269,1.723-0.256
		c0.666,0.014,1.412,0.041,2.202,0.085c0.79,0.042,1.625,0.099,2.472,0.164c3.389,0.263,6.965,0.683,8.584,1.057
		c2.998,0.692,6.997,1.866,7.277,3.451c0.15,0.858-3.37,1.176-4.549,1.344c-1.811,0.261-3.635,0.439-5.455,0.615
		c-0.607,0.06-1.217,0.117-1.822,0.179c-0.706,0.071-1.279,0.169-1.746,0.317c-0.464,0.15-0.818,0.351-1.084,0.631
		c-0.527,0.561-0.689,1.441-0.65,2.854c0.033,1.002,0.093,2.006,0.185,3.008c0.091,1,0.212,1.999,0.362,2.988
		c0.162,1.071,0.537,1.61,1.099,1.819c0.56,0.21,1.306,0.091,2.202-0.156c1.793-0.495,4.829-1.49,6.047-1.56
		c2.614-0.559,4.71-0.421,4.666,0.559c-0.044,0.982-1.432,2.146-2.254,2.5c-2.165,0.928-4.348,1.827-6.571,2.599
		c-2.149,0.745-2.245,0.623-2.372,2.929c-0.115,2.175,0,4.853,0.531,7.618c0.446,3.266,1.318,3.837,4.508,3.205
		C146.084,42.432,151.38,41.477,150.818,42.875z"/>
	<path fill="#FFFFFF" d="M118.357,38.639c-2.572,0.182-5.119,0.748-7.676,1.155c-2.203,0.353-4.395,0.831-6.613,1.017
		c-1.768,0.15-2.213-0.272-2.605-2.009c-0.354-1.565-0.658-3.161-0.768-4.76c-0.422-6.062-0.594-12.145-1.189-18.188
		c-0.313-3.184-1.206-6.328-2.031-9.438c-0.553-2.085-3.586-3.016-5.174-1.617c-1.046,0.919-1.96,2.24-2.52,4.48
		c-0.56,2.24-1.183,6.369-1.755,10.056c-0.613,3.964-0.618,8.018-1.004,12.022c-0.462,4.795-1.153,19.437-0.537,21.823
		c1.067,4.11,4.287,5.616,8.269,4.122c2.17-0.811,4.332-1.649,6.479-2.526c2.23-0.909,4.359-2.183,6.672-2.752
		c2.426-0.6,4.473-1.75,6.503-3.045c2.032-1.297,3.382-2.635,5.331-4.051c1.316-0.955,2.8-3.513,2.303-4.796
		C121.361,38.376,119.658,38.549,118.357,38.639z M116.877,44.029c-4.283,2.789-8.734,5.205-13.709,6.602
		c-1.96,0.551-3.798,1.526-5.706,2.271c-0.83,0.324-1.703,0.535-2.54,0.839c-3.176,1.147-4.79-0.293-5.308-3.675
		c-0.307-2.008-0.128-4.102-0.064-6.153c0.112-3.56,0.261-7.118,0.481-10.67c0.148-2.404,0.312-6.015,0.217-7.072
		c-0.096-1.058,0.376-4.492,0.933-7.933c0.517-3.191,1.12-11.199,3.08-11.199c1.004,0,2.033,3.69,2.148,4.387
		c0.56,3.432,0.641,6.3,0.946,9.76c0.353,4,0.395,8.027,0.57,12.044c0.131,3.023,0.246,6.053,0.397,9.074
		c0.069,1.379,0.81,2.121,2.264,2.065c1.419-0.054,2.852-0.224,4.24-0.522c2.874-0.621,5.706-1.44,8.587-2.015
		c1.442-0.288,2.593-0.358,4.299-0.306S117.618,43.546,116.877,44.029z"/>
	<path fill="#FFFFFF" d="M78.933,34.459c-1.122-2.986-1.388-6.28-2.339-9.342c-1.403-4.521-3.007-8.985-4.659-13.423
		c-0.795-2.132-2.277-3.878-4.199-5.113c-0.668-0.429-1.666-0.634-2.453-0.523c-3.778-0.414-8.445,2.385-11.058,8.918
		c-0.384,2.364-1.505,5.407-2.066,7.741c-0.832,3.468-2.146,6.893-2.974,10.363c-0.289,1.215-2.088,8.852-2.328,11.482
		c-0.307,3.347-0.471,5.513-0.099,8.858c0.26,2.347,1.865,3.541,4.106,2.8c3.263-1.08,5.08-6.47,5.414-7.465
		c0.651-1.932,1.833-4.645,2.613-6.531c0.703-1.707,2.041-4.94,2.987-7.094c2.237,3.653,3.668,6.182,5.602,9.189
		c1.983,3.082,4.129,6.059,6.117,9.138c1.046,1.621,2.631,2.128,4.333,2.243c3.92,0.711,3.98-5.869,3.637-8.143
		C80.907,43.182,80.531,38.709,78.933,34.459z M78.739,52.121c-0.684,0.378-3.564-1.904-4.436-3.271
		c-2.884-4.523-5.613-9.143-8.35-13.756c-0.632-1.068-1.08-2.25-1.57-3.396c-0.353-0.825-0.567-1.801-1.695-1.818
		c-1.838-0.069-3.242,4.522-3.611,5.435c-2.078,5.141-3.938,10.718-6.053,15.843c-0.479,1.157-1.122,2.223-2.466,2.596
		c-1.378-0.884-1.228-2.178-1.252-3.414c-0.083-4.247,0.743-8.356,1.8-12.444c0.738-2.854,1.223-5.776,1.985-8.625
		c1.078-5.655,2.855-10.179,4.12-13.363c1.6-4.024,3.194-5.126,4.667-6.16c0.85-0.61,3.201-1.533,4.106-1.026
		c2.489,1.399,2.937,3.436,3.98,5.965c2.394,5.805,4.042,11.817,5.469,17.923c1.182,5.055,2.535,10.061,3.069,15.238
		C78.635,49.143,79.424,51.742,78.739,52.121z"/>
</g>
</svg>
