<?xml version="1.0" encoding="utf-8"?>
<!-- Generator: Adobe Illustrator 16.0.0, SVG Export Plug-In . SVG Version: 6.00 Build 0)  -->
<!DOCTYPE svg PUBLIC "-//W3C//DTD SVG 1.1//EN" "http://www.w3.org/Graphics/SVG/1.1/DTD/svg11.dtd">
<svg version="1.1" id="Layer_1" xmlns="http://www.w3.org/2000/svg" xmlns:xlink="http://www.w3.org/1999/xlink" x="0px" y="0px"
	 width="114.1px" height="22.2px" viewBox="0 0 114.1 22.2" enable-background="new 0 0 114.1 22.2" xml:space="preserve">
<path fill="#FFFFFF" d="M42.987,16.396c-0.431,0.078-0.915,0.114-0.987,0.626c-0.125,0.871-0.033,1.779-0.078,2.657
	c-0.02,0.368-0.067,0.747-0.181,1.096c-0.25,0.763-0.835,0.886-1.375,0.313c-0.728-0.771-0.581-1.658-0.475-2.627
	c0.127-1.153,0.26-2.311,0.29-3.471c0.055-2.125,0.021-4.255-0.051-6.38c-0.057-1.697-0.191-3.391-0.293-5.085
	c-0.041-0.662-0.171-1.371,0.195-1.968c0.316-0.516,0.896-0.824,1.501-0.802c1.374,0.05,2.771-0.031,4.096,0.454
	c0.708,0.259,1.282,0.707,1.726,1.322c1.771,2.457,2.146,5.249,1.986,8.172c-0.055,1.021-0.253,1.98-0.775,2.9
	c-0.379,0.669-0.208,1.443-0.004,2.141c0.241,0.823,0.521,1.631,0.907,2.399c0.297,0.591,1.254,2.771,0.048,3.164
	c-0.466,0.153-0.803-0.128-0.967-0.534c-0.339-0.841-0.688-1.684-0.93-2.555c-0.244-0.872-0.855-2.646-0.939-2.846
	C46.312,15.59,44.457,15.993,42.987,16.396z M42.019,11.353c0,0.741-0.033,1.485,0.01,2.224c0.02,0.33,0.092,0.692,0.48,0.725
	c0.509,0.043,1.152-0.135,1.624-0.313c1.215-0.464,2.246-1.155,2.968-2.295c0.32-0.503,0.214-1.091,0.341-1.646
	c0.147-0.646,0.168-1.312,0.096-1.969c-0.145-1.288-0.56-2.529-1.141-3.679C45.822,3.26,43.05,2.913,42.154,3.37
	c-0.259,0.131-0.525,0.47-0.573,0.75c-0.106,0.625-0.209,1.301-0.077,1.905C41.889,7.788,41.971,9.562,42.019,11.353
	C42.019,12.094,41.971,9.562,42.019,11.353z"/>
<path fill="#FFFFFF" d="M15.575,13.461c-0.046-1.271-0.039-2.545,0.07-3.812c0.115-1.329,0.333-2.629,0.637-3.924
	c0.6-2.561,2.671-4.746,3.561-4.553c1.437,0.312,2.628,0.256,3.744,1.432c0.501,0.527,0.827,1.098,0.865,1.774
	c0.145,2.591,0.368,5.189,0.298,7.779c-0.049,1.805-0.354,3.65-0.859,5.387c-0.723,2.479-2.166,3.26-4.653,3.49
	c-0.881,0.08-1.595-0.523-2.207-1.107c-0.747-0.715-1.276-1.627-1.431-2.656c-0.083-0.555-0.024-1.1-0.012-1.654
	C15.607,14.897,15.575,14.179,15.575,13.461C15.496,11.229,15.575,14.375,15.575,13.461z M17.233,12.94
	c0.027,0.002,0.056,0.004,0.083,0.006c0,0.743-0.062,1.493,0.018,2.229c0.089,0.836,0.244,1.675,0.478,2.48
	c0.28,0.965,0.902,1.305,1.867,1.066c0.413-0.104,0.868-0.278,1.164-0.564c0.778-0.757,1.417-1.621,1.646-2.729
	c0.397-1.926,0.509-3.865,0.427-5.828c-0.066-1.581,0.013-3.16-0.493-4.707C21.99,3.572,20.24,2.97,19.15,3.859
	c-0.956,0.78-1.267,1.914-1.409,3.029C17.483,8.896,17.392,10.922,17.233,12.94C17.26,12.942,17.392,10.922,17.233,12.94z"/>
<path fill="#FFFFFF" d="M59.72,21.209c-0.169,0-0.338-0.008-0.507,0c-0.885,0.049-1.525-0.314-1.801-1.166
	c-0.133-0.405-0.331-2.244-0.238-2.768c0.193-1.081,0.175-2.184,0.229-3.273c0.091-1.787,0.183-3.575,0.208-5.361
	c0.032-2.125,0.009-4.251-0.018-6.376c-0.007-0.591,0.122-1.208,0.808-1.278c0.438-0.045,0.896,0.063,1.331,0.106
	c0.559,0.056,1.117,0.102,1.67,0.195c1.155,0.195,2.926,1.566,3.525,2.441s1.218,2.397,1.491,3.72
	c0.414,1.994,0.41,4.023,0.284,6.039c-0.076,1.202-0.278,2.53-0.663,3.675c-0.332,0.985-1.162,1.662-1.925,2.315
	c-0.684,0.584-1.487,1.069-2.313,1.429C61.176,21.179,59.727,21.241,59.72,21.209C59.551,21.209,59.727,21.241,59.72,21.209z
	 M65.111,13.106c-0.08-1.188-0.142-1.996-0.188-2.804c-0.054-0.943-0.069-1.89-0.146-2.832c-0.2-2.487-2.472-4.075-4.043-4.404
	c-1.046-0.219-1.491,0.112-1.503,1.161c-0.011,1.077,0.123,2.156,0.103,3.233c-0.042,2.158-0.17,4.314-0.217,6.473
	c-0.034,1.584-0.017,3.171,0.02,4.756c0.016,0.745,0.248,0.91,0.962,0.677c0.639-0.211,1.27-0.478,1.855-0.804
	c0.932-0.519,1.777-1.229,2.288-2.183C64.783,15.374,64.877,14.208,65.111,13.106C65.031,11.917,64.977,13.736,65.111,13.106z"/>
<path fill="#FFFFFF" d="M36.854,2.15c0.282,0.782,0.029,1.731,0.034,2.541c0.017,3.105,0.05,6.21,0.078,9.315
	c0.001,0.136,0.045,0.279,0.013,0.404c-0.427,1.653-0.441,3.43-1.414,4.922c-0.175,0.271-0.401,0.545-0.671,0.707
	c-1.259,0.76-2.562,1.295-4.108,0.979c-1.584-0.324-2.862-1.268-3.104-3.16c-0.208-1.645,0.101-3.232,0.049-4.85
	c-0.051-1.626-0.017-3.255,0.046-4.881c0.064-1.676,0.188-3.362,0.004-5.036c-0.073-0.677,0.416-1.376,0.771-1.385
	c0.479-0.013,0.913,0.564,0.96,1.361c0.146,2.452-0.02,4.942,0.008,7.398c0.016,1.3,0.045,2.599,0.106,3.897
	c0.031,0.637,0.039,1.289,0.124,1.922c0.077,0.579,0.31,1.125,0.548,1.653c0.121,0.267,0.452,0.519,0.742,0.61
	c1.097,0.359,2.45-0.264,3.012-1.301c0.524-0.965,0.821-1.972,0.786-3.09c-0.022-0.699,0.139-1.404,0.156-2.107
	c0.047-1.917,0.013-3.836,0.107-5.75c0.045-0.906,0.031-1.782-0.171-2.665c-0.199-0.868-0.104-2.084,0.519-2.448
	C36.07,0.823,36.64,1.558,36.854,2.15z"/>
<path fill="#FFFFFF" d="M95.444,1.057c1.451,0,2.903-0.018,4.354,0.016c0.311,0.007,0.667,0.14,0.912,0.331
	c0.338,0.263,0.636,0.604,0.469,1.128c-0.174,0.546-0.559,0.736-1.084,0.717c-1.248-0.044-2.496-0.102-3.744-0.146
	c-0.406-0.015-0.813-0.034-1.217,0.002c-1.038,0.09-1.719,0.739-1.754,1.759c-0.033,0.975-0.05,1.95-0.062,2.926
	c-0.011,0.935-0.107,1.918,0.028,2.844c0.062,0.418,0.263,0.657,0.73,0.673c1.182,0.04,2.361,0.104,3.542,0.181
	c0.364,0.023,0.733,0.089,1.088,0.188c0.443,0.125,0.628,0.459,0.642,0.922c0.012,0.426-0.154,0.71-0.527,0.896
	c-0.433,0.215-0.853,0.324-1.36,0.223c-0.48-0.098-0.994-0.034-1.493-0.028c-0.438,0.005-0.874,0.038-1.312,0.039
	c-0.562,0.001-1.183,0.085-1.32,0.722c-0.089,0.403-0.028,0.836-0.021,1.244c0.012,0.581,0.003,1.164-0.013,1.745
	c-0.029,1.054,0.113,1.222,1.2,1.25c1.481,0.038,2.966,0.069,4.449,0.093c0.818,0.014,1.382,0.652,1.256,1.452
	c-0.067,0.429-0.477,0.711-0.99,0.662c-1.954-0.187-3.896-0.071-5.828,0.231c-1.233,0.193-1.976-0.402-2.013-2.099
	c-0.035-1.579,0.173-3.161,0.245-4.745c0.05-1.093,0.093-2.186,0.133-3.279c0.021-0.579,0.043-1.157,0.062-1.736
	c0.011-0.257,0.021-0.515,0.029-0.771c0.008-0.224,0.052-5.808,0.16-6.84c0.041-0.388,0.295-0.56,0.702-0.575
	C93.621,1.05,95.444,1.012,95.444,1.057C96.895,1.057,95.444,1.012,95.444,1.057z"/>
<path fill="#FFFFFF" d="M78.387,19.084c0.181,1.035-1.426,1.59-1.775,0.554c-0.132-0.39-0.457-2.06-0.572-2.529
	c-0.29-1.176-0.631-1.43-1.839-1.401c-0.708,0.017-1.416,0.015-2.124,0.033c-1.007,0.024-1.41,0.313-1.687,1.27
	c-0.169,0.584-0.315,1.173-0.465,1.762c-0.075,0.294-0.149,0.589-0.226,0.883c-0.05,0.186-0.282,1.119-0.951,1.119
	c-1.12,0.004-0.804-1.85-0.665-2.413c0.465-1.897,1.037-3.771,1.543-5.661c0.706-2.638,1.398-5.281,2.073-7.928
	c0.166-0.652,0.803-2.886,1.271-3.279c0.097-0.081,0.651-0.106,0.816,0.045c0.5,0.46,0.596,1.111,0.716,1.745
	c0.237,1.254,0.466,2.511,0.732,3.759c0.275,1.284,0.562,2.566,0.9,3.833C76.353,11.682,78.181,17.885,78.387,19.084z M73.394,5.814
	c-0.087-0.006-0.175-0.011-0.263-0.016c-0.121,0.333-0.259,0.664-0.36,1.003c-0.528,1.759-0.921,3.556-1.277,5.358
	c-0.09,0.445-0.45,1.377,0.229,1.529c0.791,0.178,1.771-0.035,2.565-0.117c0.701-0.072,0.82-0.203,0.7-0.916
	c-0.191-1.144-0.408-2.283-0.638-3.42C74.128,8.129,73.992,6.778,73.394,5.814C73.307,5.808,73.478,5.949,73.394,5.814z"/>
<path fill="#FFFFFF" d="M105.954,17.407c0.553,0.965,1.247,1.276,2.374,1.094c0.708-0.115,1.314-0.309,1.844-0.906
	c0.758-0.86,0.71-1.723,0.29-2.625c-0.302-0.649-0.792-1.188-1.439-1.504c-0.425-0.207-0.82-0.469-1.213-0.731
	c-0.336-0.228-0.706-0.562-1.104-0.667c-1.922-0.509-2.557-2.04-2.71-3.741c-0.125-1.389,0.055-2.793,0.534-4.102
	c0.353-0.96,0.944-2.649,2.16-2.741c0.71-0.054,1.462-0.043,2.105,0.301c0.752,0.401,1.305,1.175,1.864,1.796
	c0.456,0.506,0.374,1.768-0.436,1.917c-0.669,0.123-0.967-0.675-1.261-1.087c-0.566-0.794-1.48-0.824-2.123-0.078
	c-0.542,0.63-0.881,1.358-0.981,2.181c-0.053,0.428-0.188,0.847-0.171,1.281c0.019,0.451,0.227,0.896,0.471,1.268
	c0.444,0.68,1.132,1.135,1.893,1.395c1.967,0.673,3.314,1.983,4.206,3.822c0.742,1.532,0.372,4.117-0.775,5.339
	c-0.736,0.957-2.954,1.276-4.446,1.062c-1.985-0.285-2.784-1.607-2.837-3.451c-0.015-0.51-0.104-1.453,0.459-1.59
	C105.219,15.5,105.536,16.676,105.954,17.407z"/>
<path fill="#FFFFFF" d="M6.734,1.163c1.04,0.052,5.016,0.048,5.583,0.079c0.742,0.04,1.701,0.253,1.833,1.111
	c0.114,0.745-0.442,1.168-1.137,1.13c-0.91-0.05-1.818-0.118-2.728-0.171c-0.305-0.018-0.61-0.033-0.912-0.009
	c-1.324,0.104-1.32,0.17-1.283,1.543c0.061,2.229,0.033,4.46,0.061,6.69c0.033,2.563,0.09,5.126,0.125,7.69
	c0.008,0.481,0.021,1.211-0.342,1.592c-0.387,0.406-1.228,0.201-1.477-0.262c-0.2-0.369-0.363-0.818-0.357-1.229
	c0.052-4.08,0.235-8.157,0.31-12.236C6.42,6.519,6.415,5.946,6.405,5.374C6.399,4.971,6.415,4.56,6.346,4.165
	C6.225,3.468,6.041,3.322,5.32,3.336c-1.147,0.025-2.297,0.07-3.443,0.132c-0.829,0.046-1.502-0.754-1.271-1.57
	c0.126-0.45,0.508-0.471,0.896-0.487C3.119,1.341,4.737,1.259,6.734,1.163C7.773,1.214,4.737,1.259,6.734,1.163z"/>
<path fill="#FFFFFF" d="M84.947,9.116c-0.021,1.951-0.063,3.903-0.062,5.853c0.001,1.183,0.027,2.363,0.055,3.545
	c0.019,0.763,0.325,2.443-0.79,2.511c-1.497,0.089-1.258-2.858-1.212-3.771c0.115-2.289,0.292-4.576,0.373-6.867
	c0.039-1.104,0.044-2.208,0.03-3.312c-0.011-0.92,0.05-1.894-0.13-2.8C82.957,3,82.072,3.15,80.99,3.283
	c-0.67,0.081-1.34,0.166-2.012,0.21c-0.753,0.05-1.558-0.979-1.27-1.678c0.103-0.249,0.484-0.519,0.757-0.537
	c1.238-0.082,2.483-0.126,3.723-0.095c2.085,0.053,4.169,0.173,6.253,0.264C89.008,1.471,89.5,1.576,89.73,2.21
	c0.267,0.737-0.039,1.3-0.833,1.326c-0.874,0.029-1.751,0.013-2.625-0.03c-0.877-0.043-1.176,0.164-1.233,1.054
	C84.939,6.076,84.895,9.115,84.947,9.116C84.924,11.067,84.895,9.115,84.947,9.116z"/>
</svg>
