<?xml version="1.0" encoding="utf-8"?>
<!-- Generator: Adobe Illustrator 16.0.0, SVG Export Plug-In . SVG Version: 6.00 Build 0)  -->
<!DOCTYPE svg PUBLIC "-//W3C//DTD SVG 1.1//EN" "http://www.w3.org/Graphics/SVG/1.1/DTD/svg11.dtd">
<svg version="1.1" id="Layer_1" xmlns="http://www.w3.org/2000/svg" xmlns:xlink="http://www.w3.org/1999/xlink" x="0px" y="0px"
	 width="49.188px" height="22.2px" viewBox="0 0 49.188 22.2" enable-background="new 0 0 49.188 22.2" xml:space="preserve">
<path fill-rule="evenodd" clip-rule="evenodd" fill="#FFFFFF" d="M6.77,0.649c1.973,0.478,2.848,2.021,3.234,3.79
	c0.611,2.797,0.129,5.542-0.865,8.194c-0.226,0.6-0.202,1.038,0.099,1.629c0.425,0.837,0.754,1.769,0.896,2.694
	c0.41,2.681-0.782,3.81-3.309,4.356c-1.094,0.238-2.231,0.229-3.382,0.03c-1.794-0.31-2.574-1.246-2.455-3.153
	c0.156-2.523,0.528-5.031,0.706-7.554C1.905,7.67,1.923,4.697,1.602,1.734c-0.115-1.055,0.177-1.4,1.249-1.395
	C4.407,0.339,5.889,0.435,6.77,0.649z M3.574,12.774c0.578,0.338,1.089,0.147,1.58,0.086c1.294-0.167,2.003-1.005,2.392-2.136
	c0.652-1.898,0.901-3.882,0.498-5.839c-0.342-1.66-1.562-2.837-3.441-2.228C4.332,2.744,4.065,2.848,3.839,2.929
	C3.748,6.312,3.669,9.237,3.574,12.774z M3.599,14.073c-0.456,1.506-0.595,2.877-0.403,4.276c0.1,0.731,0.364,1.084,0.92,0.995
	c0.967-0.152,1.97-0.316,2.849-0.718c0.739-0.336,1.463-0.945,1.326-1.961c-0.072-0.538-0.237-1.07-0.411-1.589
	c-0.187-0.558-0.557-0.733-1.193-0.669c-0.71,0.072-1.442-0.078-2.164-0.149C4.243,14.229,3.969,14.149,3.599,14.073z"/>
<path fill-rule="evenodd" clip-rule="evenodd" fill="#FFFFFF" d="M43.791,19.484c-0.985,1.048-2.063,1.265-3.297,0.915
	c-5.44-1.854-4.505-14.165-2.391-17.942c0.606-1.201,1.884-1.831,3.211-1.624c1.125,0.176,1.785,1.02,2.272,1.902
	c0.416,0.75,0.623,1.64,0.8,2.494c0.066,0.327-0.168,1.002-0.345,1.031c-0.367,0.061-0.881-0.105-1.159-0.365
	c-0.289-0.27-0.463-0.744-0.531-1.155c-0.116-0.682-0.364-1.273-0.844-1.753c-0.638-0.634-1.325-0.518-1.658,0.302
	c-0.453,1.113-1.041,2.194-1.267,3.372c-2.144,11.204,2.468,12.334,3.528,11.201c0.54-0.583,0.839-1.443,1.096-2.229
	c0.2-0.611,0.184-1.296,0.241-1.952c0.074-0.874-0.039-1.029-0.865-1.238c-0.284-0.072-0.579-0.099-0.863-0.173
	c-0.5-0.131-0.737-0.482-0.692-0.98c0.04-0.465,0.419-0.552,0.803-0.592c1.568-0.163,3.136-0.354,4.712-0.469
	c0.496-0.037,1.022,0.073,1.508,0.217c0.458,0.138,0.706,0.552,0.677,1.029c-0.031,0.49-0.423,0.64-0.858,0.686
	c-0.438,0.046-0.877,0.086-1.311,0.158c-0.64,0.105-0.729,0.246-0.685,0.869c0.113,1.571,0.206,3.143,0.323,4.713
	c0.039,0.513,0.121,1.019,0.186,1.526c0.088,0.716-0.11,1.189-0.604,1.386c-0.574,0.226-0.984,0-1.31-0.486
	C44.29,20.059,44.068,19.824,43.791,19.484z"/>
<path fill-rule="evenodd" clip-rule="evenodd" fill="#FFFFFF" d="M24.475,13.767c-0.002-4.476,1.21-10.48,1.942-11.714
	c1.592-1.714,4.392-0.89,5.281-0.48c0.896,0.414,1.317,1.252,1.527,2.164c0.293,1.282,1.489,8.441-0.588,14.11
	c-0.679,1.855-2.372,3.293-4.163,3.404c-0.684,0.042-1.207-0.17-1.657-0.662c-1.554-1.694-2.376-3.668-2.343-5.982
	C24.479,14.24,24.475,13.873,24.475,13.767z M31.673,4.879c-0.191-1.094-0.54-1.699-1.607-2.21c-0.84-0.404-2.651,0-2.726,2.176
	c-0.354,2.389-0.636,4.788-0.917,7.188c-0.188,1.614,0.017,3.214,0.235,4.817c0.103,0.749,0.46,1.29,0.988,1.774
	c0.658,0.605,1.153,0.685,1.811,0.073c0.526-0.489,1.058-1.063,1.334-1.71C32.678,13.621,31.919,6.283,31.673,4.879z"/>
<path fill-rule="evenodd" clip-rule="evenodd" fill="#FFFFFF" d="M16.477,12.376c0,1.504-0.002,3.01,0.001,4.516
	c0,0.329-0.003,0.664,0.039,0.988c0.134,1.016,0.621,1.475,1.623,1.347c1.129-0.144,2.186,0.139,3.264,0.336
	c0.179,0.034,0.36,0.083,0.529,0.15c0.588,0.231,0.838,0.612,0.725,1.071c-0.104,0.427-0.57,0.78-1.086,0.774
	c-0.475-0.004-0.951-0.062-1.425-0.084c-1.207-0.06-2.421-0.232-3.614-0.132c-1.34,0.113-2.376-1.105-2.287-2.359
	c0.197-2.816,0.334-5.639,0.541-8.456c0.169-2.308,0.126-4.596-0.322-6.874c-0.162-0.825-0.256-1.667-0.319-2.508
	c-0.044-0.601,0.415-0.839,0.97-0.554c0.427,0.22,0.592,0.576,0.687,1.05C16.505,5.191,16.787,8.765,16.477,12.376z"/>
</svg>
