<?xml version="1.0" encoding="utf-8"?>
<!-- Generator: Adobe Illustrator 16.0.0, SVG Export Plug-In . SVG Version: 6.00 Build 0)  -->
<!DOCTYPE svg PUBLIC "-//W3C//DTD SVG 1.1//EN" "http://www.w3.org/Graphics/SVG/1.1/DTD/svg11.dtd">
<svg version="1.1" id="Layer_1" xmlns="http://www.w3.org/2000/svg" xmlns:xlink="http://www.w3.org/1999/xlink" x="0px" y="0px"
	 width="108.467px" height="22.2px" viewBox="0 0 108.467 22.2" enable-background="new 0 0 108.467 22.2" xml:space="preserve">
<path fill-rule="evenodd" clip-rule="evenodd" fill="#F1F2F2" d="M22.258,4.779c-0.483,0.776-0.339,1.542-0.351,2.25
	c-0.042,2.448-0.05,4.897-0.003,7.345c0.033,1.767,0.16,3.531,0.275,5.296c0.026,0.407,0.095,0.79-0.331,1.024
	c-0.412,0.226-0.755,0.022-1.08-0.211c-0.572-0.412-0.768-1.049-0.78-1.68c-0.029-1.412,0.04-2.825,0.071-4.238
	c0.042-1.919,0.102-3.838,0.152-5.757c0.05-1.918,0.234-3.9-0.071-5.802c-0.128-0.798-0.079-1.556,0.328-2.269
	c0.31-0.544,0.571-0.607,1.122-0.274c0.603,0.363,0.993,0.902,1.256,1.542c0.514,1.247,1.014,2.499,1.541,3.74
	c0.952,2.246,1.898,4.493,2.86,6.734c0.48,1.12,0.965,2.239,1.456,3.355c0.422,0.959,0.891,1.871,1.765,2.496
	c0.078-0.188,0.169-0.308,0.171-0.429c0.059-3.578,0.092-7.156,0.083-10.735c-0.002-0.895-0.007-1.789-0.016-2.684
	c-0.006-0.749,0.078-1.568-0.05-2.308c-0.073-0.416-0.251-0.904-0.11-1.323c0.176-0.523,1.002-0.453,1.342-0.147
	c0.417,0.374,0.728,0.86,0.659,1.497c-0.068,0.634-0.128,1.272-0.126,1.909c0.007,2.859,0.139,5.715,0.264,8.571
	c0.062,1.428,0.123,2.855,0.166,4.284c0.022,0.748,0.04,1.496,0.049,2.245c0.009,0.701-0.136,1.266-0.397,1.914
	c-0.165,0.408-0.57,0.354-0.929,0.276c-3.729,0.012-5.501-7.009-6.608-9.773c-0.828-2.068-1.561-4.174-2.346-6.261
	C22.55,5.188,22.416,5.033,22.258,4.779C21.774,5.555,22.416,5.033,22.258,4.779C21.774,5.555,22.416,5.033,22.258,4.779z"/>
<path fill-rule="evenodd" clip-rule="evenodd" fill="#F1F2F2" d="M98.504,6.157c-0.03,0.26-0.083,0.521-0.09,0.782
	c-0.062,2.5-0.128,4.999-0.205,7.498c-0.031,1.013,0.123,2.479,0.041,3.553c-0.05,0.646,0.219,2.559-1.122,2.577
	c-1.348,0.02-0.775-5.915-0.687-7.136c0.249-3.397,0.335-6.801,0.069-10.207c-0.035-0.456,0.019-0.921,0.057-1.38
	c0.052-0.622,0.516-0.923,1.014-1.122c0.503-0.2,0.792,0.23,1.049,0.546c0.216,0.266,0.353,0.606,0.48,0.93
	c0.573,1.449,1.083,2.924,1.707,4.35c0.73,1.667,1.534,3.299,2.285,4.956c0.743,1.639,1.319,3.37,2.306,4.877
	c0.527-0.551,0.52-1.132,0.521-1.681c0.015-4.077,0.013-8.156,0.005-12.234c-0.001-0.711,0.008-1.408,0.421-2.015
	c0.944,0.141,1.257,0.621,1.339,1.556c0.09,1.033,0.025,2.094,0.027,3.129c0.003,2.305,0.003,4.609-0.014,6.914
	c-0.018,2.312-0.069,4.621-0.105,6.932c-0.013,0.791,0.133,1.807-0.894,1.93c-0.831,0.101-1.712-0.312-2.103-1.064
	c-1.074-2.069-1.747-4.331-2.659-6.474c-0.974-2.285-1.979-4.544-2.907-6.848c-0.06-0.148-0.175-0.274-0.264-0.41
	C98.686,6.13,98.595,6.144,98.504,6.157C98.474,6.417,98.595,6.144,98.504,6.157C98.474,6.417,98.595,6.144,98.504,6.157z"/>
<path fill-rule="evenodd" clip-rule="evenodd" fill="#F1F2F2" d="M42.457,20.13c-0.674,0.368-1.386,0.667-2.062,1.031
	c-1.456,0.787-2.744,0.137-4.012-0.478c-1.615-0.784-1.694-2.972-1.593-4.401c0.189-2.683,0.368-5.376,0.411-8.066
	c0.037-2.259,0.439-4.425,0.348-6.686c-0.049-1.226,0.291-1.7,1.447-1.434c1.758,0.406,3.575,0.292,5.324,0.879
	c1.744,0.584,2.88,1.96,3.396,3.693C46.274,6.555,48.056,17.321,42.457,20.13z M37.632,2.485c-0.058,0.335-0.138,0.606-0.146,0.878
	c-0.048,1.594-0.119,3.188-0.107,4.782c0.022,2.981-0.002,5.992,0.187,8.967c0.046,0.726,0.027,2.205,1.138,1.996
	c1.204-0.227,2.448-0.629,3.339-1.51c1.447-1.433,2.207-3.293,2.364-5.319c0.105-1.351,0.072-2.709-0.053-4.057
	c-0.106-1.151-0.168-2.446-0.53-3.551C43.036,2.267,39.637,2.5,37.632,2.485C37.574,2.821,39.134,2.496,37.632,2.485
	C37.574,2.821,39.134,2.496,37.632,2.485z"/>
<path fill-rule="evenodd" clip-rule="evenodd" fill="#F1F2F2" d="M92.864,16.333c-0.635,1.303-1.245,2.619-1.94,3.889
	c-0.401,0.733-1.227,1.014-1.969,1.133c-1.117,0.181-2.25,0.08-3.304-0.485c-1.154-0.619-1.761-1.581-1.984-2.837
	c-0.144-0.803-0.384-1.596-0.444-2.403c-0.081-1.09-0.111-2.195-0.02-3.282c0.121-1.436,0.262-2.87,0.428-4.301
	c0.158-1.358,0.29-2.741,0.694-4.053c0.271-0.878,0.67-1.894,1.322-2.568c0.602-0.622,1.458-0.715,2.282-0.676
	c0.844,0.041,1.695,0.15,2.518,0.339c1.352,0.311,2.02,1.404,2.479,2.561c0.301,0.76,0.592,1.534,0.705,2.347
	c0.112,0.8,0.087,4.089,0.042,4.937c-0.046,0.855-0.108,1.711-0.203,2.563C93.416,13.968,93.126,15.793,92.864,16.333z
	 M84.856,11.858c-0.062,1.507,0.125,3.012,0.435,4.484c0.263,1.25,0.523,2.684,1.969,3.032c1.256,0.304,2.3-0.833,2.843-1.823
	c0.674-1.227,1.116-2.596,1.407-3.96c0.323-1.514,0.402-3.02,0.332-4.562c-0.066-1.489-0.14-2.952-0.566-4.391
	c-0.398-1.34-1.247-2.079-2.662-2.159c-1.058-0.06-1.845,0.418-2.26,1.391c-0.413,0.969-0.754,1.997-0.929,3.034
	C85.148,8.54,85.036,10.206,84.856,11.858C84.772,13.919,85.036,10.206,84.856,11.858C84.781,13.695,85.036,10.206,84.856,11.858z"
	/>
<path fill-rule="evenodd" clip-rule="evenodd" fill="#F1F2F2" d="M57.095,10.187c0,1.486-0.085,2.973-0.041,4.46
	c0.022,0.772,0.081,1.545,0.205,2.31c0.09,0.549,0.168,1.104,0.565,1.522c0.617,0.651,1.686,0.871,2.521,0.566
	c1.059-0.386,1.771-1.742,1.921-2.793c0.178-1.247,0.468-2.444,0.463-3.711c-0.003-0.647,0.17-1.25,0.231-1.889
	c0.064-0.677,0.043-1.371,0.053-2.049c0.018-1.375,0.014-2.75,0.014-4.125c0-0.661,0.001-1.322,0.005-1.982
	c0.003-0.428,0.058-0.868,0.476-1.089c0.876-0.464,1.825,0.593,1.936,1.363c0.076,0.534-0.021,1.093-0.061,1.626
	c-0.051,0.681-0.098,1.363-0.144,2.044c-0.175,2.592-0.299,5.195-0.606,7.775c-0.144,1.205-0.347,2.406-0.678,3.575
	c-0.313,1.106-0.711,2.043-1.628,2.778c-0.338,0.271-0.672,0.555-1.062,0.748c-0.498,0.246-0.939,0.141-1.466,0.06
	c-1.103-0.169-2.237-0.383-3.129-1.104c-1.719-1.391-1.698-3.646-1.647-5.665c0.071-2.826,0.111-5.658,0.109-8.486
	c0-1.376-0.104-2.753-0.178-4.13c-0.036-0.678,0.452-1.068,1.07-0.798c0.574,0.25,0.87,0.729,0.89,1.345
	c0.068,2.124,0.12,4.247,0.173,6.371c0.011,0.426,0.001,0.852,0.001,1.278C57.091,10.187,57.093,10.187,57.095,10.187
	C57.095,11.89,57.093,10.187,57.095,10.187C57.095,12.665,57.093,10.187,57.095,10.187z"/>
<path fill-rule="evenodd" clip-rule="evenodd" fill="#F1F2F2" d="M69.772,8.164c-0.14,1.74,0.083,2.489,2.358,3.018
	c1.906,0.444,3.187,1.534,4.097,3.092c0.753,1.29,0.884,2.745,0.295,4.19c-0.08,0.196-0.189,0.386-0.238,0.59
	c-0.205,0.871-0.732,1.298-1.589,1.64c-1.211,0.482-2.404,0.801-3.703,0.837c-2.841,0.079-4.707-3.059-3.378-5.553
	c0.233-0.437,0.644-0.548,1.024-0.179c0.372,0.361,0.437,0.961,0.471,1.45c0.037,0.525,0.021,1.078,0.307,1.545
	c0.303,0.494,0.868,0.671,1.416,0.722c1.326,0.125,2.68-0.618,3.372-1.74c0.784-1.271,0.506-3.02-0.783-3.86
	c-0.685-0.447-1.596-0.428-2.337-0.77c-0.729-0.336-1.375-0.823-1.964-1.362c-0.58-0.53-1.114-1.065-1.319-1.848
	c-0.201-0.773-0.117-1.589-0.04-2.373c0.038-0.386,0.107-0.771,0.133-1.157c0.103-1.518,0.683-2.896,1.288-4.251
	c0.525-1.175,1.358-1.558,2.661-1.311c0.652,0.124,1.316,0.301,1.911,0.585c1.222,0.585,1.507,1.721,1.46,2.945
	c-0.032,0.851-0.756,1.164-1.421,0.62c-0.341-0.278-0.58-0.697-0.815-1.083c-0.242-0.396-0.408-0.856-0.969-0.871
	c-0.596-0.016-0.974,0.288-1.257,0.812C70.021,5.204,69.876,6.677,69.772,8.164C69.632,9.904,69.876,6.677,69.772,8.164
	C69.632,9.904,69.876,6.677,69.772,8.164z"/>
<path fill-rule="evenodd" clip-rule="evenodd" fill="#F1F2F2" d="M2.445,2.457c0,0.742,0.006,1.306-0.001,1.869
	c-0.025,2.127-0.06,4.254-0.081,6.381c-0.01,1.014,0.239,1.236,1.266,1.152c1.025-0.084,2.049-0.219,3.075-0.245
	c0.589-0.016,1.313,0.28,1.519,0.878c0.259,0.756-0.346,1.205-1.017,1.268c-1.093,0.101-2.19,0.162-3.287,0.235
	c-0.354,0.021-0.712-0.041-1.061,0.045c-0.543,0.134-0.555,0.69-0.584,1.163c-0.083,1.33,0.052,2.704,0.091,4.037
	c0.02,0.699,0.109,2.455-1.124,1.879c-1.063-0.497-0.796-1.993-0.756-2.943c0.049-1.202,0.207-2.402,0.196-3.604
	c-0.026-2.867,0.056-5.717,0.208-8.58c0.074-1.393-0.018-2.771-0.113-4.16C0.753,1.49,0.705,1.024,0.942,0.74
	c0.233-0.28,0.685-0.271,1.014-0.263c1.701,0.04,3.4,0.131,5.101,0.164c0.669,0.012,1.342-0.064,2.012-0.122
	c0.812-0.07,1.53,0.625,1.462,1.447c-0.041,0.495-0.406,0.666-0.817,0.672C8.898,2.652,8.082,2.598,7.267,2.591
	C5.659,2.578,4.051,2.555,2.445,2.457C2.445,3.121,3.304,2.509,2.445,2.457C2.445,3.198,3.387,2.514,2.445,2.457z"/>
<path fill-rule="evenodd" clip-rule="evenodd" fill="#F1F2F2" d="M13.92,19.566c0.126-2.303,0.3-4.356,0.335-6.41
	c0.038-2.125-0.063-4.253-0.093-6.379c-0.023-1.631-0.029-3.263-0.049-4.894c-0.005-0.457,0.314-0.922,0.82-0.811
	c0.687,0.151,0.756,1.128,0.789,1.685c0.087,1.486,0.181,2.973,0.219,4.461c0.076,2.948,0.183,5.905,0.115,8.854
	c-0.031,1.359-0.039,2.75-0.184,4.103c-0.037,0.349-0.108,0.757-0.317,1.047c-0.274,0.381-0.916,0.112-1.208-0.12
	C13.771,20.64,13.922,19.946,13.92,19.566C14.047,17.263,13.922,19.946,13.92,19.566C14.047,17.263,13.922,19.946,13.92,19.566z"/>
</svg>
