<?xml version="1.0" encoding="utf-8"?>
<!-- Generator: Adobe Illustrator 16.0.0, SVG Export Plug-In . SVG Version: 6.00 Build 0)  -->
<!DOCTYPE svg PUBLIC "-//W3C//DTD SVG 1.1//EN" "http://www.w3.org/Graphics/SVG/1.1/DTD/svg11.dtd">
<svg version="1.1" id="Layer_1" xmlns="http://www.w3.org/2000/svg" xmlns:xlink="http://www.w3.org/1999/xlink" x="0px" y="0px"
	 width="85.934px" height="22.2px" viewBox="0 0 85.934 22.2" enable-background="new 0 0 85.934 22.2" xml:space="preserve">
<g>
	<path fill="#FFFFFF" d="M5.231,1.358c1.413-0.27,2.675,0.243,3.855,1.048C9.14,2.443,9.209,2.481,9.232,2.535
		c0.325,0.783,0.711,1.55,0.944,2.361c0.208,0.723,0.311,1.493,0.336,2.245c0.018,0.549-0.179,1.102-0.258,1.657
		c-0.211,1.469-0.29,2.958-0.604,4.414c-0.162,0.748-0.371,1.432-0.282,2.207c0.081,0.697,0.316,1.361,0.521,2.029
		c0.222,0.727,0.507,1.434,0.763,2.151c0.044,0.124,0.101,0.248,0.119,0.378c0.056,0.357-0.038,0.723-0.388,0.822
		c-0.789,0.227-1.317-0.746-1.579-1.334c-0.408-0.922-0.591-1.934-0.943-2.875c-0.321-0.862-0.509-0.942-1.331-0.506
		c-0.796,0.422-1.603,0.317-2.425,0.25c-0.823-0.067-1.017,0.069-1.084,0.867c-0.054,0.625-0.039,1.256-0.082,1.881
		C2.91,19.51,2.85,19.936,2.773,20.356C2.706,20.719,2.462,21,2.094,20.958c-0.712-0.08-1.115-0.609-1.105-1.312
		c0.018-1.201,0.2-2.405,0.331-3.601c0.141-1.269,0.284-2.535,0.419-3.805c0.17-1.579,0.348-3.157,0.486-4.738
		c0.127-1.449,0.235-2.9,0.299-4.354c0.054-1.191,0.646-1.782,1.859-1.753C4.646,1.402,4.911,1.374,5.231,1.358
		C6.644,1.089,4.911,1.374,5.231,1.358z M3.419,11.595c-0.067,0.834-0.146,1.464-0.16,2.093c-0.018,0.689,0.223,0.896,0.914,0.796
		c0.391-0.058,0.793-0.138,1.151-0.298c1.112-0.498,2.115-1.148,2.449-2.423c0.413-1.574,0.794-3.202,0.851-4.834
		c0.04-1.163,0.005-3.228-1.504-3.462c-0.707-0.11-1.456-0.03-2.17,0.075c-0.267,0.039-0.637,0.347-0.701,0.6
		C3.989,5.129,3.753,6.136,3.656,7.15C3.51,8.695,3.485,10.25,3.419,11.595C3.352,12.429,3.485,10.25,3.419,11.595z"/>
	<path fill="#FFFFFF" d="M54.903,19.679c0.012,0.493-0.389,0.961-0.89,1.044c-0.561,0.09-1.226-0.301-1.375-0.903
		c-0.229-0.935-0.145-2.019-0.527-2.905c-0.285-0.66-0.998-0.766-1.646-0.803c-0.33-0.02-0.665-0.003-0.993,0.036
		c-0.853,0.103-1.701,0.246-2.556,0.33c-0.507,0.049-0.78,0.286-0.888,0.771c-0.181,0.806-0.368,1.607-0.565,2.41
		c-0.077,0.313-0.178,0.623-0.279,0.93c-0.148,0.453-0.413,0.775-0.946,0.67c-1.365-0.268-0.723-2.129-0.505-2.967
		c0.362-1.4,0.77-2.793,1.187-4.176c0.327-1.078,0.708-2.139,1.043-3.213c0.431-1.384,0.857-2.77,1.284-4.155
		c0.222-0.723,0.441-1.446,0.663-2.17c0.21-0.69,0.352-1.363,0.508-2.064c0.058-0.257,0.089-0.554,0.24-0.75
		c0.38-0.494,0.761-1.147,1.486-0.682c0.663,0.424,0.739,1.54,0.993,2.211c0.641,1.692,1.325,3.383,1.663,5.167
		c0.169,0.898,0.184,1.809,0.315,2.712c0.145,1,0.378,1.987,0.577,2.979c0.333,1.655,0.719,3.299,1.082,4.947
		C54.815,19.292,54.861,19.485,54.903,19.679C54.914,20.172,54.861,19.485,54.903,19.679z M51.754,13.647
		c0,0-0.228-1.913-0.346-2.761c-0.288-2.042-0.482-4.188-1.55-5.991c-0.99,1.4-2.828,8.119-2.524,9.307
		C48.738,14.024,50.161,13.846,51.754,13.647C51.621,12.583,51.754,13.647,51.754,13.647z"/>
	<path fill="#FFFFFF" d="M67.983,12.797c0.976,0,1.862,0.004,2.748-0.002c0.494-0.002,0.993-0.069,1.48-0.017
		c0.918,0.099,1.43,0.979,1.195,1.851c-0.121,0.453-0.498,0.494-0.907,0.479c-0.661-0.024-1.321-0.081-1.983-0.123
		c-0.032-0.002-0.064-0.013-0.098-0.013c-2.245-0.029-2.797,0.158-2.547,2.443c0.162,1.48,0.119,1.469,1.603,1.332
		c0.692-0.064,1.392-0.043,2.087-0.082c0.625-0.033,1.249-0.08,1.872-0.151c0.843-0.099,1.412,0.288,1.584,1.112
		c0.092,0.449-0.178,0.959-0.63,1.088c-0.315,0.091-0.653,0.146-0.979,0.136c-1.947-0.054-3.891-0.043-5.828,0.222
		c-1.03,0.139-1.827-0.555-1.808-1.599c0.016-0.774,0.163-1.536,0.263-2.302c0.104-0.805,0.149-1.616,0.201-2.426
		c0.13-2.054,0.283-4.104,0.372-6.16c0.086-1.978,0.259-3.988-0.124-5.946c-0.056-0.286-0.03-0.6,0.019-0.89
		c0.071-0.419,0.371-0.614,0.787-0.593c1.979,0.102,3.96,0.221,5.938,0.309c0.505,0.021,0.893,0.188,1.206,0.58
		c0.476,0.592,0.246,1.381-0.484,1.547c-0.286,0.063-0.595,0.034-0.893,0.032c-1.195-0.007-2.389-0.037-3.584-0.025
		c-0.769,0.007-1.07,0.256-1.114,0.978c-0.155,2.578-0.278,5.157-0.411,7.736C67.94,12.444,67.965,12.575,67.983,12.797
		C68.958,12.797,67.965,12.575,67.983,12.797z"/>
	<path fill="#FFFFFF" d="M37.099,13.105c0.529-0.03,1.059-0.089,1.586-0.083c0.653,0.008,1.34,0.255,1.502,0.955
		c0.161,0.699-0.109,1.357-0.89,1.355c-0.362,0-0.726-0.105-1.085-0.104c-0.958,0.009-1.917,0.021-2.87,0.1
		c-0.859,0.069-0.581,1.942-0.549,2.469c0.03,0.516,1.075,0.613,1.421,0.597c1.091-0.05,2.186-0.11,3.269-0.241
		c0.496-0.061,0.855,0.081,1.146,0.422c0.494,0.578,0.271,1.395-0.457,1.549c-0.838,0.18-1.697,0.272-2.551,0.36
		c-1.118,0.118-2.245,0.154-3.359,0.302c-1.078,0.141-1.517-0.099-1.627-1.166c-0.1-0.963-0.023-1.875,0.098-2.828
		c0.136-1.059,0.124-2.127,0.155-3.19c0.094-3.347,0.165-6.694,0.255-10.041c0.012-0.463,0.063-0.927,0.133-1.385
		c0.052-0.332,0.275-0.546,0.623-0.526c1.135,0.065,2.268,0.008,3.4-0.015c0.662-0.013,1.327-0.049,1.985-0.113
		c0.568-0.057,1.226,0.424,1.34,1c0.122,0.618-0.614,1.079-1.146,1.095c-0.762,0.02-1.524,0.005-2.284,0.051
		c-0.597,0.037-1.323-0.01-1.884,0.239c-0.428,0.188-0.485,0.661-0.512,1.078c-0.07,1.081-0.044,2.174-0.062,3.257
		c-0.021,1.352-0.141,2.745-0.033,4.093c0.051,0.623,0.167,0.729,0.802,0.742c0.53,0.01,1.061,0.002,1.592,0.002
		C37.098,13.086,37.099,13.094,37.099,13.105C37.627,13.075,37.099,13.094,37.099,13.105z"/>
	<path fill="#FFFFFF" d="M76.975,14.918c0.43,0.143,0.597,0.474,0.698,0.886c0.137,0.563,0.278,1.167,0.502,1.704
		c0.266,0.638,0.761,0.994,1.488,0.918c0.494-0.053,1-0.063,1.473-0.194c0.994-0.274,1.405-1.034,1.214-2.063
		c-0.282-1.533-1.049-2.678-2.334-3.635c-1.199-0.892-2.117-2.086-2.28-3.609c-0.197-1.858,0.368-3.746,1.01-5.467
		c0.529-1.424,2.597-1.843,3.871-1.329c0.423,0.17,0.761,0.456,1.104,0.748c0.367,0.311,0.791,0.604,1.029,1.033
		c0.232,0.415,0.173,0.829,0.161,1.282C84.894,5.797,84.96,6.4,84.941,7.005c-0.01,0.337-0.149,0.718-0.559,0.703
		c-0.272-0.01-0.572,0.024-0.822-0.111c-0.325-0.177-0.443-0.664-0.494-1.002c-0.108-0.783,0.099-2.38-1.047-2.531
		c-0.798-0.105-1.81,0.535-1.99,1.343c-0.186,0.836-0.272,1.694-0.411,2.542c-0.215,1.322,0.305,2.198,1.397,3.004
		c1.795,1.321,3.332,3.318,3.505,5.613c0.156,2.108-1.33,3.867-3.442,4.026c-0.721,0.056-1.455,0.093-2.164-0.006
		c-0.464-0.063-0.979-0.293-1.321-0.608C76.3,18.776,75.686,16.352,76.975,14.918C77.631,15.135,76.861,15.045,76.975,14.918z"/>
	<path fill="#FFFFFF" d="M15.371,12.993c0.815,0.041,1.542,0.082,2.266,0.11c0.609,0.022,1.09,0.409,1.258,0.995
		c0.167,0.578-0.213,1.027-0.795,1.053c-0.398,0.018-0.791-0.087-1.188-0.086c-0.431,0.002-0.858,0.057-1.285,0.104
		c-0.385,0.043-0.585,0.281-0.63,0.658c-0.069,0.592-0.156,1.186-0.195,1.779c-0.046,0.705,0.167,0.997,0.893,1.032
		c0.79,0.036,1.585-0.062,2.38-0.083c0.49-0.014,0.994-0.062,1.473,0.021c1.056,0.189,0.957,1.834-0.125,1.91
		c-1.117,0.081-2.239,0.121-3.359,0.176c-0.694,0.033-1.391,0.09-2.086,0.094c-1.047,0.008-1.41-0.354-1.298-1.402
		c0.14-1.322,0.403-2.628,0.538-3.951c0.14-1.377,0.327-2.746,0.477-4.124c0.146-1.318,0.225-2.636,0.157-3.961
		c-0.069-1.379-0.262-2.796-0.218-4.176c0.036-1.118,0.31-1.388,1.428-1.42c1.153-0.034,2.306-0.077,3.459-0.08
		c0.281,0,0.585,0.097,0.84,0.227c0.433,0.219,0.787,0.57,0.638,1.087c-0.156,0.536-0.707,0.819-1.241,0.774
		c-0.657-0.057-1.32-0.18-1.972-0.139c-1.147,0.073-1.321,0.252-1.393,1.37c-0.056,0.885-0.008,1.777-0.002,2.667
		c0.005,0.757,0.042,1.517,0.015,2.273C15.368,10.917,15.264,11.93,15.371,12.993C16.188,13.034,15.264,11.93,15.371,12.993z"/>
	<path fill="#FFFFFF" d="M24.04,1.75c0.687,0.22,1.148,0.734,1.173,1.469c0.036,1.095-0.12,2.21-0.193,3.302
		c-0.083,1.252-0.177,2.508-0.308,3.756c-0.127,1.215-0.259,2.431-0.391,3.646c-0.062,0.574-0.125,1.15-0.187,1.726
		c-0.061,0.573-0.181,1.171-0.131,1.748c0.092,1.047,0.394,1.317,1.462,1.304c0.996-0.014,1.992-0.025,2.985-0.072
		c0.752-0.035,1.896,0.777,1.471,1.631c-0.189,0.383-0.492,0.492-0.895,0.49c-1.16-0.008-2.32-0.002-3.48,0.018
		c-0.498,0.007-0.994,0.061-1.489,0.094c-1.265,0.085-2.09-0.602-2.023-1.861c0.077-1.482,0.291-2.961,0.47-4.438
		c0.224-1.848,0.469-3.691,0.703-5.537c0.233-1.85,0.544-3.721,0.47-5.589C23.656,2.875,23.583,2.309,24.04,1.75
		C24.878,2.019,23.583,2.309,24.04,1.75z"/>
	<path fill="#FFFFFF" d="M62.9,6.958c-0.56-0.337-0.99-0.748-1.189-1.39c-0.126-0.406-0.305-0.799-0.489-1.184
		c-0.227-0.476-0.582-0.815-1.147-0.813c-0.586,0.002-0.866,0.426-1.101,0.877c-0.557,1.078-0.829,2.229-0.819,3.439
		c0.005,0.511,0.029,1.02,0.054,1.53c0.021,0.461-0.014,0.956,0.07,1.41c0.156,0.839,1,1.132,1.723,1.343
		c2.273,0.662,4.308,2.424,4.194,4.942c-0.049,1.095-0.332,2.181-1.169,2.935c-0.693,0.625-1.72,1.068-2.667,0.893
		c-1.012-0.189-2.051-0.279-2.76-1.175c-0.491-0.622-0.798-1.315-0.688-2.11c0.034-0.25,0.254-0.535,0.473-0.666
		c0.096-0.058,0.434,0.2,0.598,0.375c0.18,0.186,0.277,0.448,0.426,0.666c0.473,0.698,1.154,0.995,1.969,0.906
		c0.789-0.087,1.331-0.547,1.604-1.305c0.616-1.7-0.048-3.006-1.975-3.488c-0.449-0.113-0.93-0.124-1.362-0.28
		c-1.515-0.55-2.383-1.638-2.465-3.265c-0.117-2.297,0.03-4.564,0.794-6.77c0.852-2.452,3.064-2.65,4.696-1.54
		c1.344,0.915,1.819,2.192,1.748,3.749C63.4,6.421,63.302,6.747,62.9,6.958C62.34,6.62,63.302,6.747,62.9,6.958z"/>
</g>
</svg>
