<?xml version="1.0" encoding="utf-8"?>
<!-- Generator: Adobe Illustrator 16.0.0, SVG Export Plug-In . SVG Version: 6.00 Build 0)  -->
<!DOCTYPE svg PUBLIC "-//W3C//DTD SVG 1.1//EN" "http://www.w3.org/Graphics/SVG/1.1/DTD/svg11.dtd">
<svg version="1.1" id="Layer_1" xmlns="http://www.w3.org/2000/svg" xmlns:xlink="http://www.w3.org/1999/xlink" x="0px" y="0px"
	 width="85.934px" height="22.2px" viewBox="0 0 85.934 22.2" enable-background="new 0 0 85.934 22.2" xml:space="preserve">
<path fill-rule="evenodd" clip-rule="evenodd" fill="#FFFFFF" d="M24.398,13.344c-0.095,1.208-0.319,5.785-0.415,6.875
	c-0.079,0.895-0.151,1.928-1.295,1.907c-0.616-0.012-1.095-0.18-1.314-0.851c-0.636-1.937-0.123-4.012,0.011-5.989
	c0.145-2.16,0.343-4.312,0.5-6.47c0.141-1.948,0.147-3.926,0.221-5.866c0.054-1.39,2.074-1.835,2.542-1.482
	c0.652,0.299,1.966,5.772,2.864,8.044c0.942,2.38,2.418,4.791,3.37,7.17c0.242-1.171,0.219-7.526,0.254-9.991
	c0.019-1.326-0.044-4.434,0.362-5.533c0.265-0.717,1.708-0.856,2.042-0.077C33.626,1.28,33.92,2.26,33.929,2.47
	c0.172,3.982-0.357,15.899-0.71,17.817c-0.547,2.966-2.654,1.285-3.272,0.642c-0.605-0.632-2.582-4.44-2.925-5.449
	c-0.347-1.026-2.226-6.178-2.572-6.413C24.452,10.912,24.49,12.188,24.398,13.344z"/>
<path fill-rule="evenodd" clip-rule="evenodd" fill="#FFFFFF" d="M52.985,15.868c-0.357-1.14-2.285-0.626-3.271-0.617
	c-0.587,1.39-1.205,2.792-1.555,4.266c-0.216,0.907-0.425,2.324-1.481,2.634c-1.243,0.365-1.683-1.029-1.666-2.003
	c0.012-0.786,0.354-1.495,0.587-2.229c0.279-0.87,0.501-1.756,0.786-2.625c1.071-3.266,2.427-6.413,3.172-9.781
	c0.176-0.792,0.329-1.592,0.427-2.397c0.068-0.561,0.088-1.155,0.317-1.68c0.467-1.066,2.128-1.368,2.734-0.271
	c0.962,1.746,1.044,3.874,1.354,5.803c0.373,2.32,0.734,4.642,1.1,6.963c0.168,1.065,0.283,2.169,0.539,3.217
	c0.188,0.756,0.509,1.474,0.646,2.243c0.136,0.735,0.059,1.511-0.591,1.982c-0.637,0.462-1.524,0.402-1.966-0.292
	C53.581,20.236,53.23,16.644,52.985,15.868z M51.711,7.392c-0.216,1.533-1.086,2.911-1.044,4.498
	c1.218,0.255,1.021,0.382,1.858-0.164C52.237,10.339,52.09,8.982,51.711,7.392C51.495,8.924,52.531,8.726,51.711,7.392
	C51.495,8.924,52.531,8.726,51.711,7.392z"/>
<path fill-rule="evenodd" clip-rule="evenodd" fill="#FFFFFF" d="M20.896,7.471c0.363,2.402-0.2,4.801-0.669,7.146
	c-0.214,1.074-0.307,2.174-0.56,3.237c-0.258,1.087-0.838,1.988-1.5,2.872c-0.873,1.163-2.027,1.97-3.531,1.854
	c-1.414-0.108-2.798-0.934-3.321-2.293c-1.066-2.769-1.191-5.607-0.955-8.497c0.123-1.51,0.228-3.053,0.576-4.532
	c0.356-1.514,0.872-3.018,1.412-4.475c0.35-0.945,0.717-2.186,2.23-2.528c0.734-0.166,1.535-0.252,2.253-0.029
	c0.746,0.23,1.883,0.742,2.445,1.408c0.342,0.406,0.49,1.075,0.733,1.66c0.405,0.973,0.636,2.001,0.771,3.044
	c0.077,0.601,0.28,1.345,0.248,1.948c0.015-0.273-0.196-0.65-0.135-0.903C20.886,7.406,20.894,7.447,20.896,7.471
	C21.297,10.121,20.846,6.866,20.896,7.471z M13.292,17.25c0.183,0.851,0.644,1.683,1.546,1.978c1.05,0.343,1.91-1.303,2.118-2.094
	c0.206-0.78,0.241-1.64,0.359-2.438c0.146-0.99,0.292-1.983,0.417-2.976c0.212-1.704,0.405-3.446,0.044-5.144
	c-0.29-1.365-0.832-3.087-2.456-3.17c-0.699-0.036-0.732,0.617-0.91,1.098C13.37,7.32,13.01,15.937,13.292,17.25z"/>
<path fill-rule="evenodd" clip-rule="evenodd" fill="#FFFFFF" d="M78.535,3.734c-0.729,0.487-4.367,0.516-4.604,0.533
	c-0.159,0.01-0.319,0.02-0.477,0.028c-0.229-0.065-0.317,0.018-0.264,0.25c-0.222,2.109-0.354,4.228-0.426,6.348
	c-0.071,2.047-0.092,4.095-0.221,6.141c-0.064,1.022-0.15,2.041-0.273,3.06c-0.095,0.801-0.262,1.576-1.162,1.788
	c-0.566,0.133-0.938,0.031-1.268-0.438c-0.413-0.585-0.782-1.176-0.603-1.931c0.65-2.721,0.621-5.566,0.811-8.343
	c0.094-1.39,0.188-2.779,0.311-4.167c0.059-0.687,0.11-1.375,0.088-2.063c-0.018-0.519-0.163-0.85-0.734-0.854
	c-0.769-0.008-1.541-0.062-2.307-0.157c-0.735-0.091-1.37-0.558-1.596-1.279c-0.167-0.538-0.201-1.346,0.34-1.69
	c0.679-0.433,1.807-0.07,2.549-0.018c1.082,0.077,7.874-0.103,8.617,0.094C78.575,1.366,78.617,2.634,78.535,3.734
	C77.686,4.3,78.698,1.546,78.535,3.734C77.795,4.229,78.698,1.546,78.535,3.734z"/>
<path fill-rule="evenodd" clip-rule="evenodd" fill="#FFFFFF" d="M42.338,13.928c-0.034,1.605,0.416,8.139-1.104,8.364
	c-0.572,0.085-1.275-0.344-1.629-0.969c-0.262-0.461-0.479-0.977-0.434-1.517c0.046-0.562,0.128-1.097,0.123-1.666
	c-0.014-1.243,0.32-6.195,0.267-7.453c-0.057-1.344,0.552-6.331-0.184-6.827c-0.579-0.389-1.417-0.246-2.071-0.241
	c-0.695,0.004-1.586-0.042-2.126-0.538c-0.76-0.699-0.783-2.51,0.275-2.563c3.676-0.186,5.37-0.176,8.38-0.021
	c1,0.052,2.104,0.143,2.936,0.759c0.663,0.491,1.741,2.26,0.489,2.73c-0.679,0.254-1.35,0.275-2.06,0.179
	c-0.896-0.12-1.645-0.138-2.691-0.233C42.253,6.703,42.411,10.597,42.338,13.928z"/>
<path fill-rule="evenodd" clip-rule="evenodd" fill="#FFFFFF" d="M4.453,5.501C4.248,7.33,4.048,9.157,3.871,10.988
	c-0.181,1.864-0.38,3.749-0.142,5.618c0.148,1.16,1.484,2.474,2.73,1.727c0.495-0.296,0.832-0.788,1.079-1.256
	c0.303-0.575,0.795-0.099,1.136,0.191c1.157,0.982,0.595,2.551-0.184,3.671c-0.833,1.198-2.308,1.682-4.003,1.322
	C-1.282,21.042,1.76,5.138,2.139,3.092c0.263-1.421,1.403-2.958,3.01-2.771c1.656,0.194,3.192,0.856,4.156,2.375
	c0.635,1-0.418,3.116-1.415,2.286C6.946,4.194,5.37,1.967,4.453,5.501z"/>
<path fill-rule="evenodd" clip-rule="evenodd" fill="#FFFFFF" d="M64.749,18.088c0.021,0.794-0.199,1.727-0.673,2.375
	c-0.894,1.228-2.645,1.579-3.958,0.835c-1.704-0.962-2.573-2.597-2.713-4.502c-0.291-3.983,0.28-17.208,4.869-15.677
	c0.429,0.143,0.93,0.173,1.277,0.421c0.521,0.366,1.146,0.871,1.281,1.526c0.193,0.928-0.659,1.042-1.315,1.206
	C63.451,4.29,63.364,4.228,63.284,4.2c-1.516-0.558-2.038-0.348-2.413,1.261c-0.218,0.943-2.42,8.376-0.186,12.067
	c0.513,0.845,1.245,0.939,1.818,0.157c0.265-0.36,0.736-1.212,1.277-1.077C64.324,16.745,64.725,17.152,64.749,18.088z"/>
</svg>
