<?xml version="1.0" standalone="no"?>
<!DOCTYPE svg PUBLIC "-//W3C//DTD SVG 1.1//EN" "http://www.w3.org/Graphics/SVG/1.1/DTD/svg11.dtd" >
<svg>
<metadata>
Created by FontForge 20090914 at Wed Jun 17 19:24:17 2015
 By www-data
SIL Open Font License
</metadata>
<defs>
<font id="SALES" horiz-adv-x="368" >
  <font-face 
    font-family="SALES"
    font-weight="400"
    font-stretch="normal"
    units-per-em="1024"
    panose-1="0 0 0 0 0 0 0 0 0 0"
    ascent="819"
    descent="-205"
    x-height="766.996"
    cap-height="801"
    bbox="-4.99805 2 1002 860"
    underline-thickness="1"
    underline-position="-2"
    unicode-range="U+000D-U+2014"
  />
<missing-glyph horiz-adv-x="676" 
d="M184 102h308v635h-308v-159v-476zM133 788h410v-737h-410v737z" />
    <glyph glyph-name=".notdef" horiz-adv-x="676" 
d="M184 102h308v635h-308v-159v-476zM133 788h410v-737h-410v737z" />
    <glyph glyph-name=".null" horiz-adv-x="0" 
 />
    <glyph glyph-name=".null" horiz-adv-x="0" 
 />
    <glyph glyph-name="nonmarkingreturn" unicode="&#xd;" horiz-adv-x="0" 
 />
    <glyph glyph-name="space" unicode=" " 
 />
    <glyph glyph-name="exclam" unicode="!" horiz-adv-x="184" 
d="M95 270c-11.333 0.666992 -20.999 3.66895 -28.999 9.00195c-7.33301 5.33301 -13.333 12.666 -18 21.999c-10 20 -15 44.667 -15 74v7c0.666992 33.333 1.66699 60.666 3 81.999c2.66699 56 8.33398 113 17.001 171c8 58.667 12.333 111.334 13 158.001
c1.33301 1.33301 2.33301 3.66602 3 6.99902c0 3.33301 1.66699 5.33301 5 6c32.667 -2 52 -12 58 -30c6.66699 -18.667 9.66699 -45.334 9 -80.001c-0.666992 -64.667 -2.33398 -132.667 -5.00098 -204s-6.33398 -139.666 -11.001 -204.999
c-4.66699 -3.33301 -10.334 -5.33301 -17.001 -6c-7.33301 -1.33301 -11.666 -5 -12.999 -11zM96.001 67.002c9.33301 0.666992 17.001 3.00195 23.001 7.00195c6 3.33301 10.667 7.66602 14 12.999c2.66699 4 4.66699 8.33301 6 13c3.33301 13.333 1 28.333 -7 45
c-11.333 22.667 -27.333 36 -48 40h-8c-4.66699 0 -9.33398 -0.666992 -14.001 -2c-8 -2 -16 -6 -24 -12c-4 -12 -6 -23.333 -6 -34c0 -14.667 3.66699 -28.334 11 -41.001c11.333 -19.333 27 -29 47 -29h6z" />
    <glyph glyph-name="numbersign" unicode="#" horiz-adv-x="574" 
d="M223 306c-0.666992 -14.667 0.333984 -28.6689 3.00098 -42.002s1 -26.333 -5 -39c-3.33301 -3.33301 -7.33301 -6.33301 -12 -9c-8 -4 -19 -6.33301 -33 -7h-9c-16.667 0 -31.334 2.33301 -44.001 7c-1.33301 14 -2 29 -2 45v15c0.666992 20.667 1.66699 42 3 64
c2.66699 40.667 5 81.334 7 122.001c2 40 0.333008 75.667 -5 107c-4.66699 24 -0.666992 44.667 12 62c12 15.333 30.667 23 56 23h9c10 -14 17.333 -29.667 22 -47c4.66699 -18 7.66699 -37 9 -57c2.66699 -37.333 1.66699 -77.666 -3 -120.999
c-5.33301 -42.667 -8 -83.667 -8 -123zM140.001 294.998c-14 0.666992 -28 -0.00292969 -42 -2.00293c-13.333 -2 -26.333 0.333008 -39 7c-9.33301 8.66699 -14 23.334 -14 44.001v4c0 19.333 2.66699 36 8 50h25c11.333 0 23 -0.333008 35 -1
c20.667 -0.666992 42 -2 64 -4c40.667 -4 81 -7.66699 121 -11c40.667 -3.33301 76.667 -2.66602 108 2.00098c24 4 44.667 -1 62 -15c14 -11.333 21 -28.666 21 -51.999v-13c-14.667 -10 -30.667 -17 -48 -21c-18 -4 -37 -6.33301 -57 -7h-20c-32 0 -65.667 2.33301 -101 7
c-42.667 6.66699 -83.667 10.667 -123 12zM396.001 307.995c0 -14.667 1.00293 -28.6689 3.00293 -42.002c2.66699 -13.333 1 -26.333 -5 -39c-8.66699 -9.33301 -23.334 -14.666 -44.001 -15.999h-10c-16.667 0 -31.334 2.33301 -44.001 7c-0.666992 14 -1 29 -1 45v15
c0 20.667 0.666992 42 2 64c2.66699 40.667 5 81.334 7 122.001c2 40 0.333008 75.667 -5 107c-4.66699 24 -0.333984 44.667 12.999 62c11.333 15.333 30 23 56 23h9c18 -25.333 28 -57 30 -95c0.666992 -14 1 -28 1 -42c0 -25.333 -1 -51.333 -3 -78l-6 -67
c-2 -22.667 -3 -44.667 -3 -66zM394.004 542.993c14 0 27.998 1.33789 41.998 4.00488c13.333 2 26.333 0 39 -6c9.33301 -8.66699 14.333 -23.334 15 -44.001v-9c0.666992 -17.333 -1.66602 -32.333 -6.99902 -45c-14.667 -0.666992 -30.334 -1 -47.001 -1
c-21.333 0 -44 0.666992 -68 2c-41.333 4 -81.666 6.66699 -120.999 8c-21.333 0.666992 -42 1 -62 1c-19.333 -0.666992 -37.666 -2.33398 -54.999 -5.00098c-24 -4.66699 -44.667 -0.333984 -62 12.999c-15.333 11.333 -23 29.666 -23 54.999
c0 3.33301 0.333008 6.66602 1 9.99902c25.333 18 57 28 95 30h36c27.333 0 55.333 -1 84 -3l67 -6c22.667 -2 44.667 -3.33301 66 -4z" />
    <glyph glyph-name="dollar" unicode="$" horiz-adv-x="324" 
d="M203 505c40 -18.667 67 -45.0029 81 -79.0029c12 -28.667 18 -60.667 18 -96v-18c-2 -28 -13.333 -57.667 -34 -89c-20 -31.333 -44.667 -53.666 -74 -66.999c0 -15.333 -0.333008 -29.333 -1 -42c0 -12.667 -0.333008 -23.334 -1 -32.001
c-4 -2.66699 -8.66699 -4.33398 -14 -5.00098c-6 -0.666992 -9.66699 -3.66699 -11 -9c-18.667 0 -31.667 8.33301 -39 25c-6.66699 16.667 -10.667 35.667 -12 57c-37.333 10.667 -67 35.667 -89 75c-12.667 22.667 -19 46.667 -19 72c-0.666992 17.333 2.33301 35 9 53
c11.333 3.33301 20.666 3.33301 27.999 0s13 -8.33301 17 -15c9.33301 -15.333 15 -35.666 17 -60.999s11 -41 27 -47l6 -2c2 0 4 -0.333008 6 -1v3v3c0.666992 19.333 1.66699 50.333 3 93c0.666992 42.667 1.66699 89 3 139c-10 3.33301 -19.667 7.33301 -29 12
c-10 4.66699 -18.333 9.33398 -25 14.001c-27.333 17.333 -44.333 43.333 -51 78c-6 34.667 -3.33301 64.667 8 90c7.33301 16 17.666 29 30.999 39c12.667 10 26 18 40 24c4 2.66699 8.66699 4.66699 14 6c4.66699 1.33301 9.66699 2.66602 15 3.99902
c0 14.667 0.333008 28 1 40v28c1.33301 1.33301 2.33301 3.33301 3 6c0 2.66699 1.33301 4.33398 4 5.00098c26 -1.33301 42 -9.33301 48 -24c5.33301 -14 8 -34.333 8 -61c22.667 -6.66699 42.334 -17 59.001 -31s23.334 -29.333 20.001 -46
c-1.33301 -7.33301 -3.33301 -12.666 -6 -15.999c-3.33301 -3.33301 -7 -5.66602 -11 -6.99902c-9.33301 -2 -20.333 1.33301 -33 10c-12 8 -21.667 16 -29 24c0.666992 -20 1 -43 1 -69c0 -25.333 0.333008 -52.333 1 -81c1.33301 0 3 -0.333008 5 -1
c1.33301 0 3 -0.333008 5 -1zM84 588.997c-0.666992 -1.33301 -1 -2.99805 -1 -4.99805c0 -10.667 3.33301 -20.334 10 -29.001c8 -9.33301 18.667 -17.333 32 -24c0 23.333 0.333008 46.333 1 69c0 22.667 0.333008 44 1 64c-11.333 -4.66699 -21 -13.334 -29 -26.001
c-8 -12 -12.667 -28.333 -14 -49zM195 245.999c14 13.333 24.667 29.667 32 49s11 37.666 11 54.999c0 12 -4 27.667 -12 47c-8.66699 19.333 -16.334 32 -23.001 38c-1.33301 0.666992 -2.66602 1.66699 -3.99902 3c-2 0.666992 -3.66699 1.33398 -5 2.00098
c0 -32.667 0.333008 -65.667 1 -99v-95z" />
    <glyph glyph-name="quotesingle" unicode="'" horiz-adv-x="155" 
d="M93 634c-6 -10 -12.666 -17.333 -19.999 -22c-6 -2.66699 -12.333 -4 -19 -4h-7c-12.667 10.667 -19 20.667 -19 30c0 5.33301 1.33301 10.333 4 15c9.33301 14.667 19.666 35.334 30.999 62.001c9.33301 20 14 38.667 14 56c0.666992 17.333 7 30 19 38h4h4
c18.667 -14.667 28 -32.667 28 -54c0 -20.667 -4 -41.334 -12 -62.001c-4 -10.667 -8.33301 -21 -13 -31z" />
    <glyph glyph-name="parenleft" unicode="(" horiz-adv-x="164" 
d="M110 158c8 -7.33301 13.668 -14.333 17.001 -21c4 -6.66699 5.66699 -12.667 5 -18c0 -3.33301 -0.333008 -6.33301 -1 -9c-3.33301 -9.33301 -10.333 -16.666 -21 -21.999c-6 -2.66699 -11.333 -4 -16 -4c-8 0 -15 3 -21 9h-1v0c-11.333 13.333 -21.333 30 -30 50
s-14.667 41.667 -18 65c-5.33301 30 -8.33301 67.333 -9 112c-0.666992 19.333 -1 38.666 -1 57.999c0 24.667 0.333008 49.667 1 75c0.666992 23.333 2 45.666 4 66.999c1.33301 21.333 3 40.666 5 57.999c2 20.667 5 41.667 9 63c3.33301 20.667 7.33301 41 12 61
c9.33301 35.333 21 66 35 92c14 25.333 31 40 51 44c2 0.666992 4 1 6 1c2.66699 -0.666992 5 -1 7 -1c10.667 -1.33301 16 -5 16 -11c0 -5.33301 -1.66699 -10.666 -5 -15.999c-3.33301 -6 -13.666 -23 -30.999 -51c-18 -28.667 -31.333 -61.334 -40 -98.001l-2 -6
c0 -1.33301 -0.333008 -3 -1 -5c-1.33301 -7.33301 -3.33301 -16.666 -6 -27.999c-2 -11.333 -3.66699 -22.333 -5 -33c-2.66699 -13.333 -4.33398 -25.666 -5.00098 -36.999c-1.33301 -10.667 -2.33301 -22.334 -3 -35.001c-3.33301 -48.667 -4.33301 -97.667 -3 -147
c0.666992 -49.333 4 -94.666 10 -135.999c1.33301 -5.33301 5.66602 -17 12.999 -35c7.33301 -17.333 16.333 -31 27 -41v-1h1z" />
    <glyph glyph-name="parenright" unicode=")" horiz-adv-x="185" 
d="M63 763c-7.33301 10 -12.3301 18.999 -14.9971 26.999c-2 8.66699 -2.33301 16.334 -1 23.001c2.66699 12 9.66699 19.667 21 23c3.33301 1.33301 6.66602 2 9.99902 2c7.33301 0 14.666 -3.33301 21.999 -10v0h1c11.333 -14 21.333 -30.667 30 -50
c8 -20 14 -41.667 18 -65c4.66699 -30 7.66699 -67.333 9 -112s1 -89 -1 -133c-0.666992 -23.333 -1.66699 -45.666 -3 -66.999s-3 -40.666 -5 -57.999c-4.66699 -39.333 -11.334 -78 -20.001 -116c-6.66699 -30.667 -15.334 -57.334 -26.001 -80.001
c-2 -4.66699 -4.33301 -9.33398 -7 -14.001c-7.33301 -14 -15.666 -25.333 -24.999 -34c-8.66699 -8.66699 -18.667 -14 -30 -16c-2 -0.666992 -4 -1 -6 -1s-4 0.333008 -6 1c-10.667 1.33301 -16 4.66602 -16 9.99902c0 6 1.33301 11.667 4 17l32 51
c17.333 28.667 30.666 61 39.999 97c0.666992 2 1 4 1 6l2 6l5 28c2.66699 10.667 4.66699 21.334 6 32.001c2 14 3.66699 26.333 5 37c0.666992 10.667 1.66699 22.334 3 35.001c3.33301 48.667 4.33301 98 3 148c-1.33301 49.333 -4.66602 94.666 -9.99902 135.999
c-1.33301 4 -4.33301 12 -9 24c-4 11.333 -9.66699 22.333 -17 33l-2 4l-2 2c-1.33301 2.66699 -3 5 -5 7l-5 5c0 0.666992 -0.333008 1 -1 1v1z" />
    <glyph glyph-name="asterisk" unicode="*" horiz-adv-x="225" 
d="M84 761c0 5.33301 -0.333008 10.668 -1 16.001s0 10.333 2 15c3.33301 3.33301 9 5 17 5h3c6.66699 0 12.334 -1 17.001 -3c0.666992 -4.66699 1 -9.66699 1 -15c0 -16 -1.33301 -33.667 -4 -53c-3.33301 -24.667 -3.66602 -46.334 -0.999023 -65.001
c1.33301 -8.66699 -0.333984 -16.334 -5.00098 -23.001c-4.66699 -5.33301 -11.334 -8 -20.001 -8h-5c-8 11.333 -12 25.333 -12 42c0 6 0.666992 12 2 18c3.33301 24.667 5.33301 48.334 6 71.001zM126 752.002c4.66699 3.33301 8.66895 7.00098 12.002 11.001
c4 4 8.33301 6.66699 13 8c5.33301 -0.666992 10.666 -4 15.999 -10c4.66699 -6.66699 8 -12.667 10 -18c-15.333 -14 -34.333 -27.667 -57 -41c-22 -13.333 -39.333 -27 -52 -41c-6.66699 -7.33301 -14 -11 -22 -11c-8.66699 0 -16.334 5 -23.001 15
c6 17.333 20 32.666 42 45.999s42.333 27 61 41zM145.002 695.003c4 -3.33301 8.33301 -5.99902 13 -7.99902c4.66699 -2.66699 8.33398 -6 11.001 -10v-3c0 -4 -1.66699 -8.66699 -5 -14c-4.66699 -6.66699 -9.33398 -11.667 -14.001 -15
c-17.333 10.667 -35.333 24.667 -54 42s-36 30 -52 38c-8.66699 4 -14 10 -16 18c-0.666992 2 -1 4 -1 6c0 6 2.66699 12.333 8 19c18.667 -0.666992 37 -9.33398 55 -26.001c18.667 -17.333 37 -33 55 -47z" />
    <glyph glyph-name="plus" unicode="+" horiz-adv-x="389" 
d="M109 348c-9.33301 0 -18.668 -1 -28.001 -3c-8.66699 -2 -17.334 -1 -26.001 3c-6 5.33301 -9.66699 15 -11 29v9c0 10 1.33301 19 4 27c35.333 3.33301 75.333 3 120 -1s82.667 -2.66699 114 4c4.66699 1.33301 9 2 13 2c10.667 0 20.334 -3.33301 29.001 -10
c10.667 -7.33301 16 -20 16 -38v-4c-21.333 -16 -49 -24 -83 -24c-7.33301 0 -14.666 0.333008 -21.999 1c-44 3.33301 -86 5 -126 5zM214.998 302c0 -9.33301 0.999023 -18.665 2.99902 -27.998c1.33301 -8.66699 0 -17.334 -4 -26.001c-5.33301 -6 -15 -9.33301 -29 -10
h-7c-11.333 0 -21 1.33301 -29 4c-0.666992 14.667 -1 29.667 -1 45c0 23.333 1.33301 48.333 4 75c4.66699 44.667 4 82.667 -2 114c-3.33301 16 -0.666016 30 8.00098 42c8 10 20.667 15 38 15h5c15.333 -20.667 23 -47.334 23 -80.001c0 -8 -0.666992 -16.333 -2 -25
c-4 -44 -6.33301 -86 -7 -126z" />
    <glyph glyph-name="comma" unicode="," horiz-adv-x="143" 
d="M59 85c-8.66699 4.66699 -15.668 10.668 -21.001 18.001s-9 15.333 -11 24c-1.33301 5.33301 -2 10.666 -2 15.999c0 10 2 20 6 30c6.66699 15.333 17 25.666 31 30.999c4.66699 2 9.66699 3 15 3c2.66699 0 5.33398 -0.333008 8.00098 -1c8 -0.666992 17 -4 27 -10
c14 -8.66699 23 -27 27 -55c0.666992 -5.33301 1 -10.666 1 -15.999c0 -22 -6 -43 -18 -63c-8 -13.333 -18.667 -25 -32 -35c-14 -10 -31.333 -17 -52 -21c10.667 30 17 48.333 19 55c1.33301 6.66699 2 14.667 2 24z" />
    <glyph glyph-name="hyphen" unicode="-" horiz-adv-x="348" 
d="M89 348c-10 0 -19.333 -0.999023 -28 -2.99902c-9.33301 -1.33301 -18 -0.333008 -26 3c-6.66699 6 -10.334 15.667 -11.001 29c-0.666992 3.33301 -1 6.66602 -1 9.99902c0 10 1.66699 18.667 5 26c35.333 3.33301 75 3.33301 119 0c44.667 -4 83 -2.66699 115 4
c4 0.666992 8 1 12 1c10.667 0 20.334 -3 29.001 -9c10.667 -8 16 -21 16 -39v-4c-21.333 -16 -49 -24 -83 -24c-6.66699 0 -13.667 0.333008 -21 1c-44 4 -86 5.66699 -126 5z" />
    <glyph glyph-name="period" unicode="." horiz-adv-x="143" 
d="M71 65h-3.99805c-7.33301 0 -13.666 1.33301 -18.999 4c-6.66699 2.66699 -12 6.66699 -16 12c-8.66699 10 -13 23 -13 39c0 6.66699 0.666992 13.667 2 21c5.33301 25.333 16.666 42 33.999 50c5.33301 2.66699 11 4 17 4h1c7.33301 0 14.666 -2 21.999 -6l11 -8
c7.33301 -4.66699 12.666 -14 15.999 -28c2 -6.66699 3 -14.667 3 -24v-3c0 -10 -2 -22 -6 -36c-11.333 -12 -20 -19 -26 -21s-13.333 -3.33301 -22 -4z" />
    <glyph glyph-name="slash" unicode="/" horiz-adv-x="574" 
d="M362 472c-21.333 -33.333 -40 -67.3311 -56 -101.998c-16 -35.333 -35.333 -72 -58 -110c-10 -16 -21.667 -37 -35 -63c-14 -26 -28 -49.667 -42 -71c-9.33301 -14 -18.333 -25.333 -27 -34c-8 -8 -15.333 -12 -22 -12h-2c-10.667 2 -18.334 5.66699 -23.001 11
c-5.33301 5.33301 -8.66602 11.666 -9.99902 18.999v11c0 10.667 2.33301 22.667 7 36c7.33301 17.333 14.333 31.666 21 42.999c16 28.667 31.667 54.667 47 78c16 23.333 30 45.333 42 66c40 68 74.333 130.333 103 187s60 108.667 94 156
c3.33301 4.66699 8.33301 10 15 16c6.66699 5.33301 11.667 10 15 14c9.33301 0 16.333 -2 21 -6s7.66699 -9.33301 9 -16c1.33301 -3.33301 2 -7.33301 2 -12c0 -14 -4.33301 -31 -13 -51c-11.333 -27.333 -24.333 -54 -39 -80l-28 -47c-9.33301 -14 -16.333 -25 -21 -33z
" />
    <glyph glyph-name="zero" unicode="0" horiz-adv-x="363" 
d="M335 295c-3.33301 -30 -8.99707 -61.333 -16.9971 -94c-7.33301 -33.333 -15 -56.666 -23 -69.999c-8.66699 -14 -20 -26 -34 -36s-29.667 -17.333 -47 -22c-16 -5.33301 -32.667 -8 -50 -8c-14.667 0 -30 2 -46 6c-32.667 8 -58 26.667 -76 56c-6 10 -12 26.667 -18 50
c-6.66699 23.333 -11 43.666 -13 60.999c-4 36.667 -6 75.667 -6 117c0 21.333 0.666992 43.333 2 66c3.33301 66.667 7.66602 123.667 12.999 171c5.33301 46.667 15.666 89.334 30.999 128.001c14.667 39.333 39.667 66 75 80c16.667 2.66699 32 4 46 4
c25.333 0 47.333 -4.33301 66 -13c29.333 -14 52 -35 68 -63c20 -34 32.333 -75.333 37 -124c3.33301 -33.333 5 -67.333 5 -102c0 -16 -0.333008 -32 -1 -48c-0.666992 -28 -2.33398 -55.333 -5.00098 -82s-5 -52.334 -7 -77.001zM87.0029 317
c0 -9.33301 0.333008 -20.001 1 -32.001s2 -24.333 4 -37c3.33301 -23.333 9 -45 17 -65c8.66699 -20 22 -31.333 40 -34h8c14 0 26.333 5 37 15c2.66699 1.33301 5 3.33301 7 6c14 16 25.333 35 34 57c5.33301 12 9.33301 24 12 36c3.33301 11.333 6 22 8 32
c12 70.667 18.667 142.334 20 215.001s-10 134 -34 184l-47 21c-6 2.66699 -12 4 -18 4c-10 0 -20.667 -4 -32 -12c-7.33301 -14.667 -14.333 -31.667 -21 -51c-6 -19.333 -11.333 -40.333 -16 -63c-8.66699 -42 -15 -87.333 -19 -136c-2 -29.333 -3 -58 -3 -86
c0 -18 0.666992 -36 2 -54z" />
    <glyph glyph-name="one" unicode="1" horiz-adv-x="153" 
d="M118 543c-4 -38.667 -4.99902 -77.333 -2.99902 -116s1.33301 -80.334 -2 -125.001c-1.33301 -18 -2 -41.667 -2 -71c0 -30 -1.66699 -57.667 -5 -83c-1.33301 -16.667 -4 -30.667 -8 -42c-4 -12 -9.66699 -19.333 -17 -22c-5.33301 -1.33301 -10 -2 -14 -2
s-7.33301 0.333008 -10 1c-7.33301 2.66699 -13.333 7 -18 13c-8 10.667 -13 25.334 -15 44.001c-1.33301 14 -2 26.667 -2 38v11c2 32.667 4.33301 62.667 7 90c3.33301 28 5.66602 54 6.99902 78c4.66699 78.667 6.66699 150 6 214c0 63.333 4 123.666 12 180.999
c1.33301 6 3.33301 13 6 21c3.33301 8.66699 6 15.334 8 20.001c6 2.66699 11.667 4 17 4h4c6 -1.33301 11 -4.33301 15 -9c7.33301 -8.66699 12.333 -21.334 15 -38.001c3.33301 -16 5.33301 -33.667 6 -53c0.666992 -9.33301 1 -18.666 1 -27.999c0 -20 -1 -40.333 -3 -61
c-2 -29.333 -3.66699 -51 -5 -65z" />
    <glyph glyph-name="two" unicode="2" horiz-adv-x="358" 
d="M338 143c5.33301 -5.33301 8.00293 -11.665 8.00293 -18.998v-3c-0.666992 -8.66699 -1.66699 -18.334 -3 -29.001c-22 -12 -45.667 -18 -71 -18h-4c-26.667 0.666992 -53.334 2.33398 -80.001 5.00098c-14.667 2 -29 3.33301 -43 4
c-14.667 0.666992 -28.334 0.333984 -41.001 -0.999023l-47 -4c-15.333 -1.33301 -28 2 -38 10c-6 4.66699 -10.333 11 -13 19c-3.33301 8 -5.33301 18.333 -6 31v1c0 17.333 6 36.666 18 57.999c12.667 22 24 44.667 34 68c8.66699 20 19.334 39.333 32.001 58l37 53
l79 122c26 42 40.667 84.667 44 128c2.66699 27.333 -0.333008 50.333 -9 69c-9.33301 19.333 -20.333 29.333 -33 30c-13.333 0 -26.333 -9 -39 -27c-12.667 -18.667 -21.667 -36.334 -27 -53.001c-2 -8.66699 -3.33301 -19.667 -4 -33s-3.33398 -24.333 -8.00098 -33
c-2.66699 -4.66699 -6.33398 -8.33398 -11.001 -11.001s-11 -3.66699 -19 -3c-7.33301 0.666992 -13 3 -17 7c-4.66699 4 -8.33398 9.33301 -11.001 16c-3.33301 8.66699 -5 19 -5 31s1.66699 25 5 39c4.66699 24.667 12.667 49 24 73c10.667 24 21 39.667 31 47
c26 16.667 50 25.667 72 27h7c18.667 0 35.334 -4.66699 50.001 -14c30.667 -18.667 51.667 -51 63 -97c12 -46.667 12.667 -92.667 2 -138c-6 -24.667 -14.667 -48.334 -26 -71.001c-11.333 -23.333 -24.333 -46 -39 -68c-26 -40.667 -53 -80 -81 -118
s-46.667 -76 -56 -114c21.333 -6.66699 46 -10.667 74 -12s54.667 -3.66602 80 -6.99902c14 -2 27 -5 39 -9c12 -3.33301 22.667 -8 32 -14z" />
    <glyph glyph-name="three" unicode="3" horiz-adv-x="398" 
d="M385 325c2 -12 3 -24.001 3 -36.001c0 -41.333 -11.333 -80 -34 -116c-29.333 -46.667 -65.333 -78 -108 -94c-24.667 -8.66699 -49.334 -13 -74.001 -13c-14.667 0 -29.334 1.66699 -44.001 5c-40 8 -70 27 -90 57c-7.33301 10.667 -14.333 27 -21 49
c-4.66699 15.333 -7 30 -7 44c0 6 0.666992 12 2 18c0.666992 8 3 15.333 7 22c3.33301 6.66699 8.33301 12 15 16c8.66699 1.33301 15.334 0.666016 20.001 -2.00098c4.66699 -3.33301 8.66699 -7.66602 12 -12.999c6 -11.333 12 -25.666 18 -42.999
c6.66699 -17.333 20.334 -33 41.001 -47c65.333 -19.333 112 -11.333 140 24c27.333 35.333 37 83.333 29 144c-2.66699 19.333 -9 44 -19 74c-9.33301 29.333 -22.333 48 -39 56s-34 11 -52 9c-18 -1.33301 -36 -0.333008 -54 3c-18 2.66699 -32 11 -42 25
c-10 13.333 -10.333 26.666 -1 39.999c49.333 2.66699 88.666 15.334 117.999 38.001c30 22 37 60.667 21 116c-4.66699 5.33301 -10.334 9.66602 -17.001 12.999c-6 2.66699 -12.667 4.33398 -20 5.00098c-17.333 2 -34.666 -0.666992 -51.999 -8
c-16.667 -7.33301 -27.667 -15.333 -33 -24c-11.333 -21.333 -16.333 -38 -15 -50c0.666992 -12 -5.66602 -17.333 -18.999 -16c-14.667 8 -25 17.333 -31 28c-6 10 -8.66699 20.667 -8 32c0.666992 20.667 8.66699 41.334 24 62.001c16 20 31.667 35 47 45
c25.333 12 51 17.667 77 17c14.667 0 29.667 -1.66699 45 -5c42 -10.667 70 -34 84 -70c12.667 -32 18.334 -63.333 17.001 -94s-8.33301 -60.334 -21 -89.001c21.333 -34.667 38.666 -69.667 51.999 -105c13.333 -34.667 23 -73.667 29 -117z" />
    <glyph glyph-name="four" unicode="4" horiz-adv-x="421" 
d="M318 447c-0.666992 -40 -1.66406 -80 -2.99707 -120c-2 -40 -2.33301 -79 -1 -117c0.666992 -27.333 4 -53 10 -77c5.33301 -23.333 0.333008 -45 -15 -65c-8 -2 -15.333 -3 -22 -3c-16.667 0 -28.334 6 -35.001 18c-10 17.333 -15.333 40 -16 68
c-0.666992 14.667 -0.333984 30.334 0.999023 47.001c0.666992 16 1 32 1 48l4 108c1.33301 35.333 3 65.666 5 90.999c-10 2.66699 -21 3.66699 -33 3s-24 -2 -36 -4c-22.667 -4 -45 -8.33301 -67 -13s-41 -5 -57 -1c-12.667 3.33301 -22.667 11 -30 23
c-5.33301 9.33301 -8 22.666 -8 39.999c0 6 0.333008 12.333 1 19l119 135c39.333 44 76.333 95 111 153c5.33301 1.33301 10 2 14 2c5.33301 0 10.333 -1 15 -3c7.33301 -4 13.666 -10.667 18.999 -20c10 -18 16.333 -43 19 -75c2 -31.333 3 -62.333 3 -93v-46
c0 -14 0.333008 -26 1 -36c19.333 0.666992 35.333 -0.333008 48 -3c12.667 -3.33301 22.667 -7.66602 30 -12.999c8.66699 -7.33301 13 -15 13 -23c0 -6.66699 -3 -13.667 -9 -21c-14 -16.667 -41.333 -24 -82 -22zM246.003 522c0.666992 17.333 2.33301 42.999 5 76.999
c1.33301 23.333 2 42 2 56c0 6.66699 -0.333008 12.334 -1 17.001c-12 -10.667 -27.667 -26 -47 -46l-56 -60l-26 -31c-8.66699 -10 -15.667 -19 -21 -27c22.667 4 47.667 6.33301 75 7s50.333 3 69 7z" />
    <glyph glyph-name="five" unicode="5" horiz-adv-x="343" 
d="M108 502c19.333 5.33301 37.998 7.66504 55.998 6.99805c18.667 -1.33301 35.667 -5.33301 51 -12c30 -12 55 -31.333 75 -58s32 -55.667 36 -87c4.66699 -38 2.33398 -75.667 -6.99902 -113c-9.33301 -38 -23.666 -69.333 -42.999 -94
c-15.333 -19.333 -33.333 -34.333 -54 -45s-43 -18.667 -67 -24c-4 -0.666992 -7.66699 -1 -11 -1c-12.667 0 -24.667 2 -36 6c-15.333 4 -29 10.333 -41 19c-22.667 16.667 -38 37.667 -46 63c-2.66699 8 -4 16 -4 24c0 17.333 6.33301 34 19 50
c8.66699 2 15.334 2.33301 20.001 1c4 -1.33301 7.33301 -4 10 -8c5.33301 -7.33301 10.333 -17.666 15 -30.999c4 -13.333 15.667 -26 35 -38c20.667 -2.66699 39 -1.66699 55 3c16 5.33301 30 13 42 23c21.333 19.333 35 45 41 77s4.33301 62.667 -5 92
c-4.66699 14.667 -10.334 26.667 -17.001 36c-7.33301 8.66699 -14.666 15.334 -21.999 20.001c-15.333 9.33301 -30 14 -44 14c-14.667 -0.666992 -24.334 -1 -29.001 -1c-14 0.666992 -26.333 -0.333008 -37 -3c-10 -3.33301 -21.333 -4 -34 -2s-22 7.33301 -28 16
s-10 19.667 -12 33c-4 24 -3.66699 53.333 1 88c4.66699 35.333 6.33398 69 5.00098 101c-1.33301 32.667 -2 62 -2 88s12 45 36 57c34 -5.33301 73 -9 117 -11c44.667 -2 80.667 -2.66699 108 -2c19.333 -4 31.666 -13.667 36.999 -29c2.66699 -6 4 -12 4 -18
c0 -8.66699 -2.33301 -17 -7 -25c-7.33301 -12.667 -23.666 -18.334 -48.999 -17.001c-25.333 2 -52 5 -80 9c-19.333 2.66699 -37.333 4.66699 -54 6c-17.333 2 -31.333 1.33301 -42 -2c1.33301 -31.333 2.66602 -66.666 3.99902 -105.999c0.666992 -40 2 -75.333 4 -106z
" />
    <glyph glyph-name="six" unicode="6" horiz-adv-x="375" 
d="M295 92c-12.667 -10 -28.668 -16.998 -48.001 -20.998c-14 -2.66699 -28.667 -4.33398 -44 -5.00098c-6 0 -11.667 0.333008 -17 1c-32 2 -62.333 10 -91 24s-47 33.333 -55 58l-17 62c-7.33301 26.667 -11.666 48.334 -12.999 65.001c-0.666992 3.33301 -1 7 -1 11
c0 14 2.33301 28.667 7 44c5.33301 18.667 9 36.667 11 54l30 215c10.667 70.667 25.667 139.334 45 206.001c20 -0.666992 34.667 -5.66699 44 -15c9.33301 -8.66699 14.666 -20.334 15.999 -35.001c2 -12 1.66699 -25.333 -1 -40c-2 -15.333 -5 -31 -9 -47l-25 -91
c-8.66699 -30.667 -11.334 -57 -8.00098 -79c30 7.33301 57.333 8.66602 82 3.99902c24.667 -4 47 -12.667 67 -26c20.667 -13.333 38.334 -30.666 53.001 -51.999c15.333 -20.667 27 -43.334 35 -68.001c9.33301 -29.333 14 -59 14 -89
c0 -18.667 -1.66699 -37.334 -5 -56.001c-9.33301 -50 -32.666 -90 -69.999 -120zM101.999 377.002c-6.66699 -29.333 -10.001 -61.668 -10.001 -97.001v-9c0.666992 -38.667 11 -69.667 31 -93c10.667 -12.667 24.667 -22 42 -28c10.667 -3.33301 22.334 -5 35.001 -5
c10 0 20.333 1 31 3c14 4.66699 26 12 36 22s18 21.333 24 34c10.667 22 16 45.667 16 71c0 10.667 -1 21.334 -3 32.001c-6 38 -22.333 67 -49 87c-18 13.333 -40.333 20 -67 20h-13c-32 -2.66699 -56.333 -15 -73 -37z" />
    <glyph glyph-name="seven" unicode="7" horiz-adv-x="353" 
d="M172 217c8.66699 80.667 21.998 163.004 39.998 247.004s33 165 45 243c-13.333 6.66699 -28 10.667 -44 12c-15.333 1.33301 -31 2 -47 2l-88 -4c-28.667 -1.33301 -52.667 6.66699 -72 24c-2.66699 9.33301 -4 19 -4 29c0 2.66699 0.333008 5.33398 1 8.00098
c0.666992 13.333 4.33398 22.333 11.001 27c12.667 4 24.334 4.33301 35.001 1s22 -5 34 -5c10 0 21.333 0.666992 34 2c12.667 2 26 3.66699 40 5c26 3.33301 52.667 5.66602 80 6.99902c5.33301 0.666992 11 1 17 1c19.333 0 36.666 -2.33301 51.999 -7
c12.667 -4 23.334 -10 32.001 -18c8 -8 12.333 -19 13 -33v-3c0 -10.667 -3 -24 -9 -40c-6.66699 -16.667 -12.334 -33.334 -17.001 -50.001c-12 -47.333 -21 -95 -27 -143l-19 -155c-2.66699 -22 -7.33398 -45.667 -14.001 -71c-6 -24.667 -10 -52.334 -12 -83.001
c-1.33301 -16.667 -1.66602 -36.334 -0.999023 -59.001c0.666992 -23.333 -3.33301 -41.333 -12 -54c-4.66699 -6.66699 -11.334 -11.334 -20.001 -14.001c-3.33301 -0.666992 -6.66602 -1 -9.99902 -1c-7.33301 0 -15.666 1.66699 -24.999 5
c-14.667 15.333 -21 35.333 -19 60s4 47 6 67z" />
    <glyph glyph-name="eight" unicode="8" horiz-adv-x="393" 
d="M357 162c-12.667 -22.667 -26.334 -40.6641 -41.001 -53.9971c-14 -12.667 -35 -23.667 -63 -33c-18 -2.66699 -35.333 -4 -52 -4c-15.333 0 -30.333 1 -45 3c-30 5.33301 -57 15.666 -81 30.999c-19.333 11.333 -34 27 -44 47c-10 19.333 -16.333 41 -19 65
c-1.33301 10.667 -2 21.667 -2 33c0 34 6 69 18 105c16 48 36.333 84.667 61 110c-13.333 8 -24.666 19.333 -33.999 34s-17.333 28.334 -24 41.001c-18 66.667 -12.667 123.667 16 171c29.333 47.333 70.333 78.666 123 93.999c29.333 0 52.666 -4.66699 69.999 -14
c18 -8.66699 35.333 -21.667 52 -39c36 -38 53 -84.333 51 -139s-22 -99.334 -60 -134.001c15.333 -8.66699 29.333 -20.667 42 -36c12.667 -14.667 23.334 -31.334 32.001 -50.001c16.667 -34.667 25.667 -73 27 -115v-8c0 -38.667 -9 -74.667 -27 -108zM270 622.003
c-0.666992 28.667 -10.334 51.001 -29.001 67.001c-14 12 -30.333 18 -49 18c-7.33301 0 -14.666 -0.666992 -21.999 -2c-22 -4.66699 -40.667 -17.667 -56 -39c-12.667 -17.333 -19 -37 -19 -59c0 -4.66699 0.333008 -9.66699 1 -15c2 -14.667 6.33301 -27 13 -37
c6 -10 13.667 -18 23 -24c12.667 -7.33301 26.667 -11 42 -11c5.33301 0 11 0.333008 17 1c22 4 40.333 14.333 55 31c7.33301 8.66699 13.333 18.667 18 30c4 11.333 6 23.666 6 36.999v3zM157 409.004c-21.333 -4.66699 -38.666 -20.667 -51.999 -48s-20 -56.333 -20 -87
c-0.666992 -0.666992 -1 -1.66699 -1 -3c0.666992 -18.667 3.66699 -36.667 9 -54c6.66699 -17.333 17 -30.666 31 -39.999c18.667 -6.66699 35 -11.334 49 -14.001h10c12 0 26.667 2.66699 44 8s32 13.333 44 24c11.333 10.667 19.666 22.667 24.999 36
c6.66699 15.333 10 31 10 47c0 12.667 -2 25.667 -6 39c-8.66699 30 -24.667 54 -48 72c-12 9.33301 -26 16.333 -42 21c-8 2 -16.667 3 -26 3c-8.66699 0 -17.667 -1.33301 -27 -4z" />
    <glyph glyph-name="nine" unicode="9" horiz-adv-x="371" 
d="M336 474c-1.33301 -8 -2.33105 -18.667 -2.99805 -32s-2 -24.333 -4 -33l-11 -71c-3.33301 -22.667 -6.33301 -51 -9 -85c-0.666992 -10 -1.66699 -21.667 -3 -35c-0.666992 -13.333 -1.66699 -26.666 -3 -39.999c-2.66699 -25.333 -7.33398 -48.666 -14.001 -69.999
c-6 -20.667 -16 -32.667 -30 -36c-8.66699 -1.33301 -16.334 -2 -23.001 -2c-8 0 -14 1.33301 -18 4c-8 4.66699 -15.333 17.667 -22 39c0.666992 53.333 7.33398 101 20.001 143c12.667 41.333 19.667 88.333 21 141c-36 2 -69.333 4 -100 6c-31.333 1.33301 -57 10 -77 26
c-18 15.333 -31.333 33.666 -40 54.999c-7.33301 20 -11 41.333 -11 64v4c0.666992 45.333 14 90.333 40 135c26 45.333 58.667 78 98 98c15.333 7.33301 31.333 12.333 48 15c7.33301 1.33301 14.666 2 21.999 2c9.33301 0 19 -1 29 -3
c13.333 -2.66699 34.666 -11.334 63.999 -26.001s47 -27 53 -37c-2 -37.333 -4.66699 -78 -8 -122s-9.66602 -90.667 -18.999 -140zM88.002 542c0 -10.667 3.33301 -20.332 10 -28.999s15 -16 25 -22c16 -8.66699 33.667 -14 53 -16c4.66699 -0.666992 9 -1 13 -1
c14 0 26.667 3 38 9c5.33301 2.66699 10 6.33398 14 11.001c4.66699 4.66699 7.66699 10 9 16c2.66699 9.33301 5 18 7 26l6 21c4.66699 20 7.33398 39 8.00098 57v7c0 17.333 -1.66699 40.666 -5 69.999c-22 12 -41.333 18 -58 18
c-4.66699 0 -9.33398 -0.666992 -14.001 -2c-20 -4.66699 -39 -17.667 -57 -39c-7.33301 -8.66699 -17.333 -24.334 -30 -47.001s-19 -49 -19 -79z" />
    <glyph glyph-name="colon" unicode=":" horiz-adv-x="144" 
d="M73 66c-1.33301 -0.666992 -2.66797 -1.00391 -4.00098 -1.00391c-7.33301 0 -13.666 1.33301 -18.999 4c-6 2.66699 -11 6.33398 -15 11.001c-9.33301 10.667 -13.666 24 -12.999 40c0 6 0.666992 12.667 2 20c4.66699 24.667 15.667 41.334 33 50.001
c5.33301 2 11 3 17 3h1c6.66699 0 14 -2 22 -6c-0.666992 0 2.66602 -2.33301 9.99902 -7c7.33301 -5.33301 13 -14.666 17 -27.999c2 -7.33301 3 -15.666 3 -24.999v-2c-0.666992 -10 -3 -21.667 -7 -35c-10.667 -12 -19 -19 -25 -21s-13.333 -3 -22 -3zM72.998 372.996
l-4.00098 -0.000976562c-7.33301 0 -13.666 1 -18.999 3c-6 2.66699 -11 6.66699 -15 12c-9.33301 10 -13.666 23 -12.999 39c0 6 0.666992 12.667 2 20c4.66699 25.333 15.667 42 33 50c5.33301 2.66699 11 4 17 4h1c6.66699 -0.666992 14 -3 22 -7
c-0.666992 0 2.66602 -2.33301 9.99902 -7c7.33301 -5.33301 13 -14.666 17 -27.999c2 -7.33301 3 -15.333 3 -24v-3c-0.666992 -10 -3 -21.667 -7 -35c-10.667 -12 -19 -19 -25 -21s-13.333 -3 -22 -3z" />
    <glyph glyph-name="semicolon" unicode=";" horiz-adv-x="143" 
d="M49 81c-9.33301 4.66699 -16.666 10.667 -21.999 18s-9 15.333 -11 24c-0.666992 5.33301 -1 11 -1 17c0 9.33301 2 19 6 29c6.66699 15.333 16.667 25.666 30 30.999c5.33301 2 10.666 3 15.999 3h7c8.66699 -1.33301 17.667 -5 27 -11
c14.667 -8.66699 23.667 -27 27 -55c0.666992 -5.33301 1 -10.666 1 -15.999c0 -22 -5.66699 -42.667 -17 -62c-8 -14 -19 -26 -33 -36c-13.333 -10 -30.333 -17 -51 -21c10.667 30 16.667 48.333 18 55c2 6.66699 3 14.667 3 24zM67 368l-3 -0.00195312
c-7.33301 0 -13.666 1.33301 -18.999 4c-6.66699 2.66699 -12 6.33398 -16 11.001c-9.33301 10.667 -14 23.667 -14 39c0 6.66699 1 14 3 22c4.66699 25.333 15.667 42 33 50c5.33301 2.66699 11.333 4 18 4h1c6.66699 -0.666992 14 -3 22 -7
c-0.666992 0.666992 2.66602 -1.66602 9.99902 -6.99902s13 -15 17 -29c2 -6.66699 3 -14.667 3 -24v-2c0 -10.667 -2.33301 -22.667 -7 -36c-10.667 -12.667 -19 -20 -25 -22c-6 -1.33301 -13.667 -2.33301 -23 -3z" />
    <glyph glyph-name="less" unicode="&#x3c;" horiz-adv-x="328" 
d="M99 406c-8 -5.33301 -14.9971 -10.999 -20.9971 -16.999c-6.66699 -6.66699 -14.667 -11 -24 -13c-8 1.33301 -16.333 7.66602 -25 18.999c-8.66699 10.667 -14.334 21 -17.001 31c28 22.667 61.333 45 100 67c39.333 21.333 70.333 43.333 93 66
c11.333 11.333 23.666 17 36.999 17h2c14 -0.666992 26.333 -9.66699 37 -27c-10.667 -30 -35.334 -55.667 -74.001 -77s-74.667 -43.333 -108 -66zM77.0029 366.001c-8.66699 4 -17.333 7.00098 -26 9.00098c-9.33301 1.33301 -17 5.33301 -23 12
c-2 3.33301 -3 7.33301 -3 12c0 6 1.33301 12.667 4 20c4.66699 12.667 10.334 23 17.001 31c34.667 -10.667 71.667 -26.334 111 -47.001c39.333 -21.333 74.666 -35 105.999 -41c16 -3.33301 27.667 -11.333 35 -24c4 -5.33301 6 -11.333 6 -18
c0 -8.66699 -2.33301 -17.667 -7 -27c-8.66699 -2 -17.667 -3 -27 -3c-24 0 -50.333 7.33301 -79 22c-38.667 20.667 -76.667 38.667 -114 54z" />
    <glyph glyph-name="equal" unicode="=" horiz-adv-x="574" 
d="M193 356c-12 0 -23.335 -1.00195 -34.002 -3.00195s-21 -0.666992 -31 4c-7.33301 6.66699 -11.333 18.334 -12 35.001c-0.666992 2.66699 -1 5.33398 -1 8.00098c0 13.333 2 24.666 6 33.999c16.667 1.33301 34.334 2 53.001 2c28 0 58 -1.66699 90 -5
c52.667 -5.33301 98 -4.33301 136 3c19.333 3.33301 36 0 50 -10c12 -9.33301 18 -24.333 18 -45v-6c-10.667 -8 -23 -14 -37 -18c-14 -3.33301 -29 -5.66602 -45 -6.99902c-11.333 -0.666992 -22.666 -1 -33.999 -1c-20 0 -40.667 1 -62 3
c-34 3.33301 -66.333 5.33301 -97 6zM387.998 575.998c11.333 0 22.334 1 33.001 3s21 0.666992 31 -4c7.33301 -6.66699 11.666 -18.334 12.999 -35.001v-8c0 -13.333 -1.66699 -24.666 -5 -33.999c-17.333 -2 -35.333 -3 -54 -3c-28 0 -57.667 1.66699 -89 5
c-53.333 5.33301 -99 4.66602 -137 -2.00098c-19.333 -4 -35.666 -0.666992 -48.999 10c-12.667 8.66699 -19 23.334 -19 44.001v7c10.667 8 23 13.667 37 17c14 4 29 6.66699 45 8c11.333 0.666992 23 1 35 1c19.333 0 39.666 -1 60.999 -3c34 -4 66.667 -6 98 -6z" />
    <glyph glyph-name="greater" unicode="&#x3e;" 
d="M250 454c8.66699 4.66699 16.335 9.99902 23.002 15.999c6.66699 6.66699 14.667 10.334 24 11.001c8 -1.33301 16 -8 24 -20c8 -11.333 13 -22 15 -32c-29.333 -21.333 -64 -41.333 -104 -60c-40.667 -18.667 -73 -39 -97 -61c-10.667 -9.33301 -22.334 -14 -35.001 -14
h-5c-14.667 1.33301 -26.334 11 -35.001 29c12 29.333 38 53.333 78 72c40 19.333 77.333 39 112 59zM275.001 492.999c8 -4.66699 16.666 -8.00293 25.999 -10.0029c8.66699 -2.66699 16 -7.66699 22 -15c1.33301 -2.66699 2 -6 2 -10c-0.666992 -6 -2.66699 -13 -6 -21
c-5.33301 -12.667 -11.666 -22.667 -18.999 -30c-33.333 12.667 -69 30.667 -107 54c-38 24 -72.667 40 -104 48c-15.333 4.66699 -26.333 13.334 -33 26.001c-2.66699 4.66699 -4 10 -4 16c0 8.66699 3 18.334 9 29.001c6 1.33301 12.333 2 19 2c26 0 54 -9.33301 84 -28
c38 -23.333 75 -43.666 111 -60.999z" />
    <glyph glyph-name="question" unicode="?" horiz-adv-x="574" 
d="M1002 860l-733 -106v-1h-1z" />
    <glyph glyph-name="A" unicode="A" horiz-adv-x="512" 
d="M319 708l12 -37.999l19 -55l44 -134l46 -150c15.333 -50.667 28 -97.334 38 -140.001c8.66699 -38 13 -67.333 13 -88v-5c-7.33301 -5.33301 -15.333 -8 -24 -8h-7c-12 2 -23 4.66699 -33 8c-12 23.333 -20.667 49.666 -26 78.999c-5.33301 30 -11 59.333 -17 88
c-3.33301 14.667 -7.33301 29.334 -12 44.001c-4.66699 14 -10.667 26.667 -18 38c-31.333 0.666992 -58.333 1 -81 1c-22.667 -0.666992 -48.667 0.666016 -78 3.99902c-11.333 -13.333 -21.333 -32.666 -30 -57.999s-19 -52 -31 -80c-8 -20 -17.667 -43 -29 -69
c-12 -26 -25.667 -41.667 -41 -47c-6.66699 -2.66699 -14 -2.33398 -22 0.999023c-7.33301 2.66699 -15.333 9.33398 -24 20.001c0 4.66699 6.33301 21 19 49c12.667 28.667 23.667 52.667 33 72l95 259c32 86.667 60.667 176.667 86 270c6 6.66699 12 10.667 18 12
c1.33301 0.666992 3 1 5 1c3.33301 0 6.33301 -1 9 -3c8.66699 -5.33301 16 -15 22 -29c6 -14.667 10.667 -28.667 14 -42zM220 433.001c20 0.666992 38.333 -0.333984 55 -3.00098c10.667 -1.33301 21.667 -2 33 -2c8 0 16 0.333008 24 1
c-8.66699 32.667 -17.667 64.334 -27 95.001l-29 98c-6 -34 -14.667 -66 -26 -96c-10.667 -30 -20.667 -61 -30 -93z" />
    <glyph glyph-name="B" unicode="B" horiz-adv-x="348" 
d="M322 293c0.666992 -8.66699 1.00098 -16.6641 1.00098 -23.9971c0 -32.667 -4.33301 -59.334 -13 -80.001c-10.667 -26 -32.334 -48 -65.001 -66c-12.667 -4 -25.667 -8.33301 -39 -13s-27 -8.66699 -41 -12c-20 -5.33301 -40 -8 -60 -8
c-4.66699 0 -9.33398 0.333008 -14.001 1c-24 1.33301 -46 12 -66 32c6.66699 54 8.33398 112 5.00098 174c-2.66699 61.333 -3 120.666 -1 177.999c0.666992 20.667 1.33398 42.667 2.00098 66l2 68c0 11.333 -0.333008 24.666 -1 39.999
c-0.666992 14.667 -1.66699 27.667 -3 39c-2.66699 18.667 -4 33 -4 43s5.33301 22 16 36c35.333 9.33301 63.333 15.333 84 18c3.33301 0.666992 7 1 11 1c17.333 0 36.333 -5 57 -15c15.333 -6.66699 28.666 -17 39.999 -31c11.333 -14.667 20.333 -31 27 -49
c13.333 -34 18.333 -71.333 15 -112c-3.33301 -41.333 -17.333 -76 -42 -104c23.333 -22.667 43.333 -47.667 60 -75c17.333 -28 27 -63.667 29 -107zM100.001 487.003c8 -2 15.334 -3 22.001 -3s13 0.666992 19 2c3.33301 1.33301 6.66602 2.33301 9.99902 3
c8 3.33301 15.333 7.66602 22 12.999c10 8 18 17.667 24 29s10.667 23.666 14 36.999c4.66699 24.667 4 49.334 -2 74.001c-6.66699 24.667 -19.334 43 -38.001 55c-9.33301 6 -20.333 9.66699 -33 11h-7c-10.667 0 -22.667 -2 -36 -6c2.66699 -28.667 4.66699 -61 6 -97
c0.666992 -35.333 0.333984 -74.666 -0.999023 -117.999zM104.002 186.003c15.333 -4 29 -5.99609 41 -5.99609c8.66699 -0.666992 16.334 0 23.001 2c12 3.33301 22.667 8.66602 32 15.999c4 3.33301 7.66699 7 11 11c8.66699 10 15 21.667 19 35
c4.66699 13.333 7.33398 27.333 8.00098 42c1.33301 27.333 -3 53.666 -13 78.999c-10.667 25.333 -26 42.666 -46 51.999c-8.66699 4.66699 -18.334 6.66699 -29.001 6h-5c-12.667 -0.666992 -26.334 -5.33398 -41.001 -14.001v-46v-75v-43v-59z" />
    <glyph glyph-name="C" unicode="C" 
d="M268 693c-24.667 4 -49.332 -3.00098 -73.999 -21.001s-41.667 -38 -51 -60l-10 -25c-3.33301 -9.33301 -6.33301 -19 -9 -29c-4 -12 -7 -22.667 -9 -32c-1.33301 -10 -3 -20.667 -5 -32c-5.33301 -42.667 -7 -86 -5 -130s8 -84.333 18 -121
c2 -5.33301 11 -17.666 27 -36.999c16.667 -18.667 36 -30.667 58 -36c8.66699 -2 18 -2 28 0c9.33301 2 18.666 7.66699 27.999 17c9.33301 8.66699 15.333 17.334 18 26.001s9 14.667 19 18c9.33301 0 17.333 -1.66699 24 -5c6 -3.33301 10.667 -8 14 -14
c5.33301 -8.66699 8 -18.667 8 -30c0 -6 -0.666992 -12 -2 -18c-4 -19.333 -10.667 -34.666 -20 -45.999c-18 -13.333 -37 -22.333 -57 -27c-13.333 -3.33301 -26.333 -5 -39 -5c-7.33301 0 -14.333 0.333008 -21 1c-36.667 4.66699 -70.334 19.334 -101.001 44.001
s-51 54 -61 88c-8.66699 26.667 -14 60 -16 100c-0.666992 17.333 -1 34.666 -1 51.999c0 22 0.666992 43.667 2 65s3.33301 41.333 6 60c2.66699 19.333 5.66699 36.333 9 51c11.333 53.333 31.333 104 60 152c28.667 47.333 69.334 73.666 122.001 78.999
c3.33301 0.666992 7 1 11 1c15.333 0 32 -3.33301 50 -10c22 -8 38 -20.333 48 -37c6 -9.33301 9 -19.333 9 -30c0.666992 -11.333 -2.33301 -24 -9 -38c-15.333 -0.666992 -27.333 3.66602 -36 12.999c-9.33301 8.66699 -20.333 14 -33 16z" />
    <glyph glyph-name="D" unicode="D" 
d="M254 705c10 -5.33301 19.001 -13.6689 27.001 -25.002c8.66699 -11.333 16.667 -25 24 -41c13.333 -29.333 24 -64.666 32 -105.999c8 -40.667 12 -82.334 12 -125.001v-1c0 -35.333 -3.33301 -70 -10 -104c-6 -33.333 -16.333 -63 -31 -89c-7.33301 -20 -24 -41 -50 -63
c-26.667 -22.667 -57.667 -40 -93 -52c-19.333 -6.66699 -39.333 -11.334 -60 -14.001c-8.66699 -1.33301 -17 -2 -25 -2c-12.667 0 -25.334 1.33301 -38.001 4c-14 26.667 -21.333 57.334 -22 92.001c0 6.66699 0.333008 13.334 1 20.001
c3.33301 42.667 5 85.334 5 128.001c0 56 1.66699 114.333 5 175s3 117.667 -1 171c-1.33301 22.667 -2.33301 43.334 -3 62.001c0 18.667 12.667 31 38 37c10.667 2 21.334 3 32.001 3c24 0 48 -5.66699 72 -17c35.333 -16.667 63.666 -34.334 84.999 -53.001z
M268.001 339.997c2 40 2.66699 85.3311 2 135.998c-1.33301 50.667 -8.33301 89 -21 115c-26 39.333 -50.333 63 -73 71c-14 5.33301 -29.667 8 -47 8c-9.33301 0 -19.333 -1 -30 -3c7.33301 -75.333 8.33301 -153.666 3 -234.999c-4.66699 -81.333 -3 -166.666 5 -255.999
c35.333 10 68 24.667 98 44c3.33301 2 6.33301 4 9 6c32.667 22 50.667 60 54 114z" />
    <glyph glyph-name="E" unicode="E" horiz-adv-x="287" 
d="M110 174c21.333 -1.33301 48.001 -0.336914 80.001 2.99609s56 -1 72 -13c6.66699 -5.33301 11 -12.666 13 -21.999s1 -21.333 -3 -36c-0.666992 0 -1 -0.333008 -1 -1c-28.667 -10 -61.334 -13 -98.001 -9s-71 2 -103 -6c-28 15.333 -41.667 41.333 -41 78
c1.33301 37.333 1.33301 77 0 119c-1.33301 65.333 -1.33301 135.333 0 210c1.33301 74 -1.33398 140.333 -8.00098 199c-1.33301 14 -4 27.333 -8 40c-1.33301 3.33301 -2 6.33301 -2 9c0 10 4.66699 20.333 14 31c28.667 1.33301 58.334 2.33301 89.001 3
c31.333 0.666992 61 5 89 13c10.667 -6 22.667 -15.333 36 -28c12.667 -12 14 -25.333 4 -40c-20.667 -15.333 -45 -21.333 -73 -18c-27.333 3.33301 -56.333 2.33301 -87 -3c4 -36.667 5.66699 -77 5 -121c-1.33301 -44 0.666992 -85.667 6 -125
c19.333 -8 43 -9.66699 71 -5c27.333 4.66699 50.333 4.33398 69 -0.999023c10 -3.33301 18 -9.33301 24 -18c5.33301 -8.66699 7.33301 -22 6 -40c-20 -11.333 -45.667 -16.666 -77 -15.999c-32 0.666992 -61.667 1.66699 -89 3
c-1.33301 -29.333 -1.33301 -62.666 0 -99.999c2 -38 6 -73.333 12 -106z" />
    <glyph glyph-name="F" unicode="F" horiz-adv-x="307" 
d="M49 755c22.667 7.33301 49.3311 12.998 79.998 16.998c18 2 35 3 51 3c11.333 0 22 -0.666992 32 -2c14 -1.33301 26.333 -3.66602 37 -6.99902s18.667 -7.66602 24 -12.999c6 -6 9.33301 -13 10 -21c0.666992 -7.33301 -2.33301 -16.333 -9 -27
c-32 -7.33301 -60.333 -11.333 -85 -12c-24.667 0 -54 -3.66699 -88 -11c0 -34 1 -70 3 -108c2.66699 -38.667 5 -77 7 -115c22 -0.666992 42 -0.666992 60 0c18.667 0 37.334 1.33301 56.001 4c19.333 -2 30.666 -9 33.999 -21s2 -27.333 -4 -46
c-21.333 -8 -43.666 -11.333 -66.999 -10c-24 0.666992 -49 -1.33301 -75 -6c2.66699 -28 3 -60.333 1 -97c-2.66699 -36 -3 -71 -1 -105c0.666992 -10.667 1.33398 -26 2.00098 -46c0 -8.66699 -1 -16.667 -3 -24c-2 -8 -5.33301 -14.667 -10 -20
c-3.33301 -3.33301 -8 -5.33301 -14 -6c-1.33301 -0.666992 -2.33301 -1 -3 -1c-5.33301 0 -12 2 -20 6c-16 8 -24 23 -24 45s-0.333008 43 -1 63c-2 39.333 -3 77 -3 113c0.666992 36 0 73.667 -2 113c-1.33301 42 -3.66602 86.667 -6.99902 134
c-2.66699 30 -4 57.667 -4 83c0 14.667 0.333008 28.334 1 41.001c1.33301 18.667 3.66602 34.667 6.99902 48s8.33301 22.666 15 27.999z" />
    <glyph glyph-name="G" unicode="G" horiz-adv-x="389" 
d="M374 453c0.666992 -5.33301 0.996094 -11.333 0.996094 -18c0 -14.667 -1.33301 -32 -4 -52l-10 -92c-1.33301 -16.667 -2.33301 -33 -3 -49c-0.666992 -16.667 -0.666992 -32 0 -46c1.33301 -14.667 4 -30 8 -46c4.66699 -15.333 -0.666016 -27 -15.999 -35
c-8 -4 -16.333 -5 -25 -3c-9.33301 2 -17.333 7 -24 15c-9.33301 -12 -20.666 -21.333 -33.999 -28s-27.666 -11 -42.999 -13c-8 -0.666992 -16 -1 -24 -1c-28 0 -56 6 -84 18c-36 16 -59.667 36.333 -71 61c-10.667 22 -17.334 49 -20.001 81
c-3.33301 32 -6.33301 63.333 -9 94c-1.33301 20.667 -2 41.667 -2 63v26c0.666992 30.667 3.33398 61 8.00098 91c7.33301 54.667 19.666 104.667 36.999 150c17.333 46 38.333 79.667 63 101c20 18 38.667 29.333 56 34c14.667 4.66699 31.334 7 50.001 7h8
c24.667 -0.666992 47.667 -8.66699 69 -24c22 -14.667 34.667 -32 38 -52c2 -8 1.66699 -16.333 -1 -25s-8.33398 -17 -17.001 -25c-6.66699 2.66699 -12.334 6.33398 -17.001 11.001c-4 4 -7.66699 8 -11 12c-6.66699 8 -14 15 -22 21
c-7.33301 6 -21.666 7.33301 -42.999 4c-48.667 -6 -85.334 -36.667 -110.001 -92c-25.333 -54.667 -39 -117.334 -41 -188.001v-50c0 -18.667 0.666992 -37.667 2 -57c2 -36 6.66699 -70.667 14 -104c6.66699 -32.667 17.667 -54.667 33 -66c14 -10.667 31.667 -15 53 -13
c21.333 1.33301 39 4.33301 53 9c22.667 24.667 38.667 56 48 94c8.66699 38.667 14.334 80.667 17.001 126c-12 8 -25.667 8.33301 -41 1c-15.333 -6.66699 -30 -8.33398 -44 -5.00098c-19.333 4 -30.666 16 -33.999 36c-4 20 1.66699 36.333 17 49
c14 -0.666992 27.333 0 40 2c12.667 1.33301 24.334 3 35.001 5c20.667 2.66699 39 3.33398 55 2.00098s31 -11 45 -29z" />
    <glyph glyph-name="H" unicode="H" 
d="M343 477c-1.33301 20 -2 40.334 -2 61.001c0.666992 20.667 0.666992 41 0 61c-0.666992 36.667 -3.66699 71 -9 103c-4.66699 31.333 -16.334 56.666 -35.001 75.999h-8h-9c-2.66699 -0.666992 -5 -2 -7 -4s-3.66699 -4.33301 -5 -7
c-7.33301 -52 -8.66602 -103.667 -3.99902 -155c4.66699 -50.667 6 -100 4 -148c-28.667 -2.66699 -55.667 -5 -81 -7s-54.333 0.666992 -87 8c-2.66699 16.667 -3.66699 35.334 -3 56.001c0 20.667 0.666992 42 2 64c1.33301 40.667 -0.333984 79 -5.00098 115
c-4.66699 36.667 -22 60 -52 70c-12.667 -12.667 -19 -29.334 -19 -50.001c0 -8 0.666992 -16.667 2 -26c7.33301 -33.333 11 -67 11 -101c-0.666992 -59.333 -1 -119.333 -1 -180v-172c0.666992 -17.333 -0.333008 -36.666 -3 -57.999s-2 -39.333 2 -54
c2 -8.66699 5.66699 -15.667 11 -21s12.666 -8.33301 21.999 -9c10.667 -1.33301 19.334 1 26.001 7c6 6 10.667 14.333 14 25c3.33301 11.333 5.33301 24.666 6 39.999s0.333984 31.666 -0.999023 48.999c-2 31.333 -4.66699 62.666 -8 93.999
c-3.33301 30.667 -3 52.667 1 66c31.333 -2.66699 59.333 -1.33398 84 3.99902c24 5.33301 50 5 78 -1c4 -11.333 7 -23.333 9 -36c1.33301 -13.333 1.66602 -27 0.999023 -41c-0.666992 -26 -2.66699 -52.667 -6 -80c-3.33301 -26.667 -3.66602 -51 -0.999023 -73
c2.66699 -17.333 8.66699 -32.333 18 -45c8.66699 -12 23.667 -19.667 45 -23c15.333 15.333 23 33.333 23 54v2c-0.666992 22.667 -1.66699 44.334 -3 65.001c-2 46.667 -3.66699 92.334 -5 137.001s-3 89.334 -5 134.001z" />
    <glyph glyph-name="I" unicode="I" horiz-adv-x="164" 
d="M45 791c-1.33301 -22.667 -0.334961 -43.6641 2.99805 -62.9971c3.33301 -18.667 5 -38.667 5 -60c0 -37.333 -1.66699 -79 -5 -125c-4 -46.667 -7.33301 -92.334 -10 -137.001c-2 -24 -3.33301 -47.333 -4 -70c-1.33301 -16.667 -2 -32.334 -2 -47.001
c0 -5.33301 0.333008 -10.666 1 -15.999v-25c0 -10 0.333008 -21.333 1 -34c1.33301 -22 4.33301 -44.667 9 -68c4 -23.333 11.333 -40.333 22 -51c5.33301 -6 12 -9.33301 20 -10h3c6.66699 0 14.334 2.33301 23.001 7c6 4 10.333 10.667 13 20
c2 6.66699 2.66699 15.334 2 26.001c-0.666992 24.667 -1.66699 50.667 -3 78c-2 47.333 -3.33301 89.666 -4 126.999c-0.666992 38 -0.666992 79 0 123c0.666992 41.333 4.33398 83.666 11.001 126.999c6 42.667 6.33301 84 1 124c-3.33301 25.333 -12 47.666 -26 66.999
c-7.33301 11.333 -17.333 17 -30 17c-8.66699 0 -18.667 -3.33301 -30 -10z" />
    <glyph glyph-name="J" unicode="J" horiz-adv-x="512" 
d="M334 693c-0.666992 -36.667 -1.66602 -75.6738 -2.99902 -117.007c-2 -41.333 -3.66699 -83.333 -5 -126c-1.33301 -46 0 -91 4 -135s2.66699 -84 -4 -120c-8 -44.667 -30.667 -76.667 -68 -96c-20.667 -10.667 -43.667 -16 -69 -16c-20 0 -41.667 3.66699 -65 11
c-37.333 21.333 -65 55.333 -83 102c-12 32.667 -18 68.334 -18 107.001c0 17.333 1.33301 35.333 4 54c20 6.66699 35.333 8.33398 46 5.00098c10 -3.33301 17.333 -9.66602 22 -18.999c4 -8 6.33301 -17.667 7 -29c1.33301 -10.667 2 -22 2 -34
c1.33301 -22.667 4 -44.667 8 -66c3.33301 -21.333 15.333 -35.666 36 -42.999c11.333 -4.66699 22 -6.66699 32 -6c9.33301 1.33301 17.666 4.33301 24.999 9c13.333 8 23.666 21 30.999 39c7.33301 17.333 11.666 34.333 12.999 51c2.66699 18.667 4.33398 40 5.00098 64
c1.33301 24 2.33301 49 3 75c0.666992 48.667 1 99.334 1 152.001s1 100 3 142c-10.667 2.66699 -24.667 3 -42 1c-17.333 -1.33301 -33.666 -1.66602 -48.999 -0.999023c-8 0.666992 -15.333 2.33398 -22 5.00098s-12 6.33398 -16 11.001c-4 16 -4 28.667 0 38
c3.33301 10 9.66602 17.333 18.999 22c22 12 54 15 96 9c42.667 -5.33301 81.334 -8 116.001 -8c16.667 0 32 2.33301 46 7c10.667 4 20 6 28 6c2 0 4.33301 -0.333008 7 -1c18.667 -2.66699 31.667 -14.334 39 -35.001c3.33301 -8.66699 5 -16.667 5 -24
c0 -10 -2.66699 -18.667 -8 -26c-25.333 -4.66699 -48 -7 -68 -7s-46 -0.333008 -78 -1z" />
    <glyph glyph-name="K" unicode="K" horiz-adv-x="410" 
d="M360 214l14 -26.0029c6 -11.333 11.333 -22.333 16 -33c2 -5.33301 3 -10.666 3 -15.999c0 -9.33301 -3.33301 -18 -10 -26c-11.333 -12.667 -21.666 -16 -30.999 -10c-18.667 12 -31.667 25.333 -39 40s-14 29 -20 43c-19.333 42.667 -41.333 83.667 -66 123
c-24 40 -48.333 78 -73 114c-14 -8.66699 -26 -19.667 -36 -33l-31 -38c-4.66699 -35.333 -5.66699 -74 -3 -116s3.33398 -80.333 2.00098 -115c-1.33301 -26 -9.33301 -39 -24 -39h-6c-18.667 4 -30.667 21 -36 51c-4.66699 26 -6.33398 55.333 -5.00098 88
c1.33301 33.333 1.33301 66.333 0 99c-1.33301 46.667 -1 100.334 1 161.001c2.66699 60.667 2.33398 116.667 -0.999023 168c-0.666992 22 -2.33398 43 -5.00098 63v9c0 16 5.66699 30.333 17 43c27.333 3.33301 42 -3.33398 44 -20.001
c1.33301 -17.333 2.66602 -35.666 3.99902 -54.999c2 -34.667 4.66699 -71.334 8 -110.001c3.33301 -38 3.33301 -74 0 -108c21.333 11.333 41.666 30 60.999 56l57 82c20.667 30 38.667 59.333 54 88c16 29.333 32.333 54.333 49 75c4 4 8.66699 6 14 6
s11.666 -2.33301 18.999 -7c14 -10 21.667 -17.667 23 -23c2 -8 1.66699 -16.333 -1 -25c-2 -9.33301 -5.66699 -18.666 -11 -27.999c-9.33301 -16.667 -20.666 -33 -33.999 -49c-14 -15.333 -23.667 -27.666 -29 -36.999c-16 -24.667 -31 -46.667 -45 -66
c-13.333 -20 -27.666 -40 -42.999 -60l80 -133z" />
    <glyph glyph-name="L" unicode="L" horiz-adv-x="389" 
d="M115 184c20.667 -9.33301 45.6641 -11.6699 74.9971 -7.00293c29.333 4 57.666 8.33301 84.999 13c14 2 27.667 3.33301 41 4c12.667 0.666992 23.334 -0.666016 32.001 -3.99902c11.333 -3.33301 19.333 -10.666 24 -21.999c2 -4.66699 3 -10.667 3 -18
c0 -9.33301 -1.33301 -20 -4 -32c-45.333 -15.333 -94.666 -24.666 -147.999 -27.999c-54 -3.33301 -110.667 -5 -170 -5c-14.667 18 -22 39.333 -22 64v7c2 28 2.66699 57.667 2 89c-2 84.667 -1.33301 174.667 2 270c4 96 7.33301 187.333 10 274c8 6.66699 16 10 24 10
c4.66699 0 9.66699 -1.66699 15 -5c12 -8 21 -16.333 27 -25c-3.33301 -106.667 -5.66602 -206.334 -6.99902 -299.001c-1.33301 -93.333 2.33398 -188.666 11.001 -285.999z" />
    <glyph glyph-name="M" unicode="M" horiz-adv-x="491" 
d="M408 101c-12.667 24.667 -20.001 47.332 -22.001 67.999c-1.33301 21.333 -2.33301 45.333 -3 72c-1.33301 64 -4.66602 122.667 -9.99902 176c-6 53.333 -8.33301 107.666 -7 162.999c-7.33301 -10.667 -13.666 -20.334 -18.999 -29.001s-10 -16.667 -14 -24
c-10 -17.333 -19 -33.666 -27 -48.999c-8 -14.667 -20.667 -33 -38 -55c-36 -12 -62.333 -9.33301 -79 8c-16.667 18 -31 40 -43 66l-21 41c-7.33301 14 -16 26 -26 36c-1.33301 -34 -1.33301 -69.667 0 -107l4 -111c2.66699 -49.333 6.33398 -99.666 11.001 -150.999
c5.33301 -52 1.66602 -90.667 -11.001 -116c-9.33301 -1.33301 -17.666 -2 -24.999 -2c-16 0 -27 4.33301 -33 13c-8 13.333 -12 32.333 -12 57c0 13.333 0.666992 28 2 44c0.666992 16 0.666992 32.333 0 49c-4 85.333 -6.66699 172.666 -8 261.999
c-0.666992 48 -1 93.333 -1 136c0 36.667 0.333008 71.334 1 104.001c24.667 10.667 43 9.66699 55 -3c11.333 -13.333 21.333 -27.333 30 -42l58 -105c23.333 -40 43 -72.333 59 -97c25.333 40.667 47.333 84.334 66 131.001c19.333 46 40.666 90.333 63.999 133
c12 2.66699 26.333 5.66699 43 9h9c13.333 0 24.333 -5.66699 33 -17c5.33301 -8 7.66602 -19.333 6.99902 -34c0 -15.333 0.333008 -29.666 1 -42.999c2 -69.333 3 -136.333 3 -201s1.66699 -135.334 5 -212.001c1.33301 -36 2.66602 -69.667 3.99902 -101v-10
c0 -27.333 -5.33301 -50 -16 -68c-8.66699 -2.66699 -15.667 -2.66699 -21 0c-5.33301 3.33301 -11.666 6.33301 -18.999 9z" />
    <glyph glyph-name="N" unicode="N" horiz-adv-x="471" 
d="M85 155c0 -14.667 -2.33105 -28.334 -6.99805 -41.001s-14 -23.667 -28 -33h-3c-18.667 0 -29.667 4.33301 -33 13c-4 8.66699 -6 21.334 -6 38.001c5.33301 74 9.66602 148.667 12.999 224c3.33301 74.667 5 148.667 5 222v92c-0.666992 29.333 0.666016 58 3.99902 86
c10.667 8.66699 23 12.334 37 11.001c14.667 -0.666992 26.667 -3 36 -7l127 -240l132 -260c4 24.667 5 55 3 91c-1.33301 35.333 -1.33301 72.666 0 111.999c1.33301 50.667 1.66602 98.667 0.999023 144c0 46 -0.666992 94.333 -2 145c4 16 11.667 24 23 24
c5.33301 0 11 -1.33301 17 -4c21.333 -9.33301 32.666 -25.333 33.999 -48c0.666992 -27.333 2 -61.333 4 -102c2 -32.667 3 -67 3 -103v-24c-0.666992 -51.333 -1.66699 -102.666 -3 -153.999s-2.66602 -96 -3.99902 -134c-0.666992 -20 -2 -42 -4 -66
s-8.33301 -39 -19 -45c-8.66699 -4 -18 -3.33301 -28 2s-20.333 14.333 -31 27c-20.667 23.333 -42.667 56.666 -66 99.999c-23.333 42.667 -46.666 88.667 -69.999 138l-68 151l-56 126c2 -25.333 3 -52 3 -80s-0.666992 -57 -2 -87
c-2.66699 -54.667 -5.66699 -109.667 -9 -165c-4 -56 -5 -107 -3 -153z" />
    <glyph glyph-name="O" unicode="O" 
d="M322 288c-2.66699 -26.667 -7.33496 -55.001 -14.002 -85.001c-7.33301 -29.333 -14.666 -50 -21.999 -62c-14 -24 -35.667 -41 -65 -51c-18 -6 -35.667 -9 -53 -9c-11.333 0 -22.666 1.33301 -33.999 4c-14.667 3.33301 -28.667 9.33301 -42 18s-24 20 -32 34
c-6 9.33301 -11.667 24.333 -17 45c-6 20.667 -9.66699 38.667 -11 54c-3.33301 31.333 -5 68.333 -5 111v7c0 46 1 90.333 3 133c1.33301 22.667 3 44.334 5 65.001c1.33301 20 3 37.667 5 53c4.66699 41.333 13.667 79.666 27 114.999c14 35.333 36.667 59.333 68 72
c12.667 2 24.667 3 36 3c25.333 0 47 -5.33301 65 -16c26 -14.667 46.333 -36.667 61 -66c17.333 -35.333 28.333 -77.666 33 -126.999c3.33301 -34 5 -68 5 -102c0 -15.333 -0.333008 -31 -1 -47c-1.33301 -26.667 -3 -52.667 -5 -78s-4.33301 -49 -7 -71zM98.999 307.999
l4.99805 -57c2 -23.333 6.66699 -43.333 14 -60c4 -9.33301 9 -17 15 -23c6 -6.66699 13.333 -10.334 22 -11.001c2.66699 -0.666992 5.33398 -1 8.00098 -1c13.333 0 25 5 35 15l4 4c12.667 15.333 23 32.666 31 51.999c4.66699 10.667 8.33398 21.334 11.001 32.001l7 29
c3.33301 22 6.66602 46 9.99902 72c2.66699 25.333 4.66699 51.333 6 78c2.66699 49.333 2 97.333 -2 144s-12.667 84.667 -26 114l-43 19c-5.33301 2.66699 -10.666 4 -15.999 4c-9.33301 0 -19 -3.66699 -29 -11c-6.66699 -13.333 -13 -30 -19 -50
c-5.33301 -20 -10 -42 -14 -66c-8 -45.333 -13.667 -94 -17 -146c-2 -31.333 -3 -60.666 -3 -87.999c0 -17.333 0.333008 -34 1 -50z" />
    <glyph glyph-name="P" unicode="P" horiz-adv-x="389" 
d="M339 740c15.333 -22 26.334 -54.668 33.001 -98.001c2 -14 3 -27 3 -39c0 -27.333 -5 -52 -15 -74c-6.66699 -13.333 -15 -25 -25 -35c-10.667 -9.33301 -22.667 -17.333 -36 -24c-24.667 -12 -52.667 -20 -84 -24s-62.666 -7.66699 -93.999 -11
c-2.66699 -24 -4 -51 -4 -81c0 -29.333 -1.33301 -65.666 -4 -108.999c-0.666992 -10 -1 -22 -1 -36c0.666992 -14 0.666992 -28 0 -42c-0.666992 -21.333 -3.33398 -40.333 -8.00098 -57s-14 -25.334 -28 -26.001c-12.667 0 -21 5.66699 -25 17
c-4.66699 12 -11.667 21.667 -21 29l6 115c2 36.667 3.66699 72.667 5 108c3.33301 66.667 4.33301 132.334 3 197.001c-0.666992 64.667 -5.33398 133.334 -14.001 206.001c4.66699 6 9.33398 11.667 14.001 17c5.33301 5.33301 10.333 10.666 15 15.999l59 4
c19.333 2 38.333 3.33301 57 4h13c29.333 0 56.666 -3 81.999 -9c29.333 -6.66699 52.333 -22.667 69 -48zM121.001 516.999l14.001 0.000976562c15.333 0 30.333 1.33301 45 4c4 0.666992 8.33301 1.33398 13 2.00098c13.333 3.33301 25.666 8 36.999 14
c27.333 14 46.666 34.667 57.999 62s9.33301 60.333 -6 99c-5.33301 7.33301 -12.333 12.666 -21 15.999c-8 3.33301 -17.333 5.66602 -28 6.99902c-7.33301 0.666992 -15 1 -23 1c-12.667 0 -26 -1 -40 -3c-23.333 -3.33301 -43.666 -6 -60.999 -8
c0 -28 1.33301 -60.667 4 -98c2 -36.667 4.66699 -68.667 8 -96z" />
    <glyph glyph-name="Q" unicode="Q" horiz-adv-x="451" 
d="M374 84l-5 -0.00292969c-14 -0.666992 -24.667 6 -32 20c-9.33301 16 -19.666 30.667 -30.999 44c-18 -4 -30.333 -11.667 -37 -23c-6.66699 -10.667 -18.667 -17.334 -36 -20.001c-22.667 -3.33301 -45 -2.66602 -67 2.00098c-22.667 4.66699 -41.667 12.667 -57 24
c-10.667 8.66699 -20.667 19.667 -30 33c-9.33301 14 -17.666 29.333 -24.999 46c-14 32 -24.667 67 -32 105c-6.66699 38 -10.334 73.333 -11.001 106v9c0 24.667 1.33301 49.334 4 74.001c2 27.333 5.66699 53.333 11 78c10 47.333 24.333 89 43 125
c19.333 36.667 42.666 62.334 69.999 77.001c29.333 8 56.333 12 81 12c6.66699 0 13 -0.333008 19 -1c30 -2.66699 56.333 -10.334 79 -23.001c42 -24.667 72 -63.667 90 -117c15.333 -44 23 -92 23 -144c0 -11.333 -0.333008 -22.666 -1 -33.999
c-3.33301 -48 -12.333 -93.667 -27 -137s-28.667 -80.333 -42 -111l33 -56c13.333 -24 18.666 -44.333 15.999 -61c-1.33301 -7.33301 -5 -13.333 -11 -18c-5.33301 -5.33301 -13.666 -8.66602 -24.999 -9.99902zM190 706.997c-22.667 -14 -41.332 -33.667 -55.999 -59
c-14 -26 -24.333 -54.667 -31 -86c-6.66699 -32.667 -10 -66.667 -10 -102c0 -29.333 2.33301 -59.333 7 -90c10 -68 27.333 -123.333 52 -166c10.667 -4.66699 21.334 -7 32.001 -7c12 0 24 3 36 9c20.667 10.667 36.334 24 47.001 40c-6 13.333 -16 33 -30 59
c-14 26.667 -19.333 49 -16 67c0.666992 6 3 11 7 15s10 7 18 9c7.33301 1.33301 13.666 1 18.999 -1s9.66602 -5 12.999 -9c6.66699 -8 12 -17.667 16 -29c3.33301 -12 8.66602 -22 15.999 -30c6.66699 17.333 13 37.333 19 60c6.66699 22 12 45.333 16 70
c3.33301 22 5 44.333 5 67c0 23.333 -2 46.333 -6 69c-6.66699 46 -28 82.667 -64 110c-6.66699 4.66699 -15.667 10 -27 16c-4 2 -8.66699 3 -14 3c-12 0 -28.333 -5 -49 -15z" />
    <glyph glyph-name="R" unicode="R" horiz-adv-x="410" 
d="M330 255c9.33301 -22.667 21.3271 -45.3301 35.9941 -67.9971c12 -18.667 18.333 -36 19 -52c0 -3.33301 -0.333008 -6.33301 -1 -9c-1.33301 -8 -6.33301 -16.667 -15 -26c-9.33301 -8.66699 -19.666 -12.667 -30.999 -12c-14.667 2 -25.667 10 -33 24
c-8 14 -14.333 29.667 -19 47c-2.66699 10 -5 19.667 -7 29s-4.33301 17.666 -7 24.999c-10.667 30 -24.667 64.333 -42 103c-17.333 39.333 -31.333 76 -42 110c-18 0.666992 -33.333 -1.33301 -46 -6s-29 -5.66699 -49 -3c0.666992 -30.667 -0.333008 -67.667 -3 -111
c-2.66699 -44 -3.33398 -84.667 -2.00098 -122c1.33301 -17.333 3 -36.666 5 -57.999c2 -20.667 -8 -33.334 -30 -38.001c-5.33301 -0.666992 -10 -1 -14 -1c-6.66699 0 -12 1 -16 3c-8 3.33301 -13.667 8.66602 -17 15.999c-5.33301 10.667 -8 23.667 -8 39
c0 5.33301 0.333008 10.666 1 15.999c2 22.667 3.33301 43 4 61c2.66699 48 4 106.667 4 176c0.666992 70 -0.666016 137.667 -3.99902 203c-1.33301 31.333 -1.66602 62.333 -0.999023 93c0 30 3.33301 55.667 10 77c16.667 7.33301 33.334 12.333 50.001 15
c16.667 2 35 4 55 6c2.66699 0.666992 5.33398 1 8.00098 1h6c4.66699 -0.666992 9.33398 -1 14.001 -1c26 2 49.667 -1.66699 71 -11c22 -9.33301 40.667 -22.333 56 -39c29.333 -30.667 46.666 -69 51.999 -115c6 -46 -5 -88 -33 -126
c-9.33301 -6.66699 -18.666 -13 -27.999 -19s-16.666 -13.667 -21.999 -23l36 -97zM83.9941 701.004v-34.001c0 -19.333 0.333008 -40.666 1 -63.999c2 -38 4.66699 -72 8 -102h5c19.333 -0.666992 36.666 1.33301 51.999 6c14 4.66699 26 11 36 19l65 54
c6.66699 20 9.33398 37.667 8.00098 53s-6 28.333 -14 39c-14.667 20 -37 32.333 -67 37c-10 1.33301 -19.667 2 -29 2c-21.333 0 -43 -3.33301 -65 -10z" />
    <glyph glyph-name="S" unicode="S" horiz-adv-x="389" 
d="M107 609c-2.66699 -29.333 11.3271 -51.335 41.9941 -66.002s63.667 -26 99 -34c48 -22 80 -53 96 -93c14.667 -34.667 21.667 -72.667 21 -114v-22c-1.33301 -24.667 -9.66602 -51.667 -24.999 -81c-15.333 -28.667 -34.666 -53.334 -57.999 -74.001
c-12.667 -10.667 -26 -19.667 -40 -27s-28.667 -11.666 -44 -12.999c-4.66699 -0.666992 -9.66699 -1 -15 -1c-14.667 0 -28.667 2.33301 -42 7c-18.667 6 -35.667 14.667 -51 26c-28.667 22.667 -49.667 53 -63 91c-6.66699 18.667 -10 37.667 -10 57
c0 20 3.66699 40.333 11 61c14 3.33301 25 3.33301 33 0c8.66699 -4 15.334 -9.66699 20.001 -17c4 -6.66699 7.33301 -14.334 10 -23.001l6 -26c3.33301 -17.333 7.33301 -33.666 12 -48.999c4 -16 12.333 -26.333 25 -31c18 -5.33301 34.333 -7 49 -5
c14.667 2.66699 28 7.66699 40 15c22 14 38.667 34.333 50 61s17 51.667 17 75c0 14 -5 32.667 -15 56c-10 22.667 -19 37.334 -27 44.001s-18.333 11.667 -31 15l-40 10c-12.667 3.33301 -27.667 8.66602 -45 15.999c-16.667 7.33301 -30.334 14.666 -41.001 21.999
c-32.667 20.667 -52.667 51.334 -60 92.001c-7.33301 41.333 -4.33301 77 9 107c9.33301 18.667 21.333 34 36 46c15.333 11.333 31.333 21 48 29c13.333 7.33301 29.333 11.333 48 12h5c17.333 0 34.333 -2.33301 51 -7c28.667 -6.66699 53.334 -18.667 74.001 -36
c20.667 -16.667 29 -35.667 25 -57c-1.33301 -8 -4 -14.333 -8 -19c-3.33301 -4 -7.66602 -6.33301 -12.999 -7c-12 -2 -25.333 2.33301 -40 13c-15.333 10.667 -26.666 20.667 -33.999 30c-29.333 14.667 -56.666 15.334 -81.999 2.00098
c-24.667 -13.333 -39 -41.666 -43 -84.999z" />
    <glyph glyph-name="T" unicode="T" horiz-adv-x="471" 
d="M447 712c-8.66699 -6 -17.334 -10 -26.001 -12c-9.33301 -2 -18.666 -2.66699 -27.999 -2c-18.667 0.666992 -38.334 3.33398 -59.001 8.00098s-43.334 5.33398 -68.001 2.00098c-1.33301 -22 -2.33301 -46.667 -3 -74c-1.33301 -27.333 -2 -56.333 -2 -87
c-1.33301 -56 -2 -114 -2 -174c0 -60.667 0.666992 -114.334 2 -161.001c0.666992 -19.333 2.33398 -42.333 5.00098 -69s-3.33301 -44 -18 -52c-7.33301 -4.66699 -14.333 -7 -21 -7c-8.66699 0 -16.334 4 -23.001 12c-12 14 -23 25.333 -33 34
c2 94.667 4.33301 190.667 7 288c2 97.333 2.33301 194 1 290c-21.333 6.66699 -43.666 8.66699 -66.999 6c-22.667 -2 -44.667 -5.66699 -66 -11c-10 7.33301 -17.333 17.666 -22 30.999c-2 6.66699 -3 13.667 -3 21c0 6.66699 1 14 3 22c22 6 44.333 10.333 67 13
s45.334 4 68.001 4h11c38 0 76.333 -1.66699 115 -5c42.667 -3.33301 85 -3 127 1c10.667 -8.66699 19.667 -18.667 27 -30c5.33301 -9.33301 8 -21.333 8 -36v-12z" />
    <glyph glyph-name="U" unicode="U" horiz-adv-x="409" 
d="M222 87c-4 -0.666992 -8.33691 -1.00488 -13.0039 -1.00488c-19.333 0 -40.666 4 -63.999 12c-28 10.667 -47 21.334 -57 32.001c-13.333 14.667 -24 32.334 -32 53.001c-8 20 -14.333 42.333 -19 67c-7.33301 44.667 -10.333 93.667 -9 147
c2 53.333 3 104.666 3 153.999c0.666992 44 0 86.667 -2 128c-0.666992 14 -1 28 -1 42c0 24.667 1 47.334 3 68.001c34.667 6.66699 56.667 -1.33301 66 -24s14 -51.334 14 -86.001c0 -18 -0.333008 -37 -1 -57c-1.33301 -20 -1.33301 -39.333 0 -58
c2 -61.333 2.33301 -119.666 1 -174.999c-1.33301 -54.667 5.33398 -105 20.001 -151c6.66699 -20 20.334 -37 41.001 -51c21.333 -14 44 -11.333 68 8c14 11.333 24.333 35 31 71c6.66699 36.667 11.667 74 15 112l4 58c0.666992 18 1.33398 33 2.00098 45
c2.66699 55.333 2 108.666 -2 159.999c-3.33301 52 -2.66602 100 2.00098 144c12 5.33301 22.667 8 32 8c4 0 8 -0.666992 12 -2c11.333 -3.33301 20.333 -10.333 27 -21c6 -8.66699 10.333 -19.667 13 -33c3.33301 -13.333 5.66602 -27.666 6.99902 -42.999
c0.666992 -15.333 1 -31.666 1 -48.999c0 -14.667 -0.333008 -29.667 -1 -45c-2 -34 -3.33301 -65 -4 -93c-1.33301 -28.667 -3.33301 -60.667 -6 -96s-5 -64 -7 -86c-4 -33.333 -10.667 -68 -20 -104s-20 -65 -32 -87c-19.333 -11.333 -35 -21.666 -47 -30.999
c-11.333 -9.33301 -26.333 -14.666 -45 -15.999z" />
    <glyph glyph-name="V" unicode="V" horiz-adv-x="491" 
d="M235 287c22.667 44 40.335 91.665 53.002 142.998c13.333 52 28.666 103 45.999 153c11.333 32.667 21.666 66 30.999 100s23.333 65 42 93c18.667 2 32 -1.66699 40 -11l24 -28c-26.667 -108 -60 -212.333 -100 -313c-39.333 -101.333 -69 -205.666 -89 -312.999
c-6.66699 -19.333 -20.667 -29 -42 -29h-1c-20 0 -35.667 8 -47 24c-8.66699 12.667 -14.334 32.667 -17.001 60s-7 54.666 -13 81.999c-4.66699 21.333 -10.334 44 -17.001 68c-6 24.667 -12.333 49.334 -19 74.001l-38 138c-13.333 46 -24.333 85.667 -33 119
c-2.66699 8.66699 -5.66699 17.334 -9 26.001c-4 8.66699 -7.66699 17.334 -11 26.001c-6.66699 15.333 -11 30 -13 44c-0.666992 2 -1 4 -1 6c0 11.333 5.66699 21.666 17 30.999h2c10.667 0 19.334 -2 26.001 -6c7.33301 -4 15 -7.66699 23 -11
c28 -76 53 -154.667 75 -236c22.667 -81.333 46.334 -161.333 71.001 -240z" />
    <glyph glyph-name="W" unicode="W" horiz-adv-x="635" 
d="M314 339c-21.333 -38.667 -40.666 -77.665 -57.999 -116.998c-18 -39.333 -33.667 -80.666 -47 -123.999c-5.33301 -2.66699 -10.333 -6 -15 -10c-4 -4.66699 -8.66699 -7 -14 -7c-12.667 5.33301 -23.334 12.333 -32.001 21c-9.33301 8.66699 -17.666 18 -24.999 28
c-2 21.333 -7 53.666 -15 96.999l-25 142c-4.66699 27.333 -9.66699 55 -15 83c-4.66699 28 -9 55.667 -13 83c-8 50 -14.333 96 -19 138c-3.33301 27.333 -5 50.333 -5 69c0 9.33301 0.333008 17.333 1 24c9.33301 8.66699 19.666 10.667 30.999 6
c10.667 -4 21 -7.33301 31 -10c16.667 -79.333 31 -161.333 43 -246s26.333 -166.667 43 -246c12 13.333 23.667 30.333 35 51l32 67c7.33301 15.333 18 35.666 32 60.999c14 26 28.667 40.667 44 44c6.66699 2 13.334 0.666992 20.001 -4c6 -4.66699 12 -13.334 18 -26.001
c1.33301 -4.66699 6.33301 -19.334 15 -44.001l25 -80l15 -55c4.66699 -17.333 8 -31.666 10 -42.999c24.667 82.667 46 169 64 259c17.333 90.667 37 180.667 59 270c10.667 4 20 6 28 6c17.333 0 28.666 -9 33.999 -27c4 -12.667 6 -26.334 6 -41.001
c0 -15.333 -2 -31.333 -6 -48l-29 -125l-35 -149c-6 -26 -12.333 -51.667 -19 -77c-6 -26 -12 -50 -18 -72c-10.667 -42 -20 -76.667 -28 -104c-8.66699 -26.667 -15 -40 -19 -40c-30.667 -7.33301 -52.667 -1.66602 -66 17.001c-13.333 18 -25.666 45.667 -36.999 83
l-20 67c-6.66699 24.667 -15.334 51 -26.001 79z" />
    <glyph glyph-name="X" unicode="X" horiz-adv-x="471" 
d="M294 436c22 -60 43.3311 -112.333 63.998 -157s41 -97.667 61 -159c0 -12.667 -3 -21.334 -9 -26.001c-6 -4 -12 -8.66699 -18 -14c-29.333 8.66699 -45.666 22 -48.999 40c-2.66699 18.667 -9 40 -19 64l-41 94c-15.333 35.333 -27.666 66.333 -36.999 93
c-12.667 -16 -26 -37.667 -40 -65l-42 -80l-13 -26c-4 -10 -8.33301 -20 -13 -30c-8 -19.333 -16.667 -36.666 -26 -51.999c-10 -16 -20.667 -25 -32 -27c-17.333 -2 -31 0.333008 -41 7s-15.333 16 -16 28v2c0 7.33301 2 16.333 6 27c4.66699 12 10.667 25 18 39
c10.667 20.667 22 41.334 34 62.001l28 45c18 29.333 35 55.666 51 78.999c16 22.667 31.333 47 46 73l-25 62c-8.66699 21.333 -18.667 42.666 -30 63.999l-18 33l-20 37c-12.667 22.667 -22 44.334 -28 65.001c-6.66699 20 -4.33398 33.667 6.99902 41
c7.33301 3.33301 14 4.33301 20 3s11.667 -4 17 -8c12.667 -10 23.667 -25.333 33 -46c8.66699 -20 16.334 -36.667 23.001 -50c10 -20.667 23 -43.667 39 -69c15.333 -26 26.333 -47.333 33 -64l31 47l36 61c12 22.667 23 50 33 82s23.333 52.667 40 62
c4.66699 2.66699 10 4 16 4c2.66699 0 5.66699 -0.333008 9 -1c9.33301 -2.66699 20 -9.66699 32 -21c-14 -66 -37.333 -122.333 -70 -169c-32.667 -47.333 -62.667 -97.333 -90 -150z" />
    <glyph glyph-name="Y" unicode="Y" horiz-adv-x="409" 
d="M170 268c2 24 4.00488 50.332 6.00488 78.999c2 29.333 0 54 -6 74c-4 16.667 -10.333 35 -19 55c-8.66699 20.667 -17.334 40.334 -26.001 59.001c-9.33301 20.667 -20 40.667 -32 60c-12 18.667 -22 35.334 -30 50.001c-4 6 -8.33301 12 -13 18
s-9.33398 12.333 -14.001 19c-8 11.333 -13.333 23.333 -16 36v6c0 10.667 6 23 18 37c26 -2 45 -13.667 57 -35l34 -61l36 -65l36 -64c21.333 19.333 37.666 42.666 48.999 69.999l34 83c6 15.333 12.333 30 19 44c7.33301 14.667 15.666 28 24.999 40
c5.33301 2 10.333 3 15 3c7.33301 -0.666992 14 -3 20 -7c10 -6.66699 16.333 -15 19 -25v-7c0 -9.33301 -2.66699 -21.333 -8 -36c-7.33301 -19.333 -16 -38.333 -26 -57c-6.66699 -13.333 -13 -25.333 -19 -36l-14 -25c-12.667 -24 -26.334 -48.333 -41.001 -73
c-15.333 -25.333 -25 -52.333 -29 -81c-6 -40.667 -7.33301 -80.667 -4 -120s5 -77.333 5 -114c0 -19.333 -1.33301 -38 -4 -56c-2 -18.667 -6.66699 -36.334 -14 -53.001c-8.66699 -2 -16.334 -3 -23.001 -3c-5.33301 0 -10.333 0.666992 -15 2
c-9.33301 2.66699 -16.666 8 -21.999 16c-12 18 -15 44 -9 78c6 34.667 9.66699 64.334 11 89.001z" />
    <glyph glyph-name="Z" unicode="Z" horiz-adv-x="471" 
d="M423 172l7.99707 -26.998c2.66699 -8.66699 4.33398 -18.334 5.00098 -29.001c-10.667 -20.667 -24.667 -31 -42 -31c-2 0 -4 0.333008 -6 1c-20 2.66699 -43.667 4 -71 4c-22 0.666992 -44 0 -66 -2c-22.667 -2 -43.667 -2.66699 -63 -2
c-15.333 0.666992 -29.666 1.66699 -42.999 3c-14 0.666992 -26 0.666992 -36 0c-8 -0.666992 -16.667 -1.66699 -26 -3s-17 -1.33301 -23 0c-10.667 2 -19.667 10 -27 24c-7.33301 12.667 -11.333 25 -12 37c0 1.33301 0.333008 2.33301 1 3c0 12.667 5.66699 26.667 17 42
s21.333 30 30 44c9.33301 16 18.333 30.667 27 44c8.66699 12.667 16.334 25.334 23.001 38.001c4 6 8.33301 13.333 13 22s9.33398 16.667 14.001 24c28.667 44.667 60.334 97.667 95.001 159s64 115.333 88 162c-34 6 -69.333 7.33301 -106 4s-69.667 -3.33301 -99 0
c-8.66699 6 -13 18 -13 36s4.33301 30.333 13 37c47.333 7.33301 94.666 10.333 141.999 9c46.667 -0.666992 89 2 127 8c16 -1.33301 27.667 -4.33301 35 -9c8 -4.66699 13 -10.334 15 -17.001c0.666992 -4 1 -8 1 -12c0 -10.667 -3.66699 -22.667 -11 -36
c-10 -18.667 -20.333 -36.667 -31 -54l-131 -231c-44.667 -75.333 -88 -152.333 -130 -231c14 -4.66699 29.333 -7.33398 46 -8.00098s34 -0.666992 52 0l99 4c33.333 2 61.666 -2.33301 84.999 -13z" />
    <glyph glyph-name="a" unicode="a" horiz-adv-x="492" 
d="M307 702c2.66699 -9.33301 6.66797 -21.998 12.001 -37.998l18 -56l44 -134c16.667 -50.667 32.334 -100.667 47.001 -150c14.667 -50.667 27 -97 37 -139c9.33301 -38.667 14 -68 14 -88v-6c-7.33301 -5.33301 -15.333 -8 -24 -8
c-2.66699 0 -5.33398 0.333008 -8.00098 1c-11.333 2 -22.333 4.33301 -33 7c-6 12.667 -11 26.334 -15 41.001c-4.66699 14.667 -8.33398 29.667 -11.001 45l-18 88c-6 28.667 -15.667 54 -29 76h-80c-22.667 -0.666992 -49 0.666016 -79 3.99902
c-10.667 -13.333 -20.334 -32.666 -29.001 -57.999s-19 -52 -31 -80l-30 -69c-11.333 -26 -24.666 -41.667 -39.999 -47c-7.33301 -2.66699 -14.666 -2.33398 -21.999 0.999023s-15.333 10.333 -24 21c0 4 6.33301 20.333 19 49c12 28 23 51.667 33 71l95 259
c31.333 86 59.666 175.667 84.999 269v0v1c6.66699 6.66699 12.667 10.667 18 12c2 0.666992 4 1 6 1c3.33301 0 6.33301 -1 9 -3c8.66699 -4.66699 16 -14.334 22 -29.001c5.33301 -14.667 10 -28.334 14 -41.001zM208.001 427.002c20 0 38.334 -1.33301 55.001 -4
c10 -1.33301 21 -2 33 -2c7.33301 0 15.333 0.333008 24 1l-27 95c-8.66699 31.333 -18.334 64.333 -29.001 99c-6 -34.667 -14.667 -67 -26 -97c-11.333 -29.333 -21.333 -60 -30 -92z" />
    <glyph glyph-name="b" unicode="b" horiz-adv-x="308" 
d="M303 294c0.666992 -8.66699 1 -16.998 1 -24.998c0 -32 -4.33301 -58.667 -13 -80c-11.333 -26 -33.333 -47.667 -66 -65c-12.667 -4 -25.667 -8.33301 -39 -13s-26.666 -8.66699 -39.999 -12c-20 -5.33301 -40 -8 -60 -8h-14c-24 2 -46.333 13 -67 33
c6.66699 54 8.66699 111.667 6 173c-2.66699 62 -3.33398 121.333 -2.00098 178c0.666992 20.667 1.66699 42.667 3 66c0.666992 23.333 1 46.333 1 69c0.666992 11.333 0.666992 24.333 0 39c-0.666992 15.333 -2 28.666 -4 39.999c-2.66699 18 -3.66699 32.333 -3 43
c0 10 5 22 15 36c36 9.33301 64 15.333 84 18h12c17.333 0 36.333 -4.66699 57 -14c14.667 -7.33301 27.667 -18 39 -32s20.666 -30 27.999 -48c13.333 -34.667 18.333 -72.334 15 -113.001s-17.333 -75.334 -42 -104.001c22.667 -22 42.667 -47 60 -75
c16.667 -27.333 26.334 -62.666 29.001 -105.999zM80 487.002c8 -1.33301 15.666 -2 22.999 -2c6.66699 0 13 0.666992 19 2c3.33301 0.666992 6.33301 1.66699 9 3c8.66699 2.66699 16.334 7 23.001 13c9.33301 7.33301 17.333 17 24 29c6 11.333 10.333 23.666 13 36.999
c5.33301 24.667 4.66602 49.334 -2.00098 74.001s-19 43 -37 55c-9.33301 6 -20.333 9.66699 -33 11h-8c-10.667 0 -22.334 -2.33301 -35.001 -7c2.66699 -28.667 4.33398 -60.667 5.00098 -96c0.666992 -36 0.333984 -75.667 -0.999023 -119zM83.999 187.002
c15.333 -4.66699 29.334 -7.00098 42.001 -7.00098c8 0 15.667 1 23 3c12 3.33301 22.333 8.66602 31 15.999c4 2.66699 7.66699 6 11 10c16 18.667 25 42.334 27 71.001c2.66699 28.667 -0.666016 55.334 -9.99902 80.001c-5.33301 13.333 -12 25 -20 35
s-17.333 17.667 -28 23c-8.66699 4 -18.334 6 -29.001 6h-5c-12.667 -1.33301 -26.334 -6 -41.001 -14v-47v-74v-44c-0.666992 -16.667 -1 -36 -1 -58z" />
    <glyph glyph-name="c" unicode="c" horiz-adv-x="328" 
d="M241 693c-25.333 4 -50.3291 -3.00098 -74.9961 -21.001s-41.667 -38 -51 -60c-2.66699 -6.66699 -5.66699 -15 -9 -25c-4 -9.33301 -7.33301 -19 -10 -29c-4 -12 -6.66699 -22.667 -8 -32c-2 -10 -3.66699 -20.667 -5 -32c-6 -42.667 -8 -86 -6 -130s8 -84.333 18 -121
c2 -5.33301 11.333 -17.666 28 -36.999c16 -18.667 35 -30.667 57 -36c9.33301 -2 18.666 -2 27.999 0c10 2 19.667 7.66699 29 17c9.33301 8.66699 15.333 17.334 18 26.001c2 8.66699 8 14.667 18 18c10 0 18 -1.66699 24 -5s11 -8 15 -14
c5.33301 -8.66699 8 -18.667 8 -30c0 -6 -1 -12 -3 -18c-4 -19.333 -10.667 -34.666 -20 -45.999c-17.333 -13.333 -36 -22.333 -56 -27c-13.333 -3.33301 -26.666 -5 -39.999 -5c-6.66699 0 -13.334 0.333008 -20.001 1c-36.667 4.66699 -70.334 19.334 -101.001 44.001
c-31.333 24.667 -52 54 -62 88c-8 26.667 -13 60 -15 100c-0.666992 17.333 -1 34.666 -1 51.999c0 22 0.666992 43.667 2 65s3 41.333 5 60c2.66699 19.333 5.66699 36.333 9 51c12 53.333 32.333 104 61 152c28.667 47.333 69 73.666 121 78.999c4 0.666992 8 1 12 1
c15.333 0 31.666 -3.33301 48.999 -10c22 -8 38.333 -20.333 49 -37c5.33301 -9.33301 8.33301 -19.333 9 -30c0.666992 -11.333 -2.33301 -24 -9 -38c-16 -0.666992 -28.333 3.66602 -37 12.999c-8.66699 8.66699 -19.334 14 -32.001 16z" />
    <glyph glyph-name="d" unicode="d" horiz-adv-x="369" 
d="M257 708c17.333 -10 33.3301 -29.998 47.9971 -59.998c14 -30 25 -65 33 -105c4.66699 -21.333 8.33398 -43.666 11.001 -66.999c2 -22.667 3 -45.667 3 -69v-1c0 -35.333 -3 -70 -9 -104c-6.66699 -34 -17 -64 -31 -90c-8 -20 -25.333 -41.333 -52 -64
s-58 -40.334 -94 -53.001c-19.333 -6.66699 -39.666 -11.334 -60.999 -14.001c-8 -0.666992 -16 -1 -24 -1c-12.667 0 -25.667 1 -39 3c-14 27.333 -21 58.333 -21 93v20c3.33301 43.333 5 86.666 5 129.999c0 56.667 1.66699 115.667 5 177
c3.33301 60.667 3 118.334 -1 173.001c-1.33301 22.667 -2 43.334 -2 62.001c-0.666992 19.333 12 31.666 38 36.999c10.667 2.66699 21.334 4 32.001 4c24 0 48.333 -6 73 -18c35.333 -16.667 64 -34.334 86 -53.001zM271.997 335.002c0.666992 15.333 1.33301 31.667 2 49
c0.666992 16 1 32 1 48v4c0 33.333 -1.66699 65.333 -5 96c-3.33301 30 -9.33301 54.333 -18 73c-28.667 42.667 -55 68 -79 76c-15.333 5.33301 -32 8 -50 8c-10 0 -20.667 -0.666992 -32 -2c8 -80.667 9.33301 -164.667 4 -252c-6 -87.333 -4.66699 -179.333 4 -276
c42 12 80.333 30 115 54s54 64.667 58 122z" />
    <glyph glyph-name="e" unicode="e" horiz-adv-x="274" 
d="M103 172c20.667 -1.33301 47.001 -0.334961 79.001 2.99805c32 2.66699 56 -2 72 -14c6.66699 -5.33301 11.334 -12.666 14.001 -21.999c2 -9.33301 0.666992 -21.333 -4 -36c-28.667 -10.667 -61.334 -14 -98.001 -10s-71.334 2 -104.001 -6
c-27.333 15.333 -40.666 41.666 -39.999 78.999c0.666992 36.667 0.666992 76.334 0 119.001c-1.33301 65.333 -1.33301 135 0 209c0.666992 74 -2 140.333 -8 199c-1.33301 14.667 -4.33301 28.334 -9 41.001c-0.666992 2.66699 -1 5.66699 -1 9
c-0.666992 10 4 20.333 14 31c28 0.666992 57.667 1.33398 89 2.00098c30.667 0.666992 60.334 5.33398 89.001 14.001c10.667 -6.66699 22.334 -16 35.001 -28c13.333 -12.667 15 -26.334 5 -41.001c-20.667 -14.667 -45 -20.667 -73 -18
c-28 3.33301 -57 2.66602 -87 -2.00098c3.33301 -36.667 4.66602 -77 3.99902 -121c-0.666992 -44.667 1.66602 -86.667 6.99902 -126c19.333 -8 42.666 -9.66699 69.999 -5c28 5.33301 51.333 5 70 -1c10 -2.66699 17.667 -8.33398 23 -17.001c6 -9.33301 8 -23 6 -41
c-19.333 -11.333 -45 -16.666 -77 -15.999s-61.333 2 -88 4c-1.33301 -30 -1.33301 -63.667 0 -101c2 -37.333 6 -72.333 12 -105z" />
    <glyph glyph-name="f" unicode="f" horiz-adv-x="267" 
d="M29 776c12.667 4 26.6699 7.66602 42.0029 10.999c15.333 2.66699 31 5 47 7c15.333 1.33301 30.666 2 45.999 2c13.333 0 26.333 -0.666992 39 -2c27.333 -2.66699 46.666 -9.66699 57.999 -21c5.33301 -5.33301 8.33301 -12 9 -20
c0.666992 -8.66699 -2.33301 -18.334 -9 -29.001c-32.667 -7.33301 -62 -11.333 -88 -12c-25.333 0 -55.333 -4 -90 -12c-0.666992 -34.667 0.333008 -72 3 -112c2 -39.333 4.33301 -78.666 7 -117.999c22.667 -0.666992 43.334 -1 62.001 -1
c18.667 0.666992 38 2.33398 58 5.00098c19.333 -2 31 -9.33301 35 -22c3.33301 -12.667 2 -28.667 -4 -48c-22 -8 -45.333 -11.333 -70 -10c-24.667 0.666992 -50.334 -1.33301 -77.001 -6c2.66699 -28.667 2.66699 -62 0 -100s-2.66699 -74.333 0 -109
c0.666992 -11.333 1 -27.333 1 -48c0.666992 -9.33301 0 -17.333 -2 -24c-2 -8.66699 -5.66699 -15.667 -11 -21c-4 -4 -9 -6.33301 -15 -7h-2c-6 0 -12.667 2 -20 6c-16.667 8 -25 23.333 -25 46l-2 66c-2 40.667 -3 79.667 -3 117
c0.666992 37.333 0.333984 76.333 -0.999023 117c-2 43.333 -5 89.333 -9 138c-2 31.333 -3 60 -3 86c0 15.333 0.333008 29.333 1 42c1.33301 20 3.66602 36.667 6.99902 50c3.33301 14 8.66602 23.667 15.999 29z" />
    <glyph glyph-name="g" unicode="g" horiz-adv-x="376" 
d="M362 454c0.666992 -5.33301 1.00098 -11.333 1.00098 -18c0 -14.667 -1.33301 -32.334 -4 -53.001l-10 -93l-4 -50c-0.666992 -16.667 -0.333984 -32 0.999023 -46c0.666992 -15.333 3.33398 -31 8.00098 -47s-1 -28 -17 -36c-8 -4 -16.333 -5 -25 -3
c-9.33301 2 -17.333 7 -24 15c-10 -12 -21.667 -21.333 -35 -28c-14 -6.66699 -28.667 -11 -44 -13c-8 -1.33301 -16 -2 -24 -2c-28 0 -56.333 6.33301 -85 19c-37.333 16 -61.666 36.333 -72.999 61c-10.667 23.333 -17.667 51 -21 83l-8 95c-2 22 -3 44 -3 66
c0 8.66699 0.333008 17.334 1 26.001c0.666992 31.333 3 61.666 7 90.999c8 56 20.667 107.333 38 154c18 46 39.667 80 65 102c20 18.667 38.667 30.334 56 35.001c15.333 4.66699 32.666 7 51.999 7h7c25.333 -0.666992 49 -8.66699 71 -24s35 -33 39 -53
c1.33301 -8.66699 0.666016 -17.334 -2.00098 -26.001s-8 -17.334 -16 -26.001c-7.33301 3.33301 -13.333 7 -18 11l-11 13c-6.66699 8.66699 -14 15.667 -22 21c-8 6 -23 7.66699 -45 5c-48.667 -6.66699 -86 -38 -112 -94c-25.333 -56 -39 -120 -41 -192v-50
c0 -19.333 0.666992 -38.666 2 -57.999c2 -37.333 6.66699 -72.666 14 -105.999s18.666 -55.666 33.999 -66.999c14 -10.667 32 -15.334 54 -14.001c21.333 1.33301 39 4.66602 53 9.99902c24 24.667 40.333 56.667 49 96c9.33301 39.333 15.333 81.666 18 126.999
c-12.667 8.66699 -26.667 9.33398 -42 2.00098s-30.333 -9.33301 -45 -6c-19.333 4.66699 -31 17 -35 37c-3.33301 20.667 2.66699 37.334 18 50.001c26.667 -0.666992 50.667 1.33301 72 6c20.667 4.66699 39.334 6 56.001 4c9.33301 -1.33301 18.333 -4.33301 27 -9
c8 -4.66699 15.667 -12 23 -22z" />
    <glyph glyph-name="h" unicode="h" horiz-adv-x="390" 
d="M374 208c1.33301 -22.667 3.00391 -45.6689 5.00391 -69.002v-6c0 -21.333 -7.66699 -39.666 -23 -54.999c-22.667 2.66699 -39 10.334 -49 23.001c-10.667 12.667 -17.334 28.667 -20.001 48c-2 12 -3 25 -3 39c0 14.667 0.333008 29.667 1 45c2 28 3 56.333 3 85
c0.666992 29.333 -4 54.666 -14 75.999c-30 6 -58 5.66699 -84 -1c-25.333 -6.66699 -55 -9 -89 -7c-2 -8 -2.66699 -19 -2 -33c0.666992 -13.333 2 -28.666 4 -45.999c4 -31.333 8 -65 12 -101c4 -35.333 3 -64.666 -3 -87.999
c-2.66699 -11.333 -7.33398 -20.333 -14.001 -27s-16 -9.66699 -28 -9c-10 1.33301 -18 4.66602 -24 9.99902c-5.33301 5.33301 -9.33301 12.333 -12 21c-4.66699 16.667 -6 36.334 -4 59.001c1.33301 22.667 1.66602 43.334 0.999023 62.001c-2.66699 58 -5 119.333 -7 184
l-6 193c-0.666992 24 -3.66699 48 -9 72c-4.66699 23.333 -7.33398 45 -8.00098 65v1c0 10.667 1.33301 20.334 4 29.001c2.66699 9.33301 7 17.333 13 24c33.333 -10 53 -34.667 59 -74c6.66699 -38.667 9.66699 -79.667 9 -123v-69c0.666992 -22 2.66699 -41.667 6 -59
c35.333 -6.66699 66.666 -8.66699 93.999 -6l86 10c0.666992 52 -2.66602 105.333 -9.99902 160c-6.66699 54.667 -7 109.667 -1 165c1.33301 3.33301 3 6 5 8s4.66699 3.66699 8 5h9h8c11.333 -10.667 20.333 -23.334 27 -38.001s12 -31.334 16 -50.001
c7.33301 -32.667 11.333 -69.667 12 -111c0.666992 -40.667 2.66699 -81.334 6 -122.001c4 -48 7.66699 -95.667 11 -143c3.33301 -48 7 -97 11 -147z" />
    <glyph glyph-name="i" unicode="i" horiz-adv-x="184" 
d="M137 698c5.33301 -39.333 4.66895 -79.667 -1.99805 -121c-6 -42 -9.33301 -83 -10 -123c-0.666992 -42.667 -0.666992 -82.334 0 -119.001s2 -78 4 -124c0.666992 -26.667 1.66699 -51.667 3 -75c0.666992 -10.667 0 -19.667 -2 -27
c-2.66699 -8.66699 -7 -14.667 -13 -18c-8.66699 -4.66699 -16 -7 -22 -7h-4c-7.33301 0.666992 -13.333 3.66699 -18 9c-6 6 -10.667 13.667 -14 23c-4 9.33301 -7 20 -9 32c-4.66699 21.333 -7.33398 43.333 -8.00098 66c-0.666992 23.333 -1 40.666 -1 51.999v15
c0 14.667 0.333008 30.334 1 47.001c0.666992 21.333 2 44 4 68c2.66699 43.333 6 87.333 10 132c3.33301 44.667 5 85.334 5 122.001c0 20.667 -1.66699 40 -5 58c-3.33301 18.667 -4.33301 39 -3 61c11.333 6.66699 21.333 10 30 10c11.333 0 21 -5.33301 29 -16
c13.333 -19.333 21.666 -41 24.999 -65z" />
    <glyph glyph-name="j" unicode="j" horiz-adv-x="498" 
d="M333 714c-0.666992 -38.667 -1.99805 -79.668 -3.99805 -123.001s-3.33301 -87.333 -4 -132c-1.33301 -48 0 -95.333 4 -142c4 -46 2.66699 -87.667 -4 -125c-8.66699 -46.667 -32.667 -80.334 -72 -101.001c-21.333 -11.333 -45.333 -17 -72 -17c-21.333 0 -44 4 -68 12
c-39.333 22 -68.333 57.667 -87 107c-12.667 34 -19 71.333 -19 112c0 18 1.33301 36.667 4 56c21.333 7.33301 37.333 9.33301 48 6c10.667 -4 18.667 -11 24 -21c7.33301 -15.333 10.333 -35.333 9 -60c-0.666992 -24.667 1.66602 -47.667 6.99902 -69
c2.66699 -11.333 7 -21.666 13 -30.999c6 -8.66699 14.667 -15.334 26 -20.001c12 -4.66699 23 -6.66699 33 -6c10 1.33301 18.667 4.33301 26 9c14.667 9.33301 25.667 23.333 33 42c7.33301 18 12 35.667 14 53c2.66699 20 4.33398 42.333 5.00098 67
c1.33301 24.667 2.33301 51 3 79c0.666992 50.667 1 103.667 1 159c0 54.667 1.33301 104.334 4 149.001c-6 1.33301 -13.333 2 -22 2c-8.66699 -0.666992 -17.334 -1 -26.001 -1c-17.333 -1.33301 -34.333 -1.66602 -51 -0.999023c-17.333 1.33301 -29.666 7 -36.999 17
c-4 16.667 -4 30 0 40s11 17.333 21 22c7.33301 4.66699 16.666 7.66699 27.999 9c11.333 2 23.666 3 36.999 3c24 0 50 -1.66699 78 -5s54 -5.33301 78 -6c18 0 34.333 2.66699 49 8c11.333 4 21 6 29 6c2.66699 0 5 -0.333008 7 -1c20 -3.33301 33.667 -15.333 41 -36
c3.33301 -9.33301 5 -18 5 -26c0 -10 -2.66699 -19 -8 -27c-26.667 -4.66699 -50.667 -7 -72 -7c-20.667 0 -47.667 -0.333008 -81 -1z" />
    <glyph glyph-name="k" unicode="k" horiz-adv-x="411" 
d="M371 204l15.001 -26.999c6 -12 11.333 -23.333 16 -34c2.66699 -6 4 -11.667 4 -17c0 -9.33301 -4 -18.333 -12 -27c-11.333 -14 -22 -17.667 -32 -11c-19.333 12.667 -33 26.667 -41 42l-21 45c-20 44.667 -42.667 88 -68 130l-78 120
c-14.667 -10 -27.334 -21.667 -38.001 -35l-32 -40c-4.66699 -36.667 -5.66699 -77.334 -3 -122.001s3.33398 -85 2.00098 -121c-1.33301 -27.333 -9.66602 -41 -24.999 -41c-2 0 -4.33301 0.333008 -7 1c-19.333 4 -32 21.667 -38 53
c-4.66699 26.667 -6.33398 57.334 -5.00098 92.001c2 34.667 2.33301 69.334 1 104.001c-1.33301 49.333 -1 105.666 1 168.999s1.66699 122.333 -1 177c-1.33301 23.333 -3.33301 45.333 -6 66v8c0 17.333 6 32.666 18 45.999c28.667 3.33301 44 -3.66699 46 -21
c1.33301 -18 2.66602 -37.333 3.99902 -58c2.66699 -36 5.66699 -74.333 9 -115c3.33301 -40 3.33301 -78 0 -114c22 12 43.333 32 64 60l60 86c21.333 31.333 40.333 62 57 92c16 30.667 33 56.667 51 78c4 4.66699 8.66699 7 14 7c6 0 12.667 -2.66699 20 -8
c14.667 -10 23 -18 25 -24c2 -8 1.66699 -16.667 -1 -26s-6.66699 -19 -12 -29c-9.33301 -18 -21.333 -35 -36 -51c-14 -16.667 -24 -29.667 -30 -39l-47 -70c-14 -20.667 -29 -41.667 -45 -63l84 -139z" />
    <glyph glyph-name="l" unicode="l" horiz-adv-x="374" 
d="M93 185c20.667 -8.66699 45.6631 -11.0029 74.9961 -7.00293l85 13c14 2.66699 27.667 4.33398 41 5.00098c12.667 0.666992 23.334 -0.666016 32.001 -3.99902c11.333 -3.33301 19.333 -10.666 24 -21.999c2 -5.33301 3 -11.666 3 -18.999
c0 -8.66699 -1.33301 -19.334 -4 -32.001c-45.333 -14.667 -94.666 -23.667 -147.999 -27c-54 -4 -110.667 -6 -170 -6c-14.667 18 -22 39.333 -22 64v8c2 28 2.66699 57.667 2 89c-2 84.667 -1.33301 174.667 2 270c4 95.333 7.33301 186.666 10 273.999c8 6 16 9 24 9
c4.66699 0 9.66699 -1.66699 15 -5c12 -7.33301 21 -15.666 27 -24.999c-3.33301 -106 -5.66602 -205.667 -6.99902 -299c-1.33301 -92.667 2.33398 -188 11.001 -286z" />
    <glyph glyph-name="m" unicode="m" horiz-adv-x="451" 
d="M385 96c-12.667 25.333 -19.6641 48.6621 -20.9971 69.9951c-1.33301 20.667 -2.33301 44.334 -3 71.001c0 64 -2.66699 122.667 -8 176c-4.66699 53.333 -6.33398 107.666 -5.00098 162.999c-7.33301 -10 -13.666 -19.333 -18.999 -28s-10 -16.667 -14 -24
c-10.667 -17.333 -20 -33.666 -28 -48.999c-8 -14.667 -21 -33 -39 -55c-19.333 -6 -35.666 -7.33301 -48.999 -4c-12.667 2.66699 -23.667 8.66699 -33 18c-17.333 16.667 -31 39.334 -41 68.001c-10.667 28.667 -25 52.667 -43 72c-2 -34 -2.66699 -69.667 -2 -107
s1.66699 -74.666 3 -111.999c2 -49.333 5 -99.666 9 -150.999c4.66699 -51.333 0.666992 -89.666 -12 -114.999c-30.667 -6 -50 -2 -58 12c-8 13.333 -11.667 32.333 -11 57c0 13.333 0.333008 27.666 1 42.999c1.33301 16 1.66602 32.667 0.999023 50
c-2.66699 85.333 -4.33398 172.666 -5.00098 261.999v38c0 74 1 141.333 3 202c25.333 10 43.666 8.33301 54.999 -5c12 -12.667 22 -26.667 30 -42l57 -105c22.667 -40 42 -72.667 58 -98c25.333 40.667 47.666 84 66.999 130c20 46 41.667 90 65 132
c12 3.33301 26.667 6.33301 44 9h8c14 0 25 -6 33 -18c5.33301 -7.33301 8 -18.666 8 -33.999c-0.666992 -15.333 -1 -29.666 -1 -42.999c2 -69.333 2.33301 -136.333 1 -201c-0.666992 -64.667 0 -135.334 2 -212.001c1.33301 -36 2.66602 -69.667 3.99902 -101v-8
c0 -28 -6 -51 -18 -69c-4 -1.33301 -7.66699 -2 -11 -2s-6.33301 0.666992 -9 2c-5.33301 2.66699 -11.666 5.33398 -18.999 8.00098z" />
    <glyph glyph-name="n" unicode="n" horiz-adv-x="486" 
d="M87 147c0.666992 -15.333 -1.33594 -29.6689 -6.00293 -43.002c-5.33301 -13.333 -15.333 -25.333 -30 -36h-3c-20 0 -32 4.66699 -36 14s-6 22.666 -6 39.999c6 78.667 10.667 157.667 14 237c4 79.333 6 157.666 6 234.999c0 34.667 -0.333008 67.334 -1 98.001
c0 30.667 1.66699 61 5 91c10.667 8.66699 23.667 12.667 39 12c15.333 -1.33301 28 -4 38 -8l135 -254l139 -275c4 26.667 5.33301 58.667 4 96c-2 37.333 -2.33301 77 -1 119c1.33301 53.333 2 104.333 2 153c-0.666992 48 -1.66699 99 -3 153c4 16.667 12.333 25 25 25
c5.33301 0 11.333 -1.33301 18 -4c22.667 -10 34.334 -27 35.001 -51c0.666992 -29.333 2.33398 -65.333 5.00098 -108c2 -34.667 3 -71 3 -109c0 -8.66699 -0.333008 -17.334 -1 -26.001c-0.666992 -54 -1.66699 -108 -3 -162s-2.66602 -101.333 -3.99902 -142
c-0.666992 -21.333 -2 -44.666 -4 -69.999s-8.66699 -41 -20 -47c-16.667 -8 -35.667 0.333008 -57 25c-22 24.667 -45.333 58.334 -70 101.001c-12.667 22.667 -25.667 47.334 -39 74.001l-40 82c-25.333 53.333 -49.333 106.333 -72 159l-59 134c2 -26.667 3 -55 3 -85
c0 -29.333 -0.666992 -59.666 -2 -90.999c-2.66699 -58 -6 -116.333 -10 -175c-4 -59.333 -5.33301 -113.333 -4 -162z" />
    <glyph glyph-name="o" unicode="o" horiz-adv-x="352" 
d="M323 282c-3.33301 -28 -8.33398 -57.333 -15.001 -88c-7.33301 -30.667 -14.666 -52.334 -21.999 -65.001c-15.333 -24.667 -38.333 -42 -69 -52c-18 -6.66699 -36 -10 -54 -10c-12 0 -23.667 1.33301 -35 4c-16 4 -31 10.333 -45 19
c-13.333 8.66699 -24.333 20.334 -33 35.001c-6 10 -12 25.667 -18 47c-5.33301 21.333 -9 40.333 -11 57c-2 18 -3.33301 38.333 -4 61c-0.666992 20 -1 41 -1 63v8c0 46 1.33301 92 4 138s5.66699 83.333 9 112c5.33301 43.333 15 83.333 29 120
c14 36 37.333 60.667 70 74c13.333 2 26 3 38 3c26 0.666992 48.333 -4.66602 67 -15.999c26.667 -15.333 47.667 -38.333 63 -69c10 -19.333 18 -41.333 24 -66c5.33301 -24 9.33301 -49.667 12 -77c2.66699 -28.667 4 -58.334 4 -89.001c0 -21.333 -0.666992 -43 -2 -65
c-3.33301 -53.333 -7 -101.333 -11 -144zM90.999 303c0.666992 -8.66699 1.33496 -18.668 2.00195 -30.001s1.66699 -23 3 -35c3.33301 -22 8.66602 -42.333 15.999 -61c8 -18.667 20.333 -29 37 -31c2 0 4.33301 -0.333008 7 -1c7.33301 0 14.666 1.66699 21.999 5
c6 3.33301 11.667 7.33301 17 12l6 6c13.333 15.333 23.666 34 30.999 56c8 22 13.333 41.333 16 58c7.33301 43.333 13 91.333 17 144c3.33301 52.667 3 103 -1 151c-2 25.333 -5.33301 49 -10 71c-4 22 -10 41.333 -18 58l-44 20c-5.33301 2 -11 3 -17 3
c-9.33301 0 -19.333 -3.66699 -30 -11c-7.33301 -13.333 -13.666 -30.333 -18.999 -51c-6 -21.333 -11.333 -44.666 -16 -69.999c-8 -46 -13.667 -96 -17 -150c-2 -33.333 -3 -64 -3 -92c0 -18 0.333008 -35.333 1 -52z" />
    <glyph glyph-name="p" unicode="p" horiz-adv-x="374" 
d="M319 738c14.667 -22 25.3359 -54.6641 32.0029 -97.9971c2 -14 3 -27 3 -39c0 -27.333 -4.66699 -52 -14 -74c-6.66699 -13.333 -15.334 -25 -26.001 -35c-10 -9.33301 -21.667 -17.333 -35 -24c-24.667 -12 -53 -20 -85 -24c-31.333 -4 -62.333 -7.66699 -93 -11
c-3.33301 -24 -5 -51 -5 -81c0.666992 -29.333 -0.666016 -65.666 -3.99902 -108.999c-0.666992 -10 -0.666992 -22 0 -36v-42c-0.666992 -21.333 -3.33398 -40.333 -8.00098 -57s-14.334 -25.334 -29.001 -26.001c-12 0 -20.333 5.66699 -25 17
c-4.66699 12 -11.334 21.667 -20.001 29c3.33301 73.333 6.66602 142.666 9.99902 207.999c4 65.333 5.33301 130.666 4 195.999c-0.666992 35.333 -2 71.333 -4 108s-5.33301 74.667 -10 114c4.66699 6 9.33398 11.667 14.001 17s9.66699 10.666 15 15.999
c36 2 71.667 4.33301 107 7c10 1.33301 19.667 2 29 2c24.667 0 47.334 -2.66699 68.001 -8c15.333 -4 29.666 -10 42.999 -18c12.667 -8 23.667 -18.667 33 -32zM101.002 515.003l13 0.00195312c16 0 31 1.33301 45 4c4.66699 0.666992 9.33398 1.66699 14.001 3
c13.333 2.66699 25.333 7 36 13c28 14 47.667 34.667 59 62s9 60.333 -7 99c-5.33301 7.33301 -12 12.666 -20 15.999c-8.66699 3.33301 -18.334 5.66602 -29.001 6.99902c-7.33301 0.666992 -15 1 -23 1c-12.667 0 -26 -1 -40 -3c-22.667 -3.33301 -43 -6 -61 -8
c0 -28 1.33301 -60.667 4 -98c2.66699 -36.667 5.66699 -68.667 9 -96z" />
    <glyph glyph-name="q" unicode="q" horiz-adv-x="463" 
d="M385 65l-4.99902 -0.00195312c-14 0 -25 7 -33 21c-8.66699 16 -18.667 30.333 -30 43c-18 -4 -30.333 -11.333 -37 -22c-6.66699 -11.333 -18.667 -18 -36 -20c-22.667 -3.33301 -45 -3 -67 1c-22.667 4.66699 -41.667 12.667 -57 24c-20 16 -37.333 40 -52 72
c-14 32 -25 66.667 -33 104c-4 19.333 -7 39 -9 59c-2.66699 19.333 -4 38 -4 56v8c0 24.667 1 49.334 3 74.001c2.66699 27.333 6.66699 53.666 12 78.999c10 46.667 24.333 88.334 43 125.001c19.333 36 42.666 61.667 69.999 77c29.333 8 56.333 12 81 12
c6.66699 0 13 -0.333008 19 -1c30 -2.66699 56.333 -10.667 79 -24c42 -24.667 72 -63.667 90 -117c15.333 -44 23 -92 23 -144c0 -11.333 -0.333008 -22.666 -1 -33.999c-3.33301 -48 -12.333 -93.667 -27 -137s-28.667 -80.333 -42 -111
c8.66699 -13.333 19.667 -32 33 -56c13.333 -23.333 18.666 -43.333 15.999 -60c-1.33301 -8 -5 -14.333 -11 -19c-5.33301 -4.66699 -13.666 -8 -24.999 -10zM201.001 688.998c-22.667 -14 -41.332 -34.002 -55.999 -60.002c-14 -25.333 -24.333 -54 -31 -86
c-7.33301 -32.667 -10.666 -66.667 -9.99902 -102c0 -28.667 2.33301 -58.667 7 -90c10 -68 27.333 -123.333 52 -166c10.667 -4 21.334 -6.33301 32.001 -7c12 0 23.667 3 35 9c21.333 10.667 37.333 24.334 48 41.001c-6 12.667 -16 32.334 -30 59.001
c-14.667 26.667 -20 48.667 -16 66c0.666992 6 3 11 7 15c4 4.66699 10 7.66699 18 9c7.33301 1.33301 13.666 1 18.999 -1c5.33301 -1.33301 9.66602 -4.33301 12.999 -9c6.66699 -7.33301 12 -17 16 -29c3.33301 -12 8.66602 -21.667 15.999 -29c12 32 23 71.667 33 119
c5.33301 26.667 8 52.667 8 78c0 20 -1.66699 39.667 -5 59c-4 23.333 -11.333 45.333 -22 66c-10 20.667 -24.667 38.667 -44 54l-27 16c-4 1.33301 -8.66699 2 -14 2c-12 0 -28.333 -4.66699 -49 -14z" />
    <glyph glyph-name="r" unicode="r" horiz-adv-x="423" 
d="M337 239c9.33301 -22.667 21.3311 -45.3301 35.998 -67.9971c12.667 -18.667 19 -36 19 -52c0 -3.33301 -0.333008 -6.33301 -1 -9c-0.666992 -8 -5.66699 -16.667 -15 -26c-8.66699 -8.66699 -18.667 -12.667 -30 -12c-14.667 2 -26 10 -34 24
c-7.33301 14 -13.333 29.667 -18 47l-8 29c-2 9.33301 -4.33301 17.666 -7 24.999c-10 30 -24 64.333 -42 103c-17.333 39.333 -31 76 -41 110c-18.667 0.666992 -34.334 -1.33301 -47.001 -6s-29 -5.66699 -49 -3c1.33301 -30.667 0.333008 -67.667 -3 -111
c-2.66699 -44 -3 -84.667 -1 -122c0.666992 -17.333 2 -36.666 4 -57.999c2 -20.667 -7.66699 -33.334 -29 -38.001c-5.33301 -0.666992 -10.333 -1 -15 -1c-6 0 -11.333 1 -16 3c-7.33301 3.33301 -13 8.66602 -17 15.999c-5.33301 10.667 -8 23.667 -8 39
c0 5.33301 0.333008 10.666 1 15.999c2.66699 22.667 4.33398 43 5.00098 61c2 48 3.33301 106.667 4 176c0 70 -1.33301 137.667 -4 203c-1.33301 31.333 -2 62.333 -2 93c0 30 3.33301 55.667 10 77c16.667 7.33301 33.334 12.333 50.001 15c16.667 2 35.334 4 56.001 6
c2.66699 0.666992 5 1 7 1h7c4 -0.666992 8.33301 -1 13 -1c26 2 49.667 -1.66699 71 -11c22 -9.33301 40.667 -22.333 56 -39c29.333 -30.667 47 -69 53 -115c5.33301 -46 -6 -88 -34 -126c-8.66699 -6.66699 -17.667 -13 -27 -19s-17 -13.667 -23 -23l37 -97z
M91.998 685.004c-0.666992 -10.667 -1 -22.001 -1 -34.001c0 -19.333 0.666992 -40.666 2 -63.999c1.33301 -38 3.66602 -72 6.99902 -102h6c19.333 -0.666992 36.333 1.33301 51 6c14 4.66699 26 11 36 19l65 54c7.33301 20 10 37.667 8 53
c-1.33301 15.333 -6 28.333 -14 39c-14 20 -36.333 32.333 -67 37c-9.33301 1.33301 -19 2 -29 2c-21.333 0 -42.666 -3.33301 -63.999 -10z" />
    <glyph glyph-name="s" unicode="s" horiz-adv-x="403" 
d="M104 623c-3.33301 -29.333 10.665 -51.665 41.998 -66.998s65.333 -27 102 -35c48.667 -22 81.334 -53.667 98.001 -95c14.667 -34.667 22 -73 22 -115c0 -8 -0.333008 -15.667 -1 -23c-0.666992 -14 -3.66699 -28.667 -9 -44
c-4.66699 -15.333 -11.334 -30.333 -20.001 -45c-15.333 -28 -35.666 -52.667 -60.999 -74c-24.667 -21.333 -51.334 -33.666 -80.001 -36.999c-5.33301 -0.666992 -10.333 -1 -15 -1c-14.667 0 -29 2.33301 -43 7c-19.333 6 -36.666 15 -51.999 27
c-29.333 22.667 -51 53.334 -65 92.001c-6.66699 19.333 -10 38.666 -10 57.999c0 20.667 3.66699 41.667 11 63c14 3.33301 25.333 3.33301 34 0s15.334 -9.33301 20.001 -18c4.66699 -6 8 -13.333 10 -22c2.66699 -8.66699 5 -17.667 7 -27c3.33301 -17.333 7 -34 11 -50
c4.66699 -16 13.334 -26.667 26.001 -32c18 -5.33301 34.667 -7 50 -5c15.333 2.66699 29 7.66699 41 15c22.667 14.667 39.667 35.667 51 63c12 26.667 17.667 52 17 76c0 14.667 -5 33.667 -15 57s-19 38.333 -27 45c-8.66699 7.33301 -19.334 12.666 -32.001 15.999
l-41 10c-12.667 3.33301 -27.667 8.66602 -45 15.999c-17.333 8 -31.666 15.333 -42.999 22c-33.333 21.333 -53.666 53 -60.999 95c-8 41.333 -4.66699 77.666 10 108.999c8.66699 19.333 20.667 34.666 36 45.999c15.333 12 31.666 22 48.999 30c14 8 30.333 12.333 49 13
h6c17.333 0 34.666 -2.33301 51.999 -7c28.667 -7.33301 53.667 -19.666 75 -36.999s30 -36.666 26 -57.999c-2 -8.66699 -4.66699 -15.334 -8 -20.001c-4 -4 -8.66699 -6.33301 -14 -7c-12 -2.66699 -25.667 1.66602 -41 12.999c-15.333 10.667 -27 21 -35 31
c-30 14.667 -57.667 15.334 -83 2.00098c-25.333 -14 -40 -43 -44 -87z" />
    <glyph glyph-name="t" unicode="t" horiz-adv-x="464" 
d="M447 718c-8.66699 -6.66699 -17.334 -10.9961 -26.001 -12.9961c-9.33301 -1.33301 -18.666 -2 -27.999 -2c-18.667 1.33301 -38.334 4.33301 -59.001 9c-20.667 4 -43.334 4.33301 -68.001 1c-2 -40.667 -3.66699 -90 -5 -148c-1.33301 -57.333 -2 -115.333 -2 -174
c0 -31.333 0.333008 -61.666 1 -90.999c0 -30 0.333008 -57.667 1 -83c0.666992 -18.667 2.33398 -41.334 5.00098 -68.001s-3.33301 -44 -18 -52c-7.33301 -4.66699 -14.333 -7 -21 -7c-8.66699 0 -16.334 4 -23.001 12c-12 13.333 -23 24.333 -33 33
c2 95.333 4.33301 191.666 7 288.999c2 97.333 2.33301 193.666 1 288.999c-21.333 7.33301 -43.666 9.66602 -66.999 6.99902c-22.667 -2.66699 -44.667 -6.33398 -66 -11.001c-10 7.33301 -17.333 17.666 -22 30.999c-2 6.66699 -3 13.667 -3 21c0 6.66699 1 13.667 3 21
c22 6.66699 44.333 11.334 67 14.001c22.667 2 45.334 3.33301 68.001 4h11c38 0 76.333 -1.66699 115 -5c42.667 -3.33301 85 -3.33301 127 0c10.667 -8 19.667 -17.667 27 -29c5.33301 -9.33301 8 -21.333 8 -36v-12z" />
    <glyph glyph-name="u" unicode="u" horiz-adv-x="410" 
d="M220 67c-4 -0.666992 -8.33594 -1.00098 -13.0029 -1.00098c-20 0 -41.333 4.33301 -64 13c-28.667 10 -48 20.333 -58 31c-13.333 14.667 -24 32.334 -32 53.001s-14 43 -18 67c-7.33301 45.333 -10.333 94.666 -9 147.999s2.33301 104.333 3 153
c0.666992 44 -0.333008 86.667 -3 128c-0.666992 14.667 -1 28.667 -1 42c0 24.667 1.33301 47.667 4 69c34.667 6.66699 56.667 -1.33301 66 -24s14 -51.334 14 -86.001c0 -18.667 -0.666992 -38 -2 -58c-0.666992 -20 -0.666992 -39.333 0 -58
c2.66699 -61.333 3.33398 -119.333 2.00098 -174s5.33398 -105 20.001 -151c6.66699 -20.667 20.334 -38 41.001 -52c20.667 -13.333 43 -10.666 67 8.00098c14 11.333 24.667 35.333 32 72c6.66699 36.667 11.334 73.667 14.001 111c2 20.667 3.33301 40 4 58
s1.33398 33.333 2.00098 46c3.33301 54.667 3 108 -1 160s-3.66699 100 1 144c12.667 4.66699 23.334 7 32.001 7c4.66699 0 8.66699 -0.333008 12 -1c11.333 -3.33301 20.666 -10.666 27.999 -21.999c10.667 -16 17 -39 19 -69c1.33301 -18.667 2 -38 2 -58
c0 -11.333 -0.333008 -23 -1 -35c-0.666992 -18 -1.66699 -35.333 -3 -52c-0.666992 -17.333 -1.33398 -33.333 -2.00098 -48c-0.666992 -28.667 -2.33398 -60.667 -5.00098 -96c-2.66699 -36 -5.33398 -64.667 -8.00098 -86c-3.33301 -34 -9.66602 -68.667 -18.999 -104
c-9.33301 -36 -20.333 -65 -33 -87c-18.667 -12 -34 -22.333 -46 -31c-12 -9.33301 -27 -15 -45 -17z" />
    <glyph glyph-name="v" unicode="v" horiz-adv-x="491" 
d="M236 284c22.667 44 40.6699 92 54.0029 144c12.667 51.333 27.667 102 45 152c11.333 33.333 21.666 67 30.999 101s23.333 64.667 42 92c19.333 2 32.666 -1.66699 39.999 -11l24 -27c-26.667 -108 -59.667 -212.667 -99 -314c-40 -100.667 -69.667 -205 -89 -313
c-7.33301 -18.667 -21.333 -28.334 -42 -29.001h-1c-20.667 0.666992 -36.667 9 -48 25c-8.66699 12.667 -14 32.667 -16 60c-2.66699 27.333 -7.33398 54.333 -14.001 81c-4.66699 22 -10 45 -16 69s-12.667 48.667 -20 74c-12 46 -24.667 92 -38 138l-33 119
c-2 8.66699 -5 17.334 -9 26.001s-7.66699 17 -11 25c-6.66699 16 -11 31 -13 45v6c0 11.333 5.33301 21.666 16 30.999h2c10.667 0 19.667 -2 27 -6c6.66699 -4.66699 14 -8.66699 22 -12c28 -76 53.333 -154.333 76 -235c22 -81.333 45.333 -161.666 70 -240.999z" />
    <glyph glyph-name="w" unicode="w" horiz-adv-x="610" 
d="M293 331c-20.667 -38.667 -39.9961 -77.6689 -57.9961 -117.002c-17.333 -39.333 -33 -81 -47 -125c-4.66699 -2 -9.33398 -5.33301 -14.001 -10c-4.66699 -4 -9.33398 -6 -14.001 -6c-13.333 4.66699 -24.333 11.667 -33 21c-8.66699 8.66699 -17 18 -25 28
c-2 20 -6.66699 51 -14 93l-24 138l-15 83c-4.66699 28 -9 55.667 -13 83c-8.66699 52 -15.334 99.333 -20.001 142c-3.33301 29.333 -5 53.333 -5 72c0 9.33301 0.333008 17.666 1 24.999c9.33301 8.66699 19.333 10.667 30 6c11.333 -4.66699 22 -8 32 -10
c16.667 -80 31 -162.333 43 -247c11.333 -84 25.666 -166 42.999 -246c12 14 23.333 31.333 34 52c11.333 20.667 22.333 42.667 33 66c6.66699 16 17.334 36.667 32.001 62c14 25.333 28.667 40 44 44c6.66699 1.33301 13 -0.333984 19 -5.00098
c6.66699 -4 12.667 -12.667 18 -26c2 -4 7 -18.667 15 -44l25 -80c6 -18.667 11.333 -37 16 -55c4.66699 -17.333 8 -31.333 10 -42c24.667 82.667 45.667 169 63 259c18 90 38 180 60 270c10 3.33301 19 5 27 5c18 0 29.667 -9 35 -27c4 -12.667 6 -26 6 -40
c0 -15.333 -2.33301 -31.666 -7 -48.999l-29 -124l-34 -149l-19 -78c-6 -25.333 -12 -49.333 -18 -72c-10.667 -42 -20.334 -76.333 -29.001 -103c-8 -27.333 -14 -40.666 -18 -39.999c-30.667 -8 -52.667 -2.66699 -66 16s-25.666 46.334 -36.999 83.001
c-6.66699 20.667 -13.334 43.334 -20.001 68.001c-7.33301 24.667 -16.333 51 -27 79z" />
    <glyph glyph-name="x" unicode="x" horiz-adv-x="470" 
d="M294 437c22 -59.333 43.3301 -111.334 63.9971 -156.001s41 -98 61 -160c0 -12 -3 -20.333 -9 -25l-18 -14c-29.333 8 -45.666 21.333 -48.999 40c-2.66699 18 -9 39 -19 63l-41 95c-15.333 35.333 -27.666 66 -36.999 92c-12.667 -15.333 -26 -36.666 -40 -63.999
l-42 -81c-8 -14 -16 -31 -24 -51c-8 -20.667 -16.667 -38.334 -26 -53.001c-5.33301 -8 -10.666 -15 -15.999 -21c-6 -5.33301 -12 -8.33301 -18 -9c-17.333 -2.66699 -31 -0.666992 -41 6c-10 7.33301 -15.333 16.666 -16 27.999v3c0 6.66699 2 15.334 6 26.001
c4.66699 12.667 10.667 26 18 40c10.667 20.667 22 41.334 34 62.001l28 45c18 29.333 35 55.333 51 78s31.333 47 46 73c-8 21.333 -16.333 42.333 -25 63s-18.667 41.667 -30 63c-5.33301 10.667 -11.333 22 -18 34l-20 36c-12.667 23.333 -22 45 -28 65
c-6.66699 20.667 -4.33398 34.667 6.99902 42c7.33301 3.33301 14 4.33301 20 3s11.667 -4 17 -8c12.667 -10 23.667 -25.333 33 -46c8.66699 -20.667 16.334 -37.334 23.001 -50.001c10 -20.667 23 -44 39 -70c15.333 -25.333 26.333 -46.666 33 -63.999
c8.66699 12.667 19 28.667 31 48l36 61c12 22.667 23 50 33 82s23.333 52.667 40 62c4.66699 2.66699 10 3.66699 16 3c2.66699 0 5.66699 -0.333008 9 -1c9.33301 -2 20 -8.66699 32 -20c-14 -66 -37.333 -122.667 -70 -170c-32.667 -46.667 -62.667 -96.667 -90 -150z" />
    <glyph glyph-name="y" unicode="y" horiz-adv-x="410" 
d="M176 260c1.33301 24 3.00293 50.666 5.00293 79.999c2 28.667 0.333008 53 -5 73c-4.66699 16.667 -11.334 35.334 -20.001 56.001l-26 58c-9.33301 20.667 -20 40.667 -32 60l-30 50c-3.33301 6 -7.66602 12.333 -12.999 19l-14 18c-8 11.333 -13 23.333 -15 36
c-0.666992 2 -1 4 -1 6c0 11.333 6 23.666 18 36.999c26 -1.33301 45.333 -13 58 -35l33 -60l36 -66l36 -63c21.333 18.667 37.666 41.667 48.999 69l34 84c6 14.667 12.333 29.334 19 44.001c7.33301 14 15.666 27 24.999 39c5.33301 2 10.333 3 15 3
c7.33301 0 14 -2.33301 20 -7c10 -6.66699 16.333 -15 19 -25v-7c0 -5.33301 -1 -11.666 -3 -18.999c-2.66699 -10.667 -6.66699 -22.334 -12 -35.001c-8.66699 -19.333 -18 -38.333 -28 -57l-24 -43c-12.667 -24 -26.334 -48.333 -41.001 -73
c-14.667 -25.333 -24.334 -52 -29.001 -80c-3.33301 -22 -5 -44 -5 -66c0 -21.333 0.333008 -42.666 1 -63.999c2 -38.667 3.66699 -76.334 5 -113.001c0.666992 -36 -5 -69.667 -17 -101c-9.33301 -2 -17.333 -3 -24 -3c-5.33301 0 -10.333 0.666992 -15 2
c-9.33301 3.33301 -16.666 8.66602 -21.999 15.999c-12 18 -15 44 -9 78c6 34.667 10 64.334 12 89.001z" />
    <glyph glyph-name="z" unicode="z" horiz-adv-x="442" 
d="M413 171c2.66699 -8.66699 5 -17.6689 7 -27.002c2.66699 -8.66699 4.66699 -18 6 -28c-11.333 -20.667 -25.333 -31 -42 -31c-2 -0.666992 -4.33301 -0.666992 -7 0c-20 2.66699 -43.667 4.33398 -71 5.00098c-21.333 0 -43.333 -1 -66 -3
c-22 -2 -42.667 -2.33301 -62 -1c-16 0.666992 -30.667 1.33398 -44 2.00098c-13.333 1.33301 -25.333 1.66602 -36 0.999023c-8 -0.666992 -16.667 -1.66699 -26 -3c-8.66699 -1.33301 -16.334 -1.33301 -23.001 0c-10 2 -19 9.66699 -27 23
c-7.33301 12.667 -11 25.334 -11 38.001v3c0.666992 12.667 6.66699 26.667 18 42s21 29.666 29 42.999l27 44l24 38c4 6.66699 8 14.334 12 23.001c4.66699 8.66699 9.33398 16.667 14.001 24c28.667 44 60.334 97 95.001 159l89 161c-34.667 6 -70.334 7.33301 -107.001 4
s-69.334 -3.33301 -98.001 0c-9.33301 6.66699 -14 19 -14 37s4.66699 30 14 36c47.333 8 94.333 11.333 141 10s89.334 1 128.001 7c15.333 -1.33301 26.666 -4 33.999 -8c8 -4.66699 13 -10.667 15 -18c1.33301 -3.33301 2 -7 2 -11
c-0.666992 -10.667 -4.66699 -22.667 -12 -36c-10 -18.667 -20.333 -37 -31 -55l-130 -230c-45.333 -76 -88.666 -153.333 -129.999 -232c14 -4 29.333 -6.33301 46 -7c16.667 -1.33301 34 -1.66602 52 -0.999023c32.667 1.33301 65.667 3 99 5
c32.667 1.33301 61 -3.33398 85 -14.001z" />
    <glyph glyph-name="" unicode="&#x2010;" horiz-adv-x="574" 
d="M180 315c-9.33301 0 -18.334 -0.666992 -27.001 -2c-9.33301 -2 -18.333 -1.33301 -27 2c-6 6 -9.66699 16 -11 30v9c0 10 1.33301 18.667 4 26c35.333 4 75.333 4 120 0s82.667 -2.66699 114 4c4.66699 0.666992 9 1 13 1c10.667 0 20.334 -3 29.001 -9
c10.667 -8 16 -21 16 -39v-4c-21.333 -16 -49 -24 -83 -24c-6.66699 0 -13.667 0.333008 -21 1c-44 4 -86.333 5.66699 -127 5z" />
    <glyph glyph-name="" unicode="&#x2011;" horiz-adv-x="307" 
d="M75 441c-9.33301 0 -18.6631 -1 -27.9961 -3c-8.66699 -1.33301 -17.334 -0.333008 -26.001 3c-6.66699 6 -10.334 15.667 -11.001 29v10c0 10 1.33301 18.667 4 26c35.333 3.33301 75.333 3.33301 120 0c44 -4 82 -2.66699 114 4c4 0.666992 8.33301 1 13 1
c10.667 0 20 -3 28 -9c11.333 -8 16.666 -21 15.999 -39v-4c-20.667 -16 -48.334 -24 -83.001 -24c-6.66699 0 -13.667 0.333008 -21 1c-44 4 -86 5.66699 -126 5z" />
    <glyph glyph-name="" unicode="&#x2012;" horiz-adv-x="348" 
d="M89 344c-10 0 -19.333 -1 -28 -3c-9.33301 -2 -18 -1 -26 3c-6.66699 5.33301 -10.334 15 -11.001 29c-0.666992 3.33301 -1 6.33301 -1 9c0 10 1.66699 19 5 27c35.333 3.33301 75 3 119 -1c44.667 -4 83 -2.66699 115 4c4 0.666992 8 1 12 1
c10.667 0.666992 20.334 -2.33301 29.001 -9c10.667 -7.33301 16 -20 16 -38v-4c-21.333 -16 -49 -24 -83 -24c-6.66699 0 -13.667 0.333008 -21 1c-44 3.33301 -86 5 -126 5z" />
    <glyph glyph-name="endash" unicode="&#x2013;" horiz-adv-x="315" 
d="M71 361c-9.33301 0 -18.6641 -1 -27.9971 -3c-8.66699 -1.33301 -17.334 -0.333008 -26.001 3c-6.66699 6 -10.334 16 -11.001 30v9c0 10 1.33301 18.667 4 26c35.333 3.33301 75.333 3.33301 120 0c44 -4 82 -2.66699 114 4c4 0.666992 8.33301 1 13 1
c10.667 0 20 -3 28 -9c11.333 -8 16.666 -21 15.999 -39v-4c-21.333 -16 -49 -24 -83 -24c-6.66699 0 -13.667 0.333008 -21 1c-44 4 -86 5.66699 -126 5z" />
    <glyph glyph-name="emdash" unicode="&#x2014;" horiz-adv-x="404" 
d="M341 79c-55.333 3.33301 -110.998 0.000976562 -166.998 -9.99902c-30 -6 -59 -9 -87 -9c-24.667 0 -48.667 2.33301 -72 7c-4.66699 7.33301 -7.33398 16 -8.00098 26v2c0 8.66699 2.66699 16 8 22c26.667 -4 53.667 -1.66699 81 7s56.333 13.667 87 15
c25.333 1.33301 54.333 1.66602 87 0.999023c32 -1.33301 59.667 0.666992 83 6h4c5.33301 0 10.666 -2 15.999 -6l18 -13c0 -6.66699 1 -12.667 3 -18c0.666992 -3.33301 1 -7 1 -11c0 -2.66699 -0.333008 -5.66699 -1 -9c-8.66699 -10 -16.667 -14.333 -24 -13
s-17 2.33301 -29 3z" />
    </font>
</defs>
</svg>
